SplineFontDB: 3.0
FontName: CheyenneSans-Medium
FullName: Cheyenne Sans Medium
FamilyName: Cheyenne Sans Medium
Weight: Medium
Version: 1.000; ttfautohint (v1.8.2)
ItalicAngle: 0
UnderlinePosition: -150
UnderlineWidth: 50
Ascent: 800
Descent: 200
InvalidEm: 0
sfntRevision: 0x00010000
LayerCount: 2
Layer: 0 1 "Back" 1
Layer: 1 1 "Fore" 0
XUID: [1021 788 582120202 3333848]
StyleMap: 0x0040
FSType: 0
OS2Version: 3
OS2_WeightWidthSlopeOnly: 0
OS2_UseTypoMetrics: 0
CreationTime: 1513572760
ModificationTime: 1545430842
PfmFamily: 81
TTFWeight: 500
TTFWidth: 5
LineGap: 0
VLineGap: 0
Panose: 0 0 6 0 0 0 0 0 0 0
OS2TypoAscent: 743
OS2TypoAOffset: 0
OS2TypoDescent: -161
OS2TypoDOffset: 0
OS2TypoLinegap: 0
OS2WinAscent: 822
OS2WinAOffset: 0
OS2WinDescent: 178
OS2WinDOffset: 0
HheadAscent: 822
HheadAOffset: 0
HheadDescent: -178
HheadDOffset: 0
OS2SubXSize: 650
OS2SubYSize: 600
OS2SubXOff: 0
OS2SubYOff: 75
OS2SupXSize: 650
OS2SupYSize: 600
OS2SupXOff: 0
OS2SupYOff: 350
OS2StrikeYSize: 50
OS2StrikeYPos: 310
OS2CapHeight: 723
OS2XHeight: 517
OS2Vendor: 'IMPA'
OS2CodePages: 20000193.00000000
OS2UnicodeRanges: 00000007.00000000.00000000.00000000
Lookup: 1 0 0 "'aalt' Access All Alternates in Latin lookup 0" { "'aalt' Access All Alternates in Latin lookup 0 subtable"  } ['aalt' ('DFLT' <'dflt' > 'latn' <'AZE ' 'CAT ' 'CRT ' 'KAZ ' 'MOL ' 'ROM ' 'TAT ' 'TRK ' 'dflt' > ) ]
Lookup: 3 0 0 "'aalt' Access All Alternates in Latin lookup 1" { "'aalt' Access All Alternates in Latin lookup 1 subtable"  } ['aalt' ('DFLT' <'dflt' > 'latn' <'AZE ' 'CAT ' 'CRT ' 'KAZ ' 'MOL ' 'ROM ' 'TAT ' 'TRK ' 'dflt' > ) ]
Lookup: 6 0 0 "'ccmp' Glyph Composition/Decomposition in Latin lookup 2" { "'ccmp' Glyph Composition/Decomposition in Latin lookup 2 contextual 0"  "'ccmp' Glyph Composition/Decomposition in Latin lookup 2 contextual 1"  } ['ccmp' ('DFLT' <'dflt' > 'latn' <'AZE ' 'CAT ' 'CRT ' 'KAZ ' 'MOL ' 'ROM ' 'TAT ' 'TRK ' 'dflt' > ) ]

StartChar: .notdef
Encoding: 65536 -1 0
Width: 676
Flags: W
LayerCount: 2
Fore
SplineSet
586 805 m 2,0,-1
 586 -133 l 2,1,2
 586 -148 586 -148 578.5 -154.5 c 128,-1,3
 571 -161 571 -161 554 -161 c 2,4,-1
 118 -161 l 2,5,6
 103 -161 103 -161 97 -155.5 c 128,-1,7
 91 -150 91 -150 91 -137 c 2,8,-1
 91 803 l 2,9,10
 91 814 91 814 96 820 c 128,-1,11
 101 826 101 826 110 826 c 2,12,-1
 569 826 l 2,13,14
 586 826 586 826 586 805 c 2,0,-1
532 772.5 m 128,-1,16
 528 777 528 777 521 777 c 2,17,-1
 177 777 l 1,18,-1
 536 -57 l 1,19,-1
 536 760 l 2,20,15
 536 768 536 768 532 772.5 c 128,-1,16
147 -107 m 128,-1,22
 152 -112 152 -112 164 -112 c 2,23,-1
 499 -112 l 1,24,-1
 142 716 l 1,25,-1
 142 -92 l 2,26,21
 142 -102 142 -102 147 -107 c 128,-1,22
EndSplineSet
EndChar

StartChar: exclam
Encoding: 33 33 4
Width: 256
GlyphClass: 2
Flags: W
LayerCount: 2
Fore
SplineSet
159 191 m 1,0,-1
 92 191 l 1,1,-1
 64 723 l 1,2,-1
 186 723 l 1,3,-1
 159 191 l 1,0,-1
184 0 m 1,4,-1
 66 0 l 1,5,-1
 66 124 l 1,6,-1
 184 124 l 1,7,-1
 184 0 l 1,4,-1
EndSplineSet
EndChar

StartChar: quotedbl
Encoding: 34 34 5
Width: 429
GlyphClass: 2
Flags: W
LayerCount: 2
Fore
SplineSet
344 481 m 1,0,-1
 288 481 l 1,1,-1
 257 723 l 1,2,-1
 376 723 l 1,3,-1
 344 481 l 1,0,-1
159 481 m 1,4,-1
 103 481 l 1,5,-1
 72 723 l 1,6,-1
 191 723 l 1,7,-1
 159 481 l 1,4,-1
EndSplineSet
EndChar

StartChar: numbersign
Encoding: 35 35 6
Width: 600
GlyphClass: 2
Flags: W
LayerCount: 2
Fore
SplineSet
447 438 m 1,0,-1
 425 293 l 1,1,-1
 532 293 l 1,2,-1
 532 233 l 1,3,-1
 416 233 l 1,4,-1
 381 -2 l 1,5,-1
 321 7 l 1,6,-1
 355 233 l 1,7,-1
 210 233 l 1,8,-1
 175 -2 l 1,9,-1
 114 7 l 1,10,-1
 148 233 l 1,11,-1
 32 233 l 1,12,-1
 32 293 l 1,13,-1
 157 293 l 1,14,-1
 180 438 l 1,15,-1
 64 438 l 1,16,-1
 64 498 l 1,17,-1
 189 498 l 1,18,-1
 223 724 l 1,19,-1
 283 718 l 1,20,-1
 250 498 l 1,21,-1
 395 498 l 1,22,-1
 429 724 l 1,23,-1
 489 718 l 1,24,-1
 456 498 l 1,25,-1
 564 498 l 1,26,-1
 564 438 l 1,27,-1
 447 438 l 1,0,-1
386 438 m 1,28,-1
 241 438 l 1,29,-1
 219 293 l 1,30,-1
 364 293 l 1,31,-1
 386 438 l 1,28,-1
EndSplineSet
EndChar

StartChar: dollar
Encoding: 36 36 7
Width: 614
GlyphClass: 2
Flags: W
LayerCount: 2
Fore
SplineSet
545 91.5 m 128,-1,1
 519 49 519 49 471.5 23 c 128,-1,2
 424 -3 424 -3 362 -6 c 0,3,4
 355 -7 355 -7 352.5 -9.5 c 128,-1,5
 350 -12 350 -12 350 -18 c 2,6,-1
 350 -83 l 1,7,-1
 278 -83 l 1,8,-1
 278 -7 l 1,9,10
 194 -4 194 -4 134.5 24.5 c 128,-1,11
 75 53 75 53 27 111 c 1,12,-1
 90 171 l 1,13,14
 129 125 129 125 173.5 100.5 c 128,-1,15
 218 76 218 76 279 72 c 1,16,-1
 279 315 l 1,17,18
 157 352 157 352 106.5 401.5 c 128,-1,19
 56 451 56 451 56 528 c 0,20,21
 56 606 56 606 112.5 659 c 128,-1,22
 169 712 169 712 265 726 c 0,23,24
 270 727 270 727 274.5 730 c 128,-1,25
 279 733 279 733 279 738 c 2,26,-1
 279 793 l 1,27,-1
 349 793 l 1,28,-1
 349 729 l 1,29,30
 464 708 464 708 547 636 c 1,31,-1
 489 570 l 1,32,33
 468 596 468 596 433.5 616 c 128,-1,34
 399 636 399 636 359 644 c 1,35,-1
 356 645 l 2,36,37
 349 645 349 645 349 637 c 2,38,-1
 349 403 l 1,39,-1
 402 386 l 1,40,41
 571 323 571 323 571 188 c 0,42,0
 571 134 571 134 545 91.5 c 128,-1,1
281 647 m 1,43,44
 253 647 253 647 222.5 634 c 128,-1,45
 192 621 192 621 170.5 596 c 128,-1,46
 149 571 149 571 149 536 c 0,47,48
 149 487 149 487 185.5 461 c 128,-1,49
 222 435 222 435 279 417 c 1,50,-1
 281 647 l 1,43,44
442.5 104.5 m 128,-1,52
 478 134 478 134 478 177 c 128,-1,53
 478 220 478 220 448 249 c 128,-1,54
 418 278 418 278 349 301 c 1,55,-1
 349 72 l 1,56,51
 407 75 407 75 442.5 104.5 c 128,-1,52
EndSplineSet
EndChar

StartChar: percent
Encoding: 37 37 8
Width: 910
GlyphClass: 2
Flags: W
LayerCount: 2
Fore
SplineSet
314.5 708 m 128,-1,1
 354 682 354 682 376 635 c 128,-1,2
 398 588 398 588 398 527 c 128,-1,3
 398 466 398 466 376 419.5 c 128,-1,4
 354 373 354 373 314.5 347.5 c 128,-1,5
 275 322 275 322 226 322 c 0,6,7
 176 322 176 322 136.5 347.5 c 128,-1,8
 97 373 97 373 74.5 419.5 c 128,-1,9
 52 466 52 466 52 527 c 128,-1,10
 52 588 52 588 74.5 635 c 128,-1,11
 97 682 97 682 137 708 c 128,-1,12
 177 734 177 734 226 734 c 128,-1,0
 275 734 275 734 314.5 708 c 128,-1,1
259 -4 m 1,13,-1
 193 -3 l 1,14,-1
 680 731 l 1,15,-1
 745 731 l 1,16,-1
 259 -4 l 1,13,-1
295.5 418 m 128,-1,18
 320 458 320 458 320 527 c 128,-1,19
 320 596 320 596 295 637.5 c 128,-1,20
 270 679 270 679 225 679 c 128,-1,21
 180 679 180 679 155 637.5 c 128,-1,22
 130 596 130 596 130 527 c 128,-1,23
 130 458 130 458 154.5 418 c 128,-1,24
 179 378 179 378 225 378 c 128,-1,17
 271 378 271 378 295.5 418 c 128,-1,18
771 377 m 128,-1,26
 810 351 810 351 832.5 304 c 128,-1,27
 855 257 855 257 855 196 c 128,-1,28
 855 135 855 135 832.5 88 c 128,-1,29
 810 41 810 41 771 15.5 c 128,-1,30
 732 -10 732 -10 682 -10 c 0,31,32
 633 -10 633 -10 593.5 15.5 c 128,-1,33
 554 41 554 41 531.5 88 c 128,-1,34
 509 135 509 135 509 196 c 0,35,36
 509 256 509 256 531.5 303.5 c 128,-1,37
 554 351 554 351 593.5 377 c 128,-1,38
 633 403 633 403 682 403 c 0,39,25
 732 403 732 403 771 377 c 128,-1,26
751 88 m 128,-1,41
 777 129 777 129 777 195 c 0,42,43
 777 263 777 263 751 305 c 128,-1,44
 725 347 725 347 681 347 c 128,-1,45
 637 347 637 347 612 305 c 128,-1,46
 587 263 587 263 587 195 c 0,47,48
 587 129 587 129 612 88 c 128,-1,49
 637 47 637 47 681 47 c 128,-1,40
 725 47 725 47 751 88 c 128,-1,41
EndSplineSet
EndChar

StartChar: ampersand
Encoding: 38 38 9
Width: 719
GlyphClass: 2
Flags: W
LayerCount: 2
Fore
SplineSet
418.5 714.5 m 128,-1,1
 465 695 465 695 492 660 c 128,-1,2
 519 625 519 625 519 579 c 0,3,4
 519 534 519 534 480.5 484 c 128,-1,5
 442 434 442 434 350 384 c 1,6,-1
 501 208 l 1,7,8
 521 239 521 239 539.5 287 c 128,-1,9
 558 335 558 335 562 393 c 1,10,-1
 663 393 l 1,11,12
 652 326 652 326 624 269.5 c 128,-1,13
 596 213 596 213 551 147 c 1,14,-1
 677 0 l 1,15,-1
 558 0 l 1,16,-1
 489 79 l 1,17,18
 387 -5 387 -5 263 -5 c 0,19,20
 157 -5 157 -5 99.5 46 c 128,-1,21
 42 97 42 97 42 182 c 0,22,23
 42 251 42 251 83.5 302.5 c 128,-1,24
 125 354 125 354 215 402 c 1,25,26
 169 451 169 451 147.5 489.5 c 128,-1,27
 126 528 126 528 126 573 c 128,-1,28
 126 618 126 618 150.5 655 c 128,-1,29
 175 692 175 692 218.5 713 c 128,-1,30
 262 734 262 734 317 734 c 128,-1,0
 372 734 372 734 418.5 714.5 c 128,-1,1
253.5 641 m 128,-1,32
 228 616 228 616 228 580 c 0,33,34
 228 526 228 526 287 459 c 1,35,-1
 306 440 l 1,36,37
 375 480 375 480 401 511.5 c 128,-1,38
 427 543 427 543 427 576 c 0,39,40
 427 621 427 621 397 643.5 c 128,-1,41
 367 666 367 666 324 666 c 0,42,31
 279 666 279 666 253.5 641 c 128,-1,32
185.5 274.5 m 128,-1,44
 155 237 155 237 155 193 c 0,45,46
 155 140 155 140 193.5 108 c 128,-1,47
 232 76 232 76 285 76 c 0,48,49
 325 76 325 76 366 93.5 c 128,-1,50
 407 111 407 111 439 141 c 1,51,-1
 267 341 l 1,52,43
 216 312 216 312 185.5 274.5 c 128,-1,44
EndSplineSet
EndChar

StartChar: quotesingle
Encoding: 39 39 10
Width: 249
GlyphClass: 2
Flags: W
LayerCount: 2
Fore
SplineSet
152 481 m 1,0,-1
 96 481 l 1,1,-1
 65 723 l 1,2,-1
 184 723 l 1,3,-1
 152 481 l 1,0,-1
EndSplineSet
EndChar

StartChar: parenleft
Encoding: 40 40 11
Width: 306
GlyphClass: 2
Flags: W
LayerCount: 2
Fore
SplineSet
195 505.5 m 128,-1,1
 164 391 164 391 164 277 c 0,2,3
 164 167 164 167 191 61 c 128,-1,4
 218 -45 218 -45 273 -161 c 1,5,-1
 203 -161 l 1,6,7
 135 -46 135 -46 101 56 c 128,-1,8
 67 158 67 158 67 278 c 0,9,10
 67 397 67 397 105.5 511 c 128,-1,11
 144 625 144 625 210 723 c 1,12,-1
 280 723 l 1,13,0
 226 620 226 620 195 505.5 c 128,-1,1
EndSplineSet
EndChar

StartChar: parenright
Encoding: 41 41 12
Width: 312
GlyphClass: 2
Flags: W
LayerCount: 2
Fore
SplineSet
103 505.5 m 128,-1,1
 134 391 134 391 134 277 c 0,2,3
 134 167 134 167 107 61 c 128,-1,4
 80 -45 80 -45 25 -161 c 1,5,-1
 95 -161 l 1,6,7
 163 -46 163 -46 197 56 c 128,-1,8
 231 158 231 158 231 278 c 0,9,10
 231 397 231 397 192.5 511 c 128,-1,11
 154 625 154 625 88 723 c 1,12,-1
 18 723 l 1,13,0
 72 620 72 620 103 505.5 c 128,-1,1
EndSplineSet
EndChar

StartChar: asterisk
Encoding: 42 42 13
Width: 408
GlyphClass: 2
Flags: W
LayerCount: 2
Fore
SplineSet
206 503 m 1,0,-1
 125 372 l 1,1,-1
 66 413 l 1,2,-1
 162 531 l 1,3,-1
 27 569 l 1,4,-1
 50 632 l 1,5,-1
 178 580 l 1,6,-1
 169 723 l 1,7,-1
 242 723 l 1,8,-1
 232 580 l 1,9,-1
 361 635 l 1,10,-1
 382 572 l 1,11,-1
 251 532 l 1,12,-1
 344 417 l 1,13,-1
 285 375 l 1,14,-1
 206 503 l 1,0,-1
EndSplineSet
EndChar

StartChar: plus
Encoding: 43 43 14
Width: 560
GlyphClass: 2
Flags: W
LayerCount: 2
Fore
SplineSet
498 325 m 1,0,-1
 318 325 l 1,1,-1
 318 144 l 1,2,-1
 240 144 l 1,3,-1
 240 324 l 1,4,-1
 59 324 l 1,5,-1
 59 402 l 1,6,-1
 240 402 l 1,7,-1
 240 583 l 1,8,-1
 318 583 l 1,9,-1
 318 403 l 1,10,-1
 498 403 l 1,11,-1
 498 325 l 1,0,-1
EndSplineSet
EndChar

StartChar: comma
Encoding: 44 44 15
Width: 243
GlyphClass: 2
Flags: W
LayerCount: 2
Fore
SplineSet
98 -2 m 1,0,-1
 53 0 l 1,1,-1
 53 117 l 1,2,-1
 175 117 l 1,3,-1
 175 15 l 1,4,-1
 87 -128 l 1,5,-1
 42 -128 l 1,6,-1
 98 -2 l 1,0,-1
EndSplineSet
Substitution2: "'tnum' Tabular Numbers in Latin lookup 23 subtable" comma.tf
Substitution2: "'aalt' Access All Alternates in Latin lookup 0 subtable" comma.tf
EndChar

StartChar: hyphen
Encoding: 45 45 16
Width: 383
GlyphClass: 2
Flags: W
LayerCount: 2
Fore
SplineSet
318 219 m 1,0,-1
 61 218 l 1,1,-1
 61 297 l 1,2,-1
 318 298 l 1,3,-1
 318 219 l 1,0,-1
EndSplineSet
EndChar

StartChar: period
Encoding: 46 46 17
Width: 233
GlyphClass: 2
Flags: W
LayerCount: 2
Fore
SplineSet
174 0 m 1,0,-1
 54 0 l 1,1,-1
 54 125 l 1,2,-1
 174 125 l 1,3,-1
 174 0 l 1,0,-1
EndSplineSet
Substitution2: "'tnum' Tabular Numbers in Latin lookup 23 subtable" period.tf
Substitution2: "'aalt' Access All Alternates in Latin lookup 0 subtable" period.tf
EndChar

StartChar: slash
Encoding: 47 47 18
Width: 353
GlyphClass: 2
Flags: W
LayerCount: 2
Fore
SplineSet
261 723 m 1,0,-1
 339 723 l 1,1,-1
 88 -35 l 1,2,-1
 11 -35 l 1,3,-1
 261 723 l 1,0,-1
EndSplineSet
Substitution2: "'frac' Diagonal Fractions in Latin lookup 16 subtable" fraction
Substitution2: "'aalt' Access All Alternates in Latin lookup 0 subtable" fraction
EndChar

StartChar: zero
Encoding: 48 48 19
Width: 643
GlyphClass: 2
Flags: W
LayerCount: 2
Fore
SplineSet
465 690 m 128,-1,1
 527 647 527 647 562.5 563 c 128,-1,2
 598 479 598 479 598 360 c 128,-1,3
 598 241 598 241 563 158 c 128,-1,4
 528 75 528 75 465.5 33 c 128,-1,5
 403 -9 403 -9 321 -9 c 128,-1,6
 239 -9 239 -9 177 32.5 c 128,-1,7
 115 74 115 74 80 157 c 128,-1,8
 45 240 45 240 45 359 c 0,9,10
 45 479 45 479 80.5 563 c 128,-1,11
 116 647 116 647 178.5 690 c 128,-1,12
 241 733 241 733 322 733 c 128,-1,0
 403 733 403 733 465 690 c 128,-1,1
485 360 m 0,13,14
 485 508 485 508 442 578 c 128,-1,15
 399 648 399 648 322 648 c 128,-1,16
 245 648 245 648 201.5 577.5 c 128,-1,17
 158 507 158 507 158 360 c 0,18,19
 158 214 158 214 201 145.5 c 128,-1,20
 244 77 244 77 322 77 c 0,21,22
 485 77 485 77 485 360 c 0,13,14
EndSplineSet
Substitution2: "'onum' Oldstyle Figures in Latin lookup 24 subtable" zero.osf
Substitution2: "'tnum' Tabular Numbers in Latin lookup 23 subtable" zero.tf
Substitution2: "'frac' Diagonal Fractions in Latin lookup 17 subtable" zero.numr
Substitution2: "'dnom' Denominators in Latin lookup 15 subtable" zero.dnom
Substitution2: "'numr' Numerators in Latin lookup 14 subtable" zero.numr
Substitution2: "'sups' Superscript in Latin lookup 13 subtable" uni2070
Substitution2: "'sinf' Scientific Inferiors in Latin lookup 12 subtable" zero.subs
Substitution2: "'subs' Subscript in Latin lookup 11 subtable" zero.subs
AlternateSubs2: "'aalt' Access All Alternates in Latin lookup 1 subtable" zero.subs uni2070 zero.numr zero.dnom zero.tf zero.osf
EndChar

StartChar: one
Encoding: 49 49 20
Width: 388
GlyphClass: 2
Flags: W
LayerCount: 2
Fore
SplineSet
170 605 m 1,0,-1
 33 558 l 1,1,-1
 33 634 l 1,2,-1
 212 723 l 1,3,-1
 275 723 l 1,4,-1
 275 0 l 1,5,-1
 170 0 l 1,6,-1
 170 605 l 1,0,-1
EndSplineSet
Substitution2: "'onum' Oldstyle Figures in Latin lookup 24 subtable" one.osf
Substitution2: "'tnum' Tabular Numbers in Latin lookup 23 subtable" one.tf
Substitution2: "'frac' Diagonal Fractions in Latin lookup 17 subtable" one.numr
Substitution2: "'dnom' Denominators in Latin lookup 15 subtable" one.dnom
Substitution2: "'numr' Numerators in Latin lookup 14 subtable" one.numr
Substitution2: "'sups' Superscript in Latin lookup 13 subtable" uni00B9
Substitution2: "'sinf' Scientific Inferiors in Latin lookup 12 subtable" one.subs
Substitution2: "'subs' Subscript in Latin lookup 11 subtable" one.subs
AlternateSubs2: "'aalt' Access All Alternates in Latin lookup 1 subtable" one.subs uni00B9 one.numr one.dnom one.tf one.osf
EndChar

StartChar: two
Encoding: 50 50 21
Width: 586
GlyphClass: 2
Flags: W
LayerCount: 2
Fore
SplineSet
41 85 m 1,0,-1
 273 306 l 2,1,2
 333 362 333 362 364.5 397 c 128,-1,3
 396 432 396 432 410 461.5 c 128,-1,4
 424 491 424 491 424 525 c 0,5,6
 424 583 424 583 383.5 613.5 c 128,-1,7
 343 644 343 644 290 644 c 0,8,9
 238 644 238 644 195 619 c 128,-1,10
 152 594 152 594 129 541 c 1,11,-1
 36 558 l 1,12,13
 61 641 61 641 126.5 687 c 128,-1,14
 192 733 192 733 294 733 c 0,15,16
 363 733 363 733 417 708.5 c 128,-1,17
 471 684 471 684 501 637.5 c 128,-1,18
 531 591 531 591 531 527 c 0,19,20
 531 485 531 485 516.5 449.5 c 128,-1,21
 502 414 502 414 471 375.5 c 128,-1,22
 440 337 440 337 383 280 c 2,23,-1
 189 89 l 1,24,-1
 539 89 l 1,25,-1
 539 0 l 1,26,-1
 41 0 l 1,27,-1
 41 85 l 1,0,-1
EndSplineSet
Substitution2: "'onum' Oldstyle Figures in Latin lookup 24 subtable" two.osf
Substitution2: "'tnum' Tabular Numbers in Latin lookup 23 subtable" two.tf
Substitution2: "'frac' Diagonal Fractions in Latin lookup 17 subtable" two.numr
Substitution2: "'dnom' Denominators in Latin lookup 15 subtable" two.dnom
Substitution2: "'numr' Numerators in Latin lookup 14 subtable" two.numr
Substitution2: "'sups' Superscript in Latin lookup 13 subtable" uni00B2
Substitution2: "'sinf' Scientific Inferiors in Latin lookup 12 subtable" two.subs
Substitution2: "'subs' Subscript in Latin lookup 11 subtable" two.subs
AlternateSubs2: "'aalt' Access All Alternates in Latin lookup 1 subtable" two.subs uni00B2 two.numr two.dnom two.tf two.osf
EndChar

StartChar: three
Encoding: 51 51 22
Width: 641
GlyphClass: 2
Flags: W
LayerCount: 2
Fore
SplineSet
149 694.5 m 128,-1,1
 222 733 222 733 319 733 c 0,2,3
 392 733 392 733 450 709 c 128,-1,4
 508 685 508 685 540.5 643 c 128,-1,5
 573 601 573 601 573 548 c 0,6,7
 573 434 573 434 435 386 c 1,8,9
 508 366 508 366 552 318.5 c 128,-1,10
 596 271 596 271 596 203 c 0,11,12
 596 141 596 141 558.5 92.5 c 128,-1,13
 521 44 521 44 456 17 c 128,-1,14
 391 -10 391 -10 311 -10 c 0,15,16
 204 -10 204 -10 136 26 c 128,-1,17
 68 62 68 62 39 149 c 1,18,-1
 132 166 l 1,19,20
 185 76 185 76 308 76 c 0,21,22
 387 76 387 76 434 111 c 128,-1,23
 481 146 481 146 481 201 c 0,24,25
 481 241 481 241 458 271 c 128,-1,26
 435 301 435 301 396.5 317 c 128,-1,27
 358 333 358 333 313 333 c 2,28,-1
 216 334 l 1,29,-1
 216 418 l 1,30,-1
 298 420 l 2,31,32
 344 420 344 420 382 436.5 c 128,-1,33
 420 453 420 453 441.5 480 c 128,-1,34
 463 507 463 507 463 541 c 0,35,36
 463 588 463 588 420.5 618.5 c 128,-1,37
 378 649 378 649 317 649 c 0,38,39
 257 649 257 649 214.5 628 c 128,-1,40
 172 607 172 607 149 559 c 1,41,-1
 57 577 l 1,42,0
 76 656 76 656 149 694.5 c 128,-1,1
EndSplineSet
Substitution2: "'onum' Oldstyle Figures in Latin lookup 24 subtable" three.osf
Substitution2: "'tnum' Tabular Numbers in Latin lookup 23 subtable" three.tf
Substitution2: "'frac' Diagonal Fractions in Latin lookup 17 subtable" three.numr
Substitution2: "'dnom' Denominators in Latin lookup 15 subtable" three.dnom
Substitution2: "'numr' Numerators in Latin lookup 14 subtable" three.numr
Substitution2: "'sups' Superscript in Latin lookup 13 subtable" uni00B3
Substitution2: "'sinf' Scientific Inferiors in Latin lookup 12 subtable" three.subs
Substitution2: "'subs' Subscript in Latin lookup 11 subtable" three.subs
AlternateSubs2: "'aalt' Access All Alternates in Latin lookup 1 subtable" three.subs uni00B3 three.numr three.dnom three.tf three.osf
EndChar

StartChar: four
Encoding: 52 52 23
Width: 622
GlyphClass: 2
Flags: W
LayerCount: 2
Fore
SplineSet
477 723 m 1,0,-1
 477 271 l 1,1,-1
 588 271 l 1,2,-1
 588 180 l 1,3,-1
 477 180 l 1,4,-1
 477 0 l 1,5,-1
 374 0 l 1,6,-1
 375 180 l 1,7,-1
 40 180 l 1,8,-1
 40 273 l 1,9,-1
 373 723 l 1,10,-1
 477 723 l 1,0,-1
373 271 m 1,11,-1
 373 576 l 1,12,-1
 147 271 l 1,13,-1
 373 271 l 1,11,-1
EndSplineSet
Substitution2: "'onum' Oldstyle Figures in Latin lookup 24 subtable" four.osf
Substitution2: "'tnum' Tabular Numbers in Latin lookup 23 subtable" four.tf
Substitution2: "'frac' Diagonal Fractions in Latin lookup 17 subtable" four.numr
Substitution2: "'dnom' Denominators in Latin lookup 15 subtable" four.dnom
Substitution2: "'numr' Numerators in Latin lookup 14 subtable" four.numr
Substitution2: "'sups' Superscript in Latin lookup 13 subtable" uni2074
Substitution2: "'sinf' Scientific Inferiors in Latin lookup 12 subtable" four.subs
Substitution2: "'subs' Subscript in Latin lookup 11 subtable" four.subs
AlternateSubs2: "'aalt' Access All Alternates in Latin lookup 1 subtable" four.subs uni2074 four.numr four.dnom four.tf four.osf
EndChar

StartChar: five
Encoding: 53 53 24
Width: 650
GlyphClass: 2
Flags: W
LayerCount: 2
Fore
SplineSet
559 723 m 1,0,-1
 553 636 l 1,1,-1
 202 636 l 1,2,-1
 184 413 l 1,3,4
 236 438 236 438 270.5 449 c 128,-1,5
 305 460 305 460 352 460 c 0,6,7
 421 460 421 460 477 435.5 c 128,-1,8
 533 411 533 411 565.5 360.5 c 128,-1,9
 598 310 598 310 598 237 c 0,10,11
 598 160 598 160 562.5 104.5 c 128,-1,12
 527 49 527 49 463.5 19.5 c 128,-1,13
 400 -10 400 -10 317 -10 c 128,-1,14
 234 -10 234 -10 162.5 22 c 128,-1,15
 91 54 91 54 45 111 c 1,16,-1
 121 168 l 1,17,18
 168 120 168 120 206.5 97.5 c 128,-1,19
 245 75 245 75 304 75 c 0,20,21
 389 75 389 75 437.5 119 c 128,-1,22
 486 163 486 163 486 233 c 0,23,24
 486 301 486 301 442.5 337.5 c 128,-1,25
 399 374 399 374 330 374 c 0,26,27
 289 374 289 374 255.5 361.5 c 128,-1,28
 222 349 222 349 175 323 c 0,29,30
 168 319 168 319 166 319 c 128,-1,31
 164 319 164 319 156 324 c 2,32,-1
 86 363 l 1,33,-1
 116 723 l 1,34,-1
 559 723 l 1,0,-1
EndSplineSet
Substitution2: "'onum' Oldstyle Figures in Latin lookup 24 subtable" five.osf
Substitution2: "'tnum' Tabular Numbers in Latin lookup 23 subtable" five.tf
Substitution2: "'frac' Diagonal Fractions in Latin lookup 17 subtable" five.numr
Substitution2: "'dnom' Denominators in Latin lookup 15 subtable" five.dnom
Substitution2: "'numr' Numerators in Latin lookup 14 subtable" five.numr
Substitution2: "'sups' Superscript in Latin lookup 13 subtable" uni2075
Substitution2: "'sinf' Scientific Inferiors in Latin lookup 12 subtable" five.subs
Substitution2: "'subs' Subscript in Latin lookup 11 subtable" five.subs
AlternateSubs2: "'aalt' Access All Alternates in Latin lookup 1 subtable" five.subs uni2075 five.numr five.dnom five.tf five.osf
EndChar

StartChar: six
Encoding: 54 54 25
Width: 621
GlyphClass: 2
Flags: W
LayerCount: 2
Fore
SplineSet
490 689.5 m 128,-1,1
 552 647 552 647 567 577 c 1,2,-1
 479 559 l 1,3,4
 455 603 455 603 424 625.5 c 128,-1,5
 393 648 393 648 340 648 c 0,6,7
 254 648 254 648 206 574.5 c 128,-1,8
 158 501 158 501 158 367 c 0,9,10
 158 339 158 339 159 325 c 1,11,12
 180 376 180 376 230.5 405 c 128,-1,13
 281 434 281 434 343 434 c 0,14,15
 416 434 416 434 468.5 405.5 c 128,-1,16
 521 377 521 377 549 328 c 128,-1,17
 577 279 577 279 577 218 c 0,18,19
 577 150 577 150 544 98.5 c 128,-1,20
 511 47 511 47 453 18.5 c 128,-1,21
 395 -10 395 -10 322 -10 c 0,22,23
 236 -10 236 -10 173 33 c 128,-1,24
 110 76 110 76 77 157 c 128,-1,25
 44 238 44 238 44 349 c 0,26,27
 44 468 44 468 79 554 c 128,-1,28
 114 640 114 640 180.5 686 c 128,-1,29
 247 732 247 732 338 732 c 0,30,0
 428 732 428 732 490 689.5 c 128,-1,1
249 338 m 128,-1,32
 213 323 213 323 191.5 296 c 128,-1,33
 170 269 170 269 170 235 c 1,34,35
 181 154 181 154 219.5 113 c 128,-1,36
 258 72 258 72 320 72 c 0,37,38
 383 72 383 72 425.5 111.5 c 128,-1,39
 468 151 468 151 468 213 c 0,40,41
 468 274 468 274 428.5 313.5 c 128,-1,42
 389 353 389 353 326 353 c 0,43,31
 285 353 285 353 249 338 c 128,-1,32
EndSplineSet
Substitution2: "'onum' Oldstyle Figures in Latin lookup 24 subtable" six.osf
Substitution2: "'tnum' Tabular Numbers in Latin lookup 23 subtable" six.tf
Substitution2: "'frac' Diagonal Fractions in Latin lookup 17 subtable" six.numr
Substitution2: "'dnom' Denominators in Latin lookup 15 subtable" six.dnom
Substitution2: "'numr' Numerators in Latin lookup 14 subtable" six.numr
Substitution2: "'sups' Superscript in Latin lookup 13 subtable" uni2076
Substitution2: "'sinf' Scientific Inferiors in Latin lookup 12 subtable" six.subs
Substitution2: "'subs' Subscript in Latin lookup 11 subtable" six.subs
AlternateSubs2: "'aalt' Access All Alternates in Latin lookup 1 subtable" six.subs uni2076 six.numr six.dnom six.tf six.osf
EndChar

StartChar: seven
Encoding: 55 55 26
Width: 576
GlyphClass: 2
Flags: W
LayerCount: 2
Fore
SplineSet
548 723 m 1,0,-1
 548 618 l 1,1,2
 486 534 486 534 425.5 418 c 128,-1,3
 365 302 365 302 324 188.5 c 128,-1,4
 283 75 283 75 276 0 c 1,5,-1
 163 0 l 1,6,7
 174 73 174 73 208 178.5 c 128,-1,8
 242 284 242 284 301.5 405 c 128,-1,9
 361 526 361 526 443 636 c 1,10,-1
 33 636 l 1,11,-1
 33 723 l 1,12,-1
 548 723 l 1,0,-1
EndSplineSet
Substitution2: "'onum' Oldstyle Figures in Latin lookup 24 subtable" seven.osf
Substitution2: "'tnum' Tabular Numbers in Latin lookup 23 subtable" seven.tf
Substitution2: "'frac' Diagonal Fractions in Latin lookup 17 subtable" seven.numr
Substitution2: "'dnom' Denominators in Latin lookup 15 subtable" seven.dnom
Substitution2: "'numr' Numerators in Latin lookup 14 subtable" seven.numr
Substitution2: "'sups' Superscript in Latin lookup 13 subtable" uni2077
Substitution2: "'sinf' Scientific Inferiors in Latin lookup 12 subtable" seven.subs
Substitution2: "'subs' Subscript in Latin lookup 11 subtable" seven.subs
AlternateSubs2: "'aalt' Access All Alternates in Latin lookup 1 subtable" seven.subs uni2077 seven.numr seven.dnom seven.tf seven.osf
EndChar

StartChar: eight
Encoding: 56 56 27
Width: 625
GlyphClass: 2
Flags: W
LayerCount: 2
Fore
SplineSet
438.5 707.5 m 128,-1,1
 494 682 494 682 525 636.5 c 128,-1,2
 556 591 556 591 556 533 c 0,3,4
 556 468 556 468 518 430 c 128,-1,5
 480 392 480 392 443 375 c 1,6,7
 448 373 448 373 488.5 356 c 128,-1,8
 529 339 529 339 558.5 296.5 c 128,-1,9
 588 254 588 254 588 196 c 0,10,11
 588 133 588 133 553 86.5 c 128,-1,12
 518 40 518 40 454.5 15 c 128,-1,13
 391 -10 391 -10 307 -10 c 0,14,15
 183 -10 183 -10 111 40 c 128,-1,16
 39 90 39 90 39 179 c 0,17,18
 39 233 39 233 73 279.5 c 128,-1,19
 107 326 107 326 173 356 c 1,20,21
 58 410 58 410 58 520 c 0,22,23
 58 579 58 579 90 627.5 c 128,-1,24
 122 676 122 676 179.5 704.5 c 128,-1,25
 237 733 237 733 311 733 c 0,26,0
 383 733 383 733 438.5 707.5 c 128,-1,1
209.5 617 m 128,-1,28
 168 583 168 583 168 531 c 0,29,30
 168 492 168 492 191 466 c 128,-1,31
 214 440 214 440 259 430 c 2,32,-1
 352 406 l 2,33,34
 370 402 370 402 395.5 420.5 c 128,-1,35
 421 439 421 439 439 470.5 c 128,-1,36
 457 502 457 502 457 533 c 0,37,38
 457 586 457 586 418 618.5 c 128,-1,39
 379 651 379 651 312 651 c 0,40,27
 251 651 251 651 209.5 617 c 128,-1,28
431.5 104 m 128,-1,42
 475 136 475 136 475 189 c 0,43,44
 475 230 475 230 452.5 256 c 128,-1,45
 430 282 430 282 379 295 c 2,46,-1
 263 325 l 2,47,48
 260 326 260 326 254 326 c 0,49,50
 233 326 233 326 205.5 308 c 128,-1,51
 178 290 178 290 159 260 c 128,-1,52
 140 230 140 230 140 194 c 0,53,54
 140 136 140 136 184.5 104 c 128,-1,55
 229 72 229 72 313 72 c 0,56,41
 388 72 388 72 431.5 104 c 128,-1,42
EndSplineSet
Substitution2: "'onum' Oldstyle Figures in Latin lookup 24 subtable" eight.osf
Substitution2: "'tnum' Tabular Numbers in Latin lookup 23 subtable" eight.tf
Substitution2: "'frac' Diagonal Fractions in Latin lookup 17 subtable" eight.numr
Substitution2: "'dnom' Denominators in Latin lookup 15 subtable" eight.dnom
Substitution2: "'numr' Numerators in Latin lookup 14 subtable" eight.numr
Substitution2: "'sups' Superscript in Latin lookup 13 subtable" uni2078
Substitution2: "'sinf' Scientific Inferiors in Latin lookup 12 subtable" eight.subs
Substitution2: "'subs' Subscript in Latin lookup 11 subtable" eight.subs
AlternateSubs2: "'aalt' Access All Alternates in Latin lookup 1 subtable" eight.subs uni2078 eight.numr eight.dnom eight.tf eight.osf
EndChar

StartChar: nine
Encoding: 57 57 28
Width: 621
GlyphClass: 2
Flags: W
LayerCount: 2
Fore
SplineSet
128.5 34 m 128,-1,1
 66 77 66 77 50 146 c 1,2,-1
 141 164 l 1,3,4
 162 121 162 121 193 98 c 128,-1,5
 224 75 224 75 277 75 c 0,6,7
 368 75 368 75 419 147 c 128,-1,8
 470 219 470 219 470 363 c 0,9,10
 470 388 470 388 469 401 c 1,11,12
 449 347 449 347 398.5 315.5 c 128,-1,13
 348 284 348 284 281 284 c 0,14,15
 209 284 209 284 154.5 313 c 128,-1,16
 100 342 100 342 71 392.5 c 128,-1,17
 42 443 42 443 42 506 c 0,18,19
 42 573 42 573 75 624.5 c 128,-1,20
 108 676 108 676 166 704 c 128,-1,21
 224 732 224 732 297 732 c 0,22,23
 384 732 384 732 446.5 689.5 c 128,-1,24
 509 647 509 647 542.5 566.5 c 128,-1,25
 576 486 576 486 576 374 c 0,26,27
 576 188 576 188 498 89.5 c 128,-1,28
 420 -9 420 -9 280 -9 c 0,29,0
 191 -9 191 -9 128.5 34 c 128,-1,1
370 385 m 128,-1,31
 406 401 406 401 428 428.5 c 128,-1,32
 450 456 450 456 450 488 c 1,33,34
 438 569 438 569 399 610 c 128,-1,35
 360 651 360 651 299 651 c 0,36,37
 236 651 236 651 195.5 611.5 c 128,-1,38
 155 572 155 572 155 510 c 0,39,40
 155 451 155 451 193.5 410 c 128,-1,41
 232 369 232 369 294 369 c 0,42,30
 334 369 334 369 370 385 c 128,-1,31
EndSplineSet
Substitution2: "'onum' Oldstyle Figures in Latin lookup 24 subtable" nine.osf
Substitution2: "'tnum' Tabular Numbers in Latin lookup 23 subtable" nine.tf
Substitution2: "'frac' Diagonal Fractions in Latin lookup 17 subtable" nine.numr
Substitution2: "'dnom' Denominators in Latin lookup 15 subtable" nine.dnom
Substitution2: "'numr' Numerators in Latin lookup 14 subtable" nine.numr
Substitution2: "'sups' Superscript in Latin lookup 13 subtable" uni2079
Substitution2: "'sinf' Scientific Inferiors in Latin lookup 12 subtable" nine.subs
Substitution2: "'subs' Subscript in Latin lookup 11 subtable" nine.subs
AlternateSubs2: "'aalt' Access All Alternates in Latin lookup 1 subtable" nine.subs uni2079 nine.numr nine.dnom nine.tf nine.osf
EndChar

StartChar: colon
Encoding: 58 58 29
Width: 233
GlyphClass: 2
Flags: W
LayerCount: 2
Fore
SplineSet
174 373 m 1,0,-1
 54 373 l 1,1,-1
 54 498 l 1,2,-1
 174 498 l 1,3,-1
 174 373 l 1,0,-1
174 3 m 1,4,-1
 54 3 l 1,5,-1
 54 127 l 1,6,-1
 174 127 l 1,7,-1
 174 3 l 1,4,-1
EndSplineSet
EndChar

StartChar: semicolon
Encoding: 59 59 30
Width: 252
GlyphClass: 2
Flags: W
LayerCount: 2
Fore
SplineSet
55 497 m 1,0,-1
 175 497 l 1,1,-1
 175 371 l 1,2,-1
 55 371 l 1,3,-1
 55 497 l 1,0,-1
103 0 m 1,4,-1
 58 0 l 1,5,-1
 58 124 l 1,6,-1
 178 124 l 1,7,-1
 178 14 l 1,8,-1
 88 -145 l 1,9,-1
 45 -145 l 1,10,-1
 103 0 l 1,4,-1
EndSplineSet
EndChar

StartChar: less
Encoding: 60 60 31
Width: 555
GlyphClass: 2
Flags: W
LayerCount: 2
Fore
SplineSet
483 133 m 1,0,-1
 54 300 l 1,1,-1
 54 391 l 1,2,-1
 484 560 l 1,3,-1
 484 466 l 1,4,-1
 173 345 l 1,5,-1
 483 225 l 1,6,-1
 483 133 l 1,0,-1
EndSplineSet
EndChar

StartChar: equal
Encoding: 61 61 32
Width: 560
GlyphClass: 2
Flags: W
LayerCount: 2
Fore
SplineSet
498 421 m 1,0,-1
 59 420 l 1,1,-1
 59 499 l 1,2,-1
 498 499 l 1,3,-1
 498 421 l 1,0,-1
498 198 m 1,4,-1
 59 197 l 1,5,-1
 59 275 l 1,6,-1
 498 276 l 1,7,-1
 498 198 l 1,4,-1
EndSplineSet
EndChar

StartChar: greater
Encoding: 62 62 33
Width: 555
GlyphClass: 2
Flags: W
LayerCount: 2
Fore
SplineSet
378 345 m 1,0,-1
 68 466 l 1,1,-1
 68 560 l 1,2,-1
 497 391 l 1,3,-1
 497 300 l 1,4,-1
 68 133 l 1,5,-1
 68 225 l 1,6,-1
 378 345 l 1,0,-1
EndSplineSet
EndChar

StartChar: question
Encoding: 63 63 34
Width: 521
GlyphClass: 2
Flags: W
LayerCount: 2
Fore
SplineSet
116.5 694 m 128,-1,1
 180 733 180 733 262 733 c 0,2,3
 329 733 329 733 379.5 711 c 128,-1,4
 430 689 430 689 458 649.5 c 128,-1,5
 486 610 486 610 486 560 c 0,6,7
 486 504 486 504 461 464.5 c 128,-1,8
 436 425 436 425 386 375 c 0,9,10
 353 342 353 342 334 318 c 128,-1,11
 315 294 315 294 301.5 262.5 c 128,-1,12
 288 231 288 231 288 193 c 1,13,-1
 202 193 l 1,14,15
 202 241 202 241 216.5 280 c 128,-1,16
 231 319 231 319 251.5 346.5 c 128,-1,17
 272 374 272 374 305 412 c 0,18,19
 345 457 345 457 363.5 487 c 128,-1,20
 382 517 382 517 382 556 c 0,21,22
 382 602 382 602 348.5 629.5 c 128,-1,23
 315 657 315 657 261 657 c 0,24,25
 213 657 213 657 170 629 c 128,-1,26
 127 601 127 601 111 559 c 1,27,-1
 21 585 l 1,28,0
 53 655 53 655 116.5 694 c 128,-1,1
305 0 m 1,29,-1
 186 0 l 1,30,-1
 186 124 l 1,31,-1
 305 124 l 1,32,-1
 305 0 l 1,29,-1
EndSplineSet
EndChar

StartChar: at
Encoding: 64 64 35
Width: 823
GlyphClass: 2
Flags: W
LayerCount: 2
Fore
SplineSet
554 -90 m 128,-1,1
 494 -110 494 -110 425 -110 c 0,2,3
 309 -110 309 -110 223.5 -61.5 c 128,-1,4
 138 -13 138 -13 92.5 70 c 128,-1,5
 47 153 47 153 47 254 c 0,6,7
 47 360 47 360 96.5 449 c 128,-1,8
 146 538 146 538 235.5 591 c 128,-1,9
 325 644 325 644 441 644 c 0,10,11
 531 644 531 644 610 610 c 128,-1,12
 689 576 689 576 738.5 505.5 c 128,-1,13
 788 435 788 435 788 331 c 0,14,15
 788 258 788 258 763.5 200.5 c 128,-1,16
 739 143 739 143 695.5 111 c 128,-1,17
 652 79 652 79 598 79 c 0,18,19
 526 79 526 79 508 129 c 0,20,21
 507 136 507 136 504 136 c 0,22,23
 502 136 502 136 497 130 c 0,24,25
 446 65 446 65 363 65 c 0,26,27
 324 65 324 65 292 86.5 c 128,-1,28
 260 108 260 108 241 147 c 128,-1,29
 222 186 222 186 222 237 c 0,30,31
 222 298 222 298 246.5 350 c 128,-1,32
 271 402 271 402 314.5 432.5 c 128,-1,33
 358 463 358 463 413 463 c 0,34,35
 485 463 485 463 524 405 c 0,36,37
 526 403 526 403 528 403.5 c 128,-1,38
 530 404 530 404 531 408 c 2,39,-1
 538 438 l 1,40,-1
 605 438 l 1,41,-1
 568 217 l 2,42,43
 565 201 565 201 565 189 c 0,44,45
 565 145 565 145 604 145 c 0,46,47
 634 145 634 145 659.5 166.5 c 128,-1,48
 685 188 685 188 700 229 c 128,-1,49
 715 270 715 270 715 325 c 0,50,51
 715 414 715 414 676 471 c 128,-1,52
 637 528 637 528 575 554 c 128,-1,53
 513 580 513 580 441 580 c 0,54,55
 339 580 339 580 266.5 536.5 c 128,-1,56
 194 493 194 493 156.5 418.5 c 128,-1,57
 119 344 119 344 119 254 c 0,58,59
 119 166 119 166 156.5 97.5 c 128,-1,60
 194 29 194 29 266 -9.5 c 128,-1,61
 338 -48 338 -48 439 -48 c 0,62,63
 500 -48 500 -48 536.5 -33.5 c 128,-1,64
 573 -19 573 -19 622 14 c 1,65,-1
 659 -35 l 1,66,0
 614 -70 614 -70 554 -90 c 128,-1,1
323.5 164.5 m 128,-1,68
 344 135 344 135 380 135 c 0,69,70
 414 135 414 135 442 157 c 128,-1,71
 470 179 470 179 486.5 214.5 c 128,-1,72
 503 250 503 250 503 289 c 0,73,74
 503 338 503 338 478.5 366 c 128,-1,75
 454 394 454 394 419 394 c 0,76,77
 369 394 369 394 336 350.5 c 128,-1,78
 303 307 303 307 303 244 c 0,79,67
 303 194 303 194 323.5 164.5 c 128,-1,68
EndSplineSet
EndChar

StartChar: A
Encoding: 65 65 36
Width: 700
GlyphClass: 2
Flags: W
AnchorPoint: "Anchor-5" 0 0 basechar 0
AnchorPoint: "Anchor-4" 0 0 basechar 0
AnchorPoint: "Anchor-3" 356 723 basechar 0
AnchorPoint: "Anchor-2" 663 10 basechar 0
LayerCount: 2
Fore
SplineSet
294 723 m 1,0,-1
 407 723 l 1,1,-1
 668 0 l 1,2,-1
 565 0 l 1,3,-1
 496 192 l 1,4,-1
 207 192 l 1,5,-1
 136 0 l 1,6,-1
 33 0 l 1,7,-1
 294 723 l 1,0,-1
469 285 m 1,8,-1
 351 623 l 1,9,-1
 232 285 l 1,10,-1
 469 285 l 1,8,-1
EndSplineSet
Substitution2: "Single Substitution lookup 30 subtable" ordfeminine
Substitution2: "'aalt' Access All Alternates in Latin lookup 0 subtable" ordfeminine
EndChar

StartChar: B
Encoding: 66 66 37
Width: 671
GlyphClass: 2
Flags: W
LayerCount: 2
Fore
SplineSet
91 723 m 1,0,-1
 328 723 l 2,1,2
 461 723 461 723 529.5 674.5 c 128,-1,3
 598 626 598 626 598 534 c 0,4,5
 598 475 598 475 567.5 435 c 128,-1,6
 537 395 537 395 466 369 c 1,7,8
 616 335 616 335 616 195 c 0,9,10
 616 96 616 96 547 48 c 128,-1,11
 478 0 478 0 337 0 c 2,12,-1
 91 0 l 1,13,-1
 91 723 l 1,0,-1
347 408 m 2,14,15
 410 408 410 408 454.5 435 c 128,-1,16
 499 462 499 462 499 521 c 128,-1,17
 499 580 499 580 455 610 c 128,-1,18
 411 640 411 640 335 640 c 2,19,-1
 193 640 l 1,20,-1
 193 408 l 1,21,-1
 347 408 l 2,14,15
337 84 m 2,22,23
 512 84 512 84 512 201 c 0,24,25
 512 262 512 262 466.5 292.5 c 128,-1,26
 421 323 421 323 347 323 c 2,27,-1
 193 323 l 1,28,-1
 193 84 l 1,29,-1
 337 84 l 2,22,23
EndSplineSet
EndChar

StartChar: C
Encoding: 67 67 38
Width: 689
GlyphClass: 2
Flags: W
AnchorPoint: "Anchor-5" 0 0 basechar 0
AnchorPoint: "Anchor-4" 363 0 basechar 0
AnchorPoint: "Anchor-3" 363 723 basechar 0
AnchorPoint: "Anchor-2" 0 0 basechar 0
LayerCount: 2
Fore
SplineSet
496.5 703.5 m 128,-1,1
 558 674 558 674 594.5 622.5 c 128,-1,2
 631 571 631 571 638 508 c 1,3,-1
 530 504 l 1,4,5
 518 569 518 569 474 607 c 128,-1,6
 430 645 430 645 357 645 c 0,7,8
 262 645 262 645 212.5 575 c 128,-1,9
 163 505 163 505 163 363 c 128,-1,10
 163 221 163 221 213 149.5 c 128,-1,11
 263 78 263 78 361 78 c 0,12,13
 425 78 425 78 470 116.5 c 128,-1,14
 515 155 515 155 529 219 c 1,15,-1
 636 212 l 1,16,17
 628 149 628 149 594.5 99 c 128,-1,18
 561 49 561 49 502 19.5 c 128,-1,19
 443 -10 443 -10 363 -10 c 0,20,21
 266 -10 266 -10 195.5 35.5 c 128,-1,22
 125 81 125 81 87.5 165.5 c 128,-1,23
 50 250 50 250 50 364 c 128,-1,24
 50 478 50 478 86.5 561 c 128,-1,25
 123 644 123 644 192.5 688.5 c 128,-1,26
 262 733 262 733 358 733 c 0,27,0
 435 733 435 733 496.5 703.5 c 128,-1,1
EndSplineSet
EndChar

StartChar: D
Encoding: 68 68 39
Width: 693
GlyphClass: 2
Flags: W
AnchorPoint: "Anchor-5" 0 0 basechar 0
AnchorPoint: "Anchor-4" 0 0 basechar 0
AnchorPoint: "Anchor-3" 342 723 basechar 0
AnchorPoint: "Anchor-2" 0 0 basechar 0
LayerCount: 2
Fore
SplineSet
267 722 m 0,0,1
 462 719 462 719 552.5 629.5 c 128,-1,2
 643 540 643 540 643 366 c 0,3,4
 643 0 643 0 259 0 c 2,5,-1
 91 0 l 1,6,-1
 91 723 l 1,7,8
 206 723 206 723 267 722 c 0,0,1
195 87 m 1,9,-1
 259 87 l 2,10,11
 393 87 393 87 464.5 152.5 c 128,-1,12
 536 218 536 218 536 365 c 0,13,14
 536 511 536 511 467 574 c 128,-1,15
 398 637 398 637 263 637 c 2,16,-1
 195 637 l 1,17,-1
 195 87 l 1,9,-1
EndSplineSet
EndChar

StartChar: E
Encoding: 69 69 40
Width: 625
GlyphClass: 2
Flags: W
AnchorPoint: "Anchor-5" 0 0 basechar 0
AnchorPoint: "Anchor-4" 342 0 basechar 0
AnchorPoint: "Anchor-3" 331 723 basechar 0
AnchorPoint: "Anchor-2" 557 10 basechar 0
LayerCount: 2
Fore
SplineSet
91 723 m 1,0,-1
 554 723 l 1,1,-1
 553 634 l 1,2,-1
 193 634 l 1,3,-1
 193 409 l 1,4,-1
 516 409 l 1,5,-1
 516 321 l 1,6,-1
 193 321 l 1,7,-1
 193 91 l 1,8,-1
 563 90 l 1,9,-1
 563 0 l 1,10,-1
 91 0 l 1,11,-1
 91 723 l 1,0,-1
EndSplineSet
EndChar

StartChar: F
Encoding: 70 70 41
Width: 587
GlyphClass: 2
Flags: W
LayerCount: 2
Fore
SplineSet
549 723 m 1,0,-1
 548 635 l 1,1,-1
 195 635 l 1,2,-1
 195 406 l 1,3,-1
 511 406 l 1,4,-1
 511 319 l 1,5,-1
 195 319 l 1,6,-1
 195 0 l 1,7,-1
 91 0 l 1,8,-1
 91 723 l 1,9,-1
 549 723 l 1,0,-1
EndSplineSet
EndChar

StartChar: G
Encoding: 71 71 42
Width: 732
GlyphClass: 2
Flags: W
AnchorPoint: "Anchor-5" 0 0 basechar 0
AnchorPoint: "Anchor-4" 365 0 basechar 0
AnchorPoint: "Anchor-3" 362 723 basechar 0
AnchorPoint: "Anchor-2" 0 0 basechar 0
LayerCount: 2
Fore
SplineSet
195 35 m 128,-1,1
 125 80 125 80 87.5 163 c 128,-1,2
 50 246 50 246 50 359 c 0,3,4
 50 474 50 474 89 558.5 c 128,-1,5
 128 643 128 643 199.5 688 c 128,-1,6
 271 733 271 733 366 733 c 0,7,8
 439 733 439 733 501 702 c 128,-1,9
 563 671 563 671 600.5 619.5 c 128,-1,10
 638 568 638 568 641 510 c 1,11,-1
 532 505 l 1,12,13
 520 565 520 565 474.5 604 c 128,-1,14
 429 643 429 643 364 643 c 0,15,16
 269 643 269 643 215 572 c 128,-1,17
 161 501 161 501 161 365 c 0,18,19
 161 221 161 221 216.5 151.5 c 128,-1,20
 272 82 272 82 367 82 c 0,21,22
 421 82 421 82 459.5 106 c 128,-1,23
 498 130 498 130 519 166.5 c 128,-1,24
 540 203 540 203 543 240 c 2,25,-1
 546 301 l 1,26,-1
 375 301 l 1,27,-1
 375 375 l 1,28,-1
 653 374 l 1,29,-1
 653 0 l 1,30,-1
 577 0 l 1,31,-1
 577 107 l 1,32,33
 505 -10 505 -10 360 -10 c 0,34,0
 265 -10 265 -10 195 35 c 128,-1,1
EndSplineSet
EndChar

StartChar: H
Encoding: 72 72 43
Width: 712
GlyphClass: 2
Flags: W
AnchorPoint: "Anchor-5" 0 0 basechar 0
AnchorPoint: "Anchor-4" 354 0 basechar 0
AnchorPoint: "Anchor-3" 355 723 basechar 0
AnchorPoint: "Anchor-2" 0 0 basechar 0
LayerCount: 2
Fore
SplineSet
193 329 m 1,0,-1
 193 0 l 1,1,-1
 91 0 l 1,2,-1
 91 723 l 1,3,-1
 193 723 l 1,4,-1
 193 418 l 1,5,-1
 519 418 l 1,6,-1
 519 723 l 1,7,-1
 621 723 l 1,8,-1
 621 0 l 1,9,-1
 519 0 l 1,10,-1
 519 329 l 1,11,-1
 193 329 l 1,0,-1
EndSplineSet
EndChar

StartChar: I
Encoding: 73 73 44
Width: 283
GlyphClass: 2
Flags: W
AnchorPoint: "Anchor-5" 0 0 basechar 0
AnchorPoint: "Anchor-4" 147 0 basechar 0
AnchorPoint: "Anchor-3" 145 723 basechar 0
AnchorPoint: "Anchor-2" 179 7 basechar 0
LayerCount: 2
Fore
SplineSet
193 723 m 1,0,-1
 193 0 l 1,1,-1
 91 0 l 1,2,-1
 91 723 l 1,3,-1
 193 723 l 1,0,-1
EndSplineSet
EndChar

StartChar: J
Encoding: 74 74 45
Width: 391
GlyphClass: 2
Flags: W
AnchorPoint: "Anchor-5" 0 0 basechar 0
AnchorPoint: "Anchor-4" 0 0 basechar 0
AnchorPoint: "Anchor-3" 231 723 basechar 0
AnchorPoint: "Anchor-2" 0 0 basechar 0
LayerCount: 2
Fore
SplineSet
266.5 35.5 m 128,-1,1
 232 -10 232 -10 141 -10 c 0,2,3
 108 -10 108 -10 74.5 -3 c 128,-1,4
 41 4 41 4 23 11 c 1,5,-1
 29 108 l 1,6,7
 35 106 35 106 49.5 100 c 128,-1,8
 64 94 64 94 79.5 90.5 c 128,-1,9
 95 87 95 87 113 87 c 0,10,11
 161 87 161 87 179.5 113.5 c 128,-1,12
 198 140 198 140 198 205 c 2,13,-1
 198 723 l 1,14,-1
 301 723 l 1,15,-1
 301 176 l 2,16,0
 301 81 301 81 266.5 35.5 c 128,-1,1
EndSplineSet
EndChar

StartChar: K
Encoding: 75 75 46
Width: 684
GlyphClass: 2
Flags: W
AnchorPoint: "Anchor-5" 0 0 basechar 0
AnchorPoint: "Anchor-4" 341 0 basechar 0
AnchorPoint: "Anchor-3" 358 723 basechar 0
AnchorPoint: "Anchor-2" 0 0 basechar 0
LayerCount: 2
Fore
SplineSet
538 0 m 1,0,-1
 318 366 l 1,1,-1
 197 224 l 1,2,-1
 197 0 l 1,3,-1
 91 0 l 1,4,-1
 91 723 l 1,5,-1
 197 723 l 1,6,-1
 197 357 l 1,7,-1
 510 723 l 1,8,-1
 631 723 l 1,9,-1
 395 442 l 1,10,-1
 654 0 l 1,11,-1
 538 0 l 1,0,-1
EndSplineSet
EndChar

StartChar: L
Encoding: 76 76 47
Width: 561
GlyphClass: 2
Flags: W
AnchorPoint: "Anchor-5" 440 723 basechar 0
AnchorPoint: "Anchor-4" 306 0 basechar 0
AnchorPoint: "Anchor-3" 141 723 basechar 0
AnchorPoint: "Anchor-2" 0 0 basechar 0
LayerCount: 2
Fore
SplineSet
195 723 m 1,0,-1
 195 91 l 1,1,-1
 532 91 l 1,2,-1
 532 0 l 1,3,-1
 91 0 l 1,4,-1
 91 723 l 1,5,-1
 195 723 l 1,0,-1
EndSplineSet
EndChar

StartChar: M
Encoding: 77 77 48
Width: 887
GlyphClass: 2
Flags: W
LayerCount: 2
Fore
SplineSet
91 723 m 1,0,-1
 234 723 l 1,1,-1
 443 141 l 1,2,-1
 654 723 l 1,3,-1
 796 723 l 1,4,-1
 796 0 l 1,5,-1
 692 0 l 1,6,-1
 692 579 l 1,7,-1
 488 0 l 1,8,-1
 397 0 l 1,9,-1
 195 574 l 1,10,-1
 195 0 l 1,11,-1
 91 0 l 1,12,-1
 91 723 l 1,0,-1
EndSplineSet
EndChar

StartChar: N
Encoding: 78 78 49
Width: 755
GlyphClass: 2
Flags: W
AnchorPoint: "Anchor-5" 0 0 basechar 0
AnchorPoint: "Anchor-4" 363 0 basechar 0
AnchorPoint: "Anchor-3" 386 723 basechar 0
AnchorPoint: "Anchor-2" 0 0 basechar 0
LayerCount: 2
Fore
SplineSet
664 723 m 1,0,-1
 664 0 l 1,1,-1
 573 0 l 1,2,-1
 193 557 l 1,3,-1
 193 0 l 1,4,-1
 91 0 l 1,5,-1
 91 723 l 1,6,-1
 189 723 l 1,7,-1
 562 176 l 1,8,-1
 562 723 l 1,9,-1
 664 723 l 1,0,-1
EndSplineSet
EndChar

StartChar: O
Encoding: 79 79 50
Width: 733
GlyphClass: 2
Flags: W
AnchorPoint: "Anchor-5" 0 0 basechar 0
AnchorPoint: "Anchor-4" 369 0 basechar 0
AnchorPoint: "Anchor-3" 368 723 basechar 0
AnchorPoint: "Anchor-2" 446 9 basechar 0
LayerCount: 2
Fore
SplineSet
198 33.5 m 128,-1,1
 127 77 127 77 88.5 160 c 128,-1,2
 50 243 50 243 50 359 c 0,3,4
 50 476 50 476 89 560.5 c 128,-1,5
 128 645 128 645 199.5 689 c 128,-1,6
 271 733 271 733 368 733 c 0,7,8
 464 733 464 733 535 689 c 128,-1,9
 606 645 606 645 644.5 561 c 128,-1,10
 683 477 683 477 683 360 c 0,11,12
 683 244 683 244 645 161 c 128,-1,13
 607 78 607 78 536 34 c 128,-1,14
 465 -10 465 -10 367 -10 c 128,-1,0
 269 -10 269 -10 198 33.5 c 128,-1,1
571 359 m 0,15,16
 571 504 571 504 518.5 574.5 c 128,-1,17
 466 645 466 645 368 645 c 0,18,19
 269 645 269 645 216 574 c 128,-1,20
 163 503 163 503 163 359 c 0,21,22
 163 216 163 216 216.5 147 c 128,-1,23
 270 78 270 78 369 78 c 0,24,25
 571 78 571 78 571 359 c 0,15,16
EndSplineSet
Substitution2: "Single Substitution lookup 30 subtable" ordmasculine
Substitution2: "'aalt' Access All Alternates in Latin lookup 0 subtable" ordmasculine
EndChar

StartChar: P
Encoding: 80 80 51
Width: 640
GlyphClass: 2
Flags: W
LayerCount: 2
Fore
SplineSet
91 723 m 1,0,-1
 339 723 l 2,1,2
 461 723 461 723 535 668 c 128,-1,3
 609 613 609 613 609 505 c 0,4,5
 609 400 609 400 540 344.5 c 128,-1,6
 471 289 471 289 353 289 c 2,7,-1
 195 289 l 1,8,-1
 195 0 l 1,9,-1
 91 0 l 1,10,-1
 91 723 l 1,0,-1
350 374 m 2,11,12
 423 374 423 374 466.5 409 c 128,-1,13
 510 444 510 444 510 511 c 0,14,15
 510 577 510 577 466 608.5 c 128,-1,16
 422 640 422 640 346 640 c 2,17,-1
 194 640 l 1,18,-1
 194 374 l 1,19,-1
 350 374 l 2,11,12
EndSplineSet
EndChar

StartChar: Q
Encoding: 81 81 52
Width: 738
GlyphClass: 2
Flags: W
LayerCount: 2
Fore
SplineSet
83.5 561 m 128,-1,1
 122 645 122 645 193.5 689 c 128,-1,2
 265 733 265 733 362 733 c 128,-1,3
 459 733 459 733 530.5 689 c 128,-1,4
 602 645 602 645 640 561 c 128,-1,5
 678 477 678 477 678 360 c 0,6,7
 678 248 678 248 645 169.5 c 128,-1,8
 612 91 612 91 541 43 c 1,9,10
 558 5 558 5 593 -14.5 c 128,-1,11
 628 -34 628 -34 673 -36 c 1,12,-1
 673 -121 l 1,13,14
 604 -121 604 -121 547.5 -96 c 128,-1,15
 491 -71 491 -71 447 -1 c 1,16,17
 398 -10 398 -10 362 -10 c 0,18,19
 265 -10 265 -10 193.5 33 c 128,-1,20
 122 76 122 76 83.5 159.5 c 128,-1,21
 45 243 45 243 45 360 c 128,-1,0
 45 477 45 477 83.5 561 c 128,-1,1
362 78 m 0,22,23
 567 78 567 78 567 359 c 0,24,25
 567 502 567 502 514.5 573.5 c 128,-1,26
 462 645 462 645 362 645 c 128,-1,27
 262 645 262 645 210 573.5 c 128,-1,28
 158 502 158 502 158 358 c 0,29,30
 158 78 158 78 362 78 c 0,22,23
EndSplineSet
EndChar

StartChar: R
Encoding: 82 82 53
Width: 680
GlyphClass: 2
Flags: W
AnchorPoint: "Anchor-5" 0 0 basechar 0
AnchorPoint: "Anchor-4" 337 0 basechar 0
AnchorPoint: "Anchor-3" 329 723 basechar 0
AnchorPoint: "Anchor-2" 0 0 basechar 0
LayerCount: 2
Fore
SplineSet
508 0 m 1,0,-1
 379 305 l 1,1,-1
 193 305 l 1,2,-1
 193 0 l 1,3,-1
 91 0 l 1,4,-1
 91 723 l 1,5,-1
 375 723 l 2,6,7
 493 723 493 723 553 670 c 128,-1,8
 613 617 613 617 613 522 c 0,9,10
 613 379 613 379 475 323 c 1,11,-1
 616 0 l 1,12,-1
 508 0 l 1,0,-1
466 421.5 m 128,-1,14
 508 454 508 454 508 517 c 0,15,16
 508 578 508 578 470.5 609.5 c 128,-1,17
 433 641 433 641 366 641 c 2,18,-1
 193 641 l 1,19,-1
 193 389 l 1,20,-1
 346 389 l 2,21,13
 424 389 424 389 466 421.5 c 128,-1,14
EndSplineSet
EndChar

StartChar: S
Encoding: 83 83 54
Width: 674
GlyphClass: 2
Flags: W
AnchorPoint: "Anchor-5" 0 0 basechar 0
AnchorPoint: "Anchor-4" 334 0 basechar 0
AnchorPoint: "Anchor-3" 338 723 basechar 0
AnchorPoint: "Anchor-2" 0 0 basechar 0
LayerCount: 2
Fore
SplineSet
207.5 13 m 128,-1,1
 144 36 144 36 101.5 80.5 c 128,-1,2
 59 125 59 125 50 189 c 1,3,-1
 157 194 l 1,4,5
 170 137 170 137 221 105.5 c 128,-1,6
 272 74 272 74 342 74 c 0,7,8
 419 74 419 74 468.5 104.5 c 128,-1,9
 518 135 518 135 518 187 c 0,10,11
 518 233 518 233 485.5 261 c 128,-1,12
 453 289 453 289 390 302 c 2,13,-1
 249 334 l 2,14,15
 165 351 165 351 119 398 c 128,-1,16
 73 445 73 445 72 519 c 0,17,18
 72 581 72 581 106.5 629.5 c 128,-1,19
 141 678 141 678 202 705 c 128,-1,20
 263 732 263 732 339 732 c 0,21,22
 421 732 421 732 481 703.5 c 128,-1,23
 541 675 541 675 574.5 628 c 128,-1,24
 608 581 608 581 614 525 c 1,25,-1
 510 521 l 1,26,27
 500 586 500 586 454.5 616.5 c 128,-1,28
 409 647 409 647 340 647 c 0,29,30
 275 647 275 647 228.5 615.5 c 128,-1,31
 182 584 182 584 182 530 c 0,32,33
 182 491 182 491 209.5 465 c 128,-1,34
 237 439 237 439 304 423 c 2,35,-1
 442 392 l 2,36,37
 624 354 624 354 624 188 c 0,38,39
 624 133 624 133 590 87.5 c 128,-1,40
 556 42 556 42 492 16 c 128,-1,41
 428 -10 428 -10 343 -10 c 0,42,0
 271 -10 271 -10 207.5 13 c 128,-1,1
EndSplineSet
EndChar

StartChar: T
Encoding: 84 84 55
Width: 580
GlyphClass: 2
Flags: W
AnchorPoint: "Anchor-5" 0 0 basechar 0
AnchorPoint: "Anchor-4" 300 0 basechar 0
AnchorPoint: "Anchor-3" 300 723 basechar 0
AnchorPoint: "Anchor-2" 0 0 basechar 0
LayerCount: 2
Fore
SplineSet
14 723 m 1,0,-1
 566 723 l 1,1,-1
 566 630 l 1,2,-1
 347 630 l 1,3,-1
 347 0 l 1,4,-1
 244 0 l 1,5,-1
 244 630 l 1,6,-1
 14 630 l 1,7,-1
 14 723 l 1,0,-1
EndSplineSet
EndChar

StartChar: U
Encoding: 85 85 56
Width: 719
GlyphClass: 2
Flags: W
AnchorPoint: "Anchor-5" 0 0 basechar 0
AnchorPoint: "Anchor-4" 0 0 basechar 0
AnchorPoint: "Anchor-3" 354 723 basechar 0
AnchorPoint: "Anchor-2" 433 10 basechar 0
LayerCount: 2
Fore
SplineSet
563 57.5 m 128,-1,1
 498 -10 498 -10 359 -10 c 0,2,3
 219 -10 219 -10 155 59 c 128,-1,4
 91 128 91 128 91 263 c 2,5,-1
 91 723 l 1,6,-1
 196 723 l 1,7,-1
 196 250 l 2,8,9
 196 165 196 165 238 122 c 128,-1,10
 280 79 280 79 359 79 c 0,11,12
 439 79 439 79 482 121.5 c 128,-1,13
 525 164 525 164 525 250 c 2,14,-1
 525 723 l 1,15,-1
 628 723 l 1,16,-1
 628 254 l 2,17,0
 628 125 628 125 563 57.5 c 128,-1,1
EndSplineSet
EndChar

StartChar: V
Encoding: 86 86 57
Width: 650
GlyphClass: 2
Flags: W
LayerCount: 2
Fore
SplineSet
384 0 m 1,0,-1
 263 0 l 1,1,-1
 12 723 l 1,2,-1
 112 723 l 1,3,-1
 324 117 l 1,4,-1
 539 723 l 1,5,-1
 639 723 l 1,6,-1
 384 0 l 1,0,-1
EndSplineSet
EndChar

StartChar: W
Encoding: 87 87 58
Width: 956
GlyphClass: 2
Flags: W
AnchorPoint: "Anchor-5" 0 0 basechar 0
AnchorPoint: "Anchor-4" 0 0 basechar 0
AnchorPoint: "Anchor-3" 481 723 basechar 0
AnchorPoint: "Anchor-2" 0 0 basechar 0
LayerCount: 2
Fore
SplineSet
722 0 m 1,0,-1
 631 0 l 1,1,-1
 477 544 l 1,2,-1
 320 0 l 1,3,-1
 231 0 l 1,4,-1
 22 723 l 1,5,-1
 125 723 l 1,6,-1
 280 165 l 1,7,-1
 438 723 l 1,8,-1
 516 723 l 1,9,-1
 674 165 l 1,10,-1
 832 723 l 1,11,-1
 934 723 l 1,12,-1
 722 0 l 1,0,-1
EndSplineSet
EndChar

StartChar: X
Encoding: 88 88 59
Width: 662
GlyphClass: 2
Flags: W
LayerCount: 2
Fore
SplineSet
511 0 m 1,0,-1
 323 289 l 1,1,-1
 136 0 l 1,2,-1
 22 0 l 1,3,-1
 266 369 l 1,4,-1
 31 723 l 1,5,-1
 160 723 l 1,6,-1
 331 456 l 1,7,-1
 503 723 l 1,8,-1
 616 723 l 1,9,-1
 387 380 l 1,10,-1
 640 0 l 1,11,-1
 511 0 l 1,0,-1
EndSplineSet
EndChar

StartChar: Y
Encoding: 89 89 60
Width: 608
GlyphClass: 2
Flags: W
AnchorPoint: "Anchor-5" 0 0 basechar 0
AnchorPoint: "Anchor-4" 0 0 basechar 0
AnchorPoint: "Anchor-3" 312 723 basechar 0
AnchorPoint: "Anchor-2" 0 0 basechar 0
LayerCount: 2
Fore
SplineSet
356 307 m 1,0,-1
 356 0 l 1,1,-1
 254 0 l 1,2,-1
 254 308 l 1,3,-1
 6 723 l 1,4,-1
 118 723 l 1,5,-1
 305 398 l 1,6,-1
 490 723 l 1,7,-1
 602 723 l 1,8,-1
 356 307 l 1,0,-1
EndSplineSet
EndChar

StartChar: Z
Encoding: 90 90 61
Width: 633
GlyphClass: 2
Flags: W
AnchorPoint: "Anchor-5" 0 0 basechar 0
AnchorPoint: "Anchor-4" 326 0 basechar 0
AnchorPoint: "Anchor-3" 331 723 basechar 0
AnchorPoint: "Anchor-2" 0 0 basechar 0
LayerCount: 2
Fore
SplineSet
50 55 m 1,0,-1
 441 635 l 1,1,-1
 68 635 l 1,2,-1
 68 723 l 1,3,-1
 585 723 l 1,4,-1
 585 671 l 1,5,-1
 190 89 l 1,6,-1
 582 89 l 1,7,-1
 582 0 l 1,8,-1
 50 0 l 1,9,-1
 50 55 l 1,0,-1
EndSplineSet
EndChar

StartChar: bracketleft
Encoding: 91 91 62
Width: 305
GlyphClass: 2
Flags: W
LayerCount: 2
Fore
SplineSet
280 723 m 1,0,-1
 280 659 l 1,1,-1
 174 659 l 1,2,-1
 174 -97 l 1,3,-1
 280 -97 l 1,4,-1
 280 -161 l 1,5,-1
 86 -161 l 1,6,-1
 86 723 l 1,7,-1
 280 723 l 1,0,-1
EndSplineSet
EndChar

StartChar: backslash
Encoding: 92 92 63
Width: 353
GlyphClass: 2
Flags: W
LayerCount: 2
Fore
SplineSet
9 723 m 1,0,-1
 86 723 l 1,1,-1
 337 -35 l 1,2,-1
 259 -35 l 1,3,-1
 9 723 l 1,0,-1
EndSplineSet
EndChar

StartChar: bracketright
Encoding: 93 93 64
Width: 317
GlyphClass: 2
Flags: W
LayerCount: 2
Fore
SplineSet
20 723 m 1,0,-1
 20 659 l 1,1,-1
 126 659 l 1,2,-1
 126 -97 l 1,3,-1
 20 -97 l 1,4,-1
 20 -161 l 1,5,-1
 214 -161 l 1,6,-1
 214 723 l 1,7,-1
 20 723 l 1,0,-1
EndSplineSet
EndChar

StartChar: asciicircum
Encoding: 94 94 65
Width: 473
GlyphClass: 2
Flags: W
LayerCount: 2
Fore
SplineSet
233 413 m 1,0,-1
 119 128 l 1,1,-1
 42 128 l 1,2,-1
 192 491 l 2,3,4
 199 508 199 508 210.5 517 c 128,-1,5
 222 526 222 526 234 526 c 0,6,7
 260 526 260 526 275 491 c 2,8,-1
 425 127 l 1,9,-1
 347 127 l 1,10,-1
 233 413 l 1,0,-1
EndSplineSet
EndChar

StartChar: underscore
Encoding: 95 95 66
Width: 524
GlyphClass: 2
Flags: W
LayerCount: 2
Fore
SplineSet
460 -122 m 1,0,-1
 60 -122 l 1,1,-1
 60 -44 l 1,2,-1
 460 -43 l 1,3,-1
 460 -122 l 1,0,-1
EndSplineSet
EndChar

StartChar: grave
Encoding: 96 96 67
Width: 293
GlyphClass: 2
Flags: W
LayerCount: 2
Fore
SplineSet
280 635 m 1,0,-1
 263 585 l 1,1,-1
 9 658 l 1,2,-1
 34 733 l 1,3,-1
 280 635 l 1,0,-1
EndSplineSet
EndChar

StartChar: a
Encoding: 97 97 68
Width: 562
GlyphClass: 2
Flags: W
AnchorPoint: "Anchor-5" 0 0 basechar 0
AnchorPoint: "Anchor-4" 0 0 basechar 0
AnchorPoint: "Anchor-3" 281 517 basechar 0
AnchorPoint: "Anchor-2" 471 12 basechar 0
LayerCount: 2
Fore
SplineSet
93.5 30.5 m 128,-1,1
 46 71 46 71 46 141 c 0,2,3
 46 227 46 227 106 267 c 128,-1,4
 166 307 166 307 301 313 c 2,5,-1
 388 319 l 1,6,-1
 388 354 l 2,7,8
 388 400 388 400 359.5 426.5 c 128,-1,9
 331 453 331 453 281 453 c 0,10,11
 195 453 195 453 145 378 c 1,12,-1
 62 390 l 1,13,14
 82 455 82 455 141 491 c 128,-1,15
 200 527 200 527 283 527 c 0,16,17
 384 527 384 527 435 483 c 128,-1,18
 486 439 486 439 486 361 c 2,19,-1
 486 0 l 1,20,-1
 399 0 l 1,21,-1
 392 72 l 1,22,23
 326 -10 326 -10 217 -10 c 0,24,0
 141 -10 141 -10 93.5 30.5 c 128,-1,1
313.5 77.5 m 128,-1,26
 346 93 346 93 367 118 c 128,-1,27
 388 143 388 143 388 170 c 2,28,-1
 388 259 l 1,29,-1
 316 254 l 2,30,31
 227 248 227 248 185.5 226 c 128,-1,32
 144 204 144 204 144 151 c 0,33,34
 144 110 144 110 173 86 c 128,-1,35
 202 62 202 62 248 62 c 0,36,25
 281 62 281 62 313.5 77.5 c 128,-1,26
EndSplineSet
Substitution2: "Single Substitution lookup 30 subtable" ordfeminine
Substitution2: "'aalt' Access All Alternates in Latin lookup 0 subtable" ordfeminine
EndChar

StartChar: b
Encoding: 98 98 69
Width: 596
GlyphClass: 2
Flags: W
LayerCount: 2
Fore
SplineSet
224 17.5 m 128,-1,1
 180 45 180 45 163 76 c 1,2,-1
 153 0 l 1,3,-1
 76 0 l 1,4,-1
 76 743 l 1,5,-1
 179 743 l 1,6,-1
 179 445 l 1,7,8
 198 475 198 475 241.5 501 c 128,-1,9
 285 527 285 527 343 527 c 0,10,11
 444 527 444 527 497.5 454 c 128,-1,12
 551 381 551 381 551 261 c 0,13,14
 551 135 551 135 492.5 62.5 c 128,-1,15
 434 -10 434 -10 328 -10 c 0,16,0
 268 -10 268 -10 224 17.5 c 128,-1,1
407 115 m 128,-1,18
 446 163 446 163 446 262 c 0,19,20
 446 354 446 354 410.5 401.5 c 128,-1,21
 375 449 375 449 311 449 c 0,22,23
 266 449 266 449 231 422.5 c 128,-1,24
 196 396 196 396 179 348 c 1,25,-1
 179 210 l 2,26,27
 179 168 179 168 196.5 135.5 c 128,-1,28
 214 103 214 103 243 85 c 128,-1,29
 272 67 272 67 305 67 c 0,30,17
 368 67 368 67 407 115 c 128,-1,18
EndSplineSet
EndChar

StartChar: c
Encoding: 99 99 70
Width: 537
GlyphClass: 2
Flags: W
AnchorPoint: "Anchor-5" 0 0 basechar 0
AnchorPoint: "Anchor-4" 285 0 basechar 0
AnchorPoint: "Anchor-3" 284 517 basechar 0
AnchorPoint: "Anchor-2" 0 0 basechar 0
LayerCount: 2
Fore
SplineSet
413.5 484.5 m 128,-1,1
 464 442 464 442 487 371 c 1,2,-1
 403 358 l 1,3,4
 372 406 372 406 349 426 c 128,-1,5
 326 446 326 446 288 446 c 0,6,7
 221 446 221 446 181.5 395.5 c 128,-1,8
 142 345 142 345 142 258 c 0,9,10
 142 170 142 170 182 118 c 128,-1,11
 222 66 222 66 289 66 c 0,12,13
 331 66 331 66 358.5 90.5 c 128,-1,14
 386 115 386 115 409 160 c 1,15,-1
 491 147 l 1,16,17
 468 75 468 75 415 32.5 c 128,-1,18
 362 -10 362 -10 284 -10 c 0,19,20
 213 -10 213 -10 159 23.5 c 128,-1,21
 105 57 105 57 75 117.5 c 128,-1,22
 45 178 45 178 45 256 c 0,23,24
 45 335 45 335 75 396.5 c 128,-1,25
 105 458 105 458 159 492.5 c 128,-1,26
 213 527 213 527 284 527 c 0,27,0
 363 527 363 527 413.5 484.5 c 128,-1,1
EndSplineSet
EndChar

StartChar: d
Encoding: 100 100 71
Width: 589
GlyphClass: 2
Flags: W
AnchorPoint: "Anchor-5" 591 639 basechar 0
AnchorPoint: "Anchor-4" 289 0 basechar 0
AnchorPoint: "Anchor-3" 0 0 basechar 0
AnchorPoint: "Anchor-2" 0 0 basechar 0
LayerCount: 2
Fore
SplineSet
102.5 59 m 128,-1,1
 45 128 45 128 45 254 c 0,2,3
 45 379 45 379 101.5 453 c 128,-1,4
 158 527 158 527 259 527 c 0,5,6
 348 527 348 527 410 461 c 1,7,-1
 410 743 l 1,8,-1
 513 743 l 1,9,-1
 513 0 l 1,10,-1
 435 0 l 1,11,-1
 428 73 l 1,12,13
 406 42 406 42 364 16 c 128,-1,14
 322 -10 322 -10 260 -10 c 0,15,0
 160 -10 160 -10 102.5 59 c 128,-1,1
347.5 85 m 128,-1,17
 377 103 377 103 393.5 133 c 128,-1,18
 410 163 410 163 410 196 c 2,19,-1
 410 362 l 1,20,21
 369 449 369 449 286 449 c 0,22,23
 221 449 221 449 183.5 400.5 c 128,-1,24
 146 352 146 352 146 257 c 0,25,26
 146 161 146 161 183.5 114 c 128,-1,27
 221 67 221 67 282 67 c 0,28,16
 318 67 318 67 347.5 85 c 128,-1,17
EndSplineSet
EndChar

StartChar: e
Encoding: 101 101 72
Width: 558
GlyphClass: 2
Flags: W
AnchorPoint: "Anchor-5" 0 0 basechar 0
AnchorPoint: "Anchor-4" 280 0 basechar 0
AnchorPoint: "Anchor-3" 284 517 basechar 0
AnchorPoint: "Anchor-2" 392 21 basechar 0
LayerCount: 2
Fore
SplineSet
185.5 114.5 m 128,-1,1
 223 68 223 68 291 68 c 0,2,3
 386 68 386 68 414 144 c 1,4,-1
 506 134 l 1,5,6
 490 68 490 68 430.5 29 c 128,-1,7
 371 -10 371 -10 293 -10 c 0,8,9
 220 -10 220 -10 164 21.5 c 128,-1,10
 108 53 108 53 76.5 113 c 128,-1,11
 45 173 45 173 45 253 c 0,12,13
 45 334 45 334 73.5 396 c 128,-1,14
 102 458 102 458 156 492.5 c 128,-1,15
 210 527 210 527 284 527 c 0,16,17
 393 527 393 527 452.5 458 c 128,-1,18
 512 389 512 389 512 270 c 2,19,-1
 512 234 l 1,20,-1
 148 234 l 1,21,0
 148 161 148 161 185.5 114.5 c 128,-1,1
415 302 m 1,22,23
 415 368 415 368 381 409.5 c 128,-1,24
 347 451 347 451 283 451 c 0,25,26
 240 451 240 451 209.5 429.5 c 128,-1,27
 179 408 179 408 163.5 374 c 128,-1,28
 148 340 148 340 148 302 c 1,29,-1
 415 302 l 1,22,23
EndSplineSet
EndChar

StartChar: f
Encoding: 102 102 73
Width: 392
GlyphClass: 2
Flags: W
LayerCount: 2
Fore
SplineSet
358 443 m 1,0,-1
 236 443 l 1,1,-1
 236 0 l 1,2,-1
 133 0 l 1,3,-1
 133 443 l 1,4,-1
 27 443 l 1,5,-1
 27 517 l 1,6,-1
 133 517 l 1,7,-1
 133 596 l 2,8,9
 133 658 133 658 166 690.5 c 128,-1,10
 199 723 199 723 262 723 c 2,11,-1
 363 723 l 1,12,-1
 363 652 l 1,13,-1
 288 652 l 2,14,15
 258 652 258 652 246 636 c 128,-1,16
 234 620 234 620 234 585 c 2,17,-1
 234 517 l 1,18,-1
 358 517 l 1,19,-1
 358 443 l 1,0,-1
EndSplineSet
EndChar

StartChar: g
Encoding: 103 103 74
Width: 609
GlyphClass: 2
Flags: W
AnchorPoint: "Anchor-5" 0 0 basechar 0
AnchorPoint: "Anchor-4" 0 0 basechar 0
AnchorPoint: "Anchor-3" 299 517 basechar 0
AnchorPoint: "Anchor-2" 0 0 basechar 0
LayerCount: 2
Fore
SplineSet
101 -134.5 m 128,-1,1
 33 -98 33 -98 33 -37 c 0,2,3
 33 3 33 3 58.5 26 c 128,-1,4
 84 49 84 49 105.5 59.5 c 128,-1,5
 127 70 127 70 131 73 c 1,6,7
 128 75 128 75 112.5 83.5 c 128,-1,8
 97 92 97 92 86.5 106.5 c 128,-1,9
 76 121 76 121 76 140 c 0,10,11
 76 166 76 166 100.5 186.5 c 128,-1,12
 125 207 125 207 170 217 c 1,13,14
 72 265 72 265 72 362 c 0,15,16
 72 438 72 438 135.5 481.5 c 128,-1,17
 199 525 199 525 301 525 c 0,18,19
 350 525 350 525 384.5 514 c 128,-1,20
 419 503 419 503 450 481 c 1,21,22
 472 491 472 491 511 506 c 2,23,-1
 585 537 l 1,24,-1
 585 446 l 1,25,-1
 495 429 l 1,26,27
 501 415 501 415 506 395 c 128,-1,28
 511 375 511 375 511 362 c 0,29,30
 511 317 511 317 486.5 279.5 c 128,-1,31
 462 242 462 242 412.5 219.5 c 128,-1,32
 363 197 363 197 292 197 c 2,33,-1
 257 198 l 2,34,35
 212 197 212 197 192 188 c 128,-1,36
 172 179 172 179 172 166 c 0,37,38
 172 152 172 152 192.5 147 c 128,-1,39
 213 142 213 142 269 138 c 2,40,-1
 381 131 l 2,41,42
 468 126 468 126 510.5 88.5 c 128,-1,43
 553 51 553 51 553 -10 c 0,44,45
 553 -85 553 -85 485.5 -128 c 128,-1,46
 418 -171 418 -171 295 -171 c 0,47,0
 169 -171 169 -171 101 -134.5 c 128,-1,1
382.5 286.5 m 128,-1,49
 413 312 413 312 413 360 c 0,50,51
 413 409 413 409 382 436.5 c 128,-1,52
 351 464 351 464 295 464 c 128,-1,53
 239 464 239 464 207 436 c 128,-1,54
 175 408 175 408 175 360 c 0,55,56
 175 313 175 313 206.5 287 c 128,-1,57
 238 261 238 261 295 261 c 128,-1,48
 352 261 352 261 382.5 286.5 c 128,-1,49
420 -88 m 128,-1,59
 454 -68 454 -68 454 -26 c 0,60,61
 454 38 454 38 363 44 c 2,62,-1
 223 53 l 2,63,64
 203 54 203 54 182 44 c 128,-1,65
 161 34 161 34 147.5 15.5 c 128,-1,66
 134 -3 134 -3 134 -25 c 0,67,68
 134 -108 134 -108 313 -108 c 0,69,58
 386 -108 386 -108 420 -88 c 128,-1,59
EndSplineSet
EndChar

StartChar: h
Encoding: 104 104 75
Width: 593
GlyphClass: 2
Flags: W
AnchorPoint: "Anchor-5" 0 0 basechar 0
AnchorPoint: "Anchor-4" 303 0 basechar 0
AnchorPoint: "Anchor-3" 371 517 basechar 0
AnchorPoint: "Anchor-2" 0 0 basechar 0
LayerCount: 2
Fore
SplineSet
76 743 m 1,0,-1
 176 743 l 1,1,-1
 176 445 l 1,2,3
 213 475 213 475 235 490 c 128,-1,4
 257 505 257 505 284.5 514 c 128,-1,5
 312 523 312 523 349 523 c 0,6,7
 424 523 424 523 470 480 c 128,-1,8
 516 437 516 437 516 368 c 2,9,-1
 516 0 l 1,10,-1
 414 0 l 1,11,-1
 414 350 l 2,12,13
 414 393 414 393 389 417 c 128,-1,14
 364 441 364 441 318 441 c 0,15,16
 280 441 280 441 248 423 c 128,-1,17
 216 405 216 405 179 368 c 1,18,-1
 179 0 l 1,19,-1
 76 0 l 1,20,-1
 76 743 l 1,0,-1
EndSplineSet
EndChar

StartChar: i
Encoding: 105 105 76
Width: 260
GlyphClass: 2
Flags: W
LayerCount: 2
Fore
SplineSet
184 619 m 1,0,-1
 76 619 l 1,1,-1
 76 743 l 1,2,-1
 184 743 l 1,3,-1
 184 619 l 1,0,-1
182 0 m 1,4,-1
 79 0 l 1,5,-1
 79 517 l 1,6,-1
 182 517 l 1,7,-1
 182 0 l 1,4,-1
EndSplineSet
Substitution2: "Single Substitution lookup 28 subtable" dotlessi
Substitution2: "'locl' Localized Forms in Latin lookup 10 subtable" i.loclTRK
Substitution2: "'locl' Localized Forms in Latin lookup 9 subtable" i.loclTRK
Substitution2: "'locl' Localized Forms in Latin lookup 8 subtable" i.loclTRK
Substitution2: "'locl' Localized Forms in Latin lookup 7 subtable" i.loclTRK
Substitution2: "'locl' Localized Forms in Latin lookup 6 subtable" i.loclTRK
AlternateSubs2: "'aalt' Access All Alternates in Latin lookup 1 subtable" dotlessi i.loclTRK
EndChar

StartChar: j
Encoding: 106 106 77
Width: 278
GlyphClass: 2
Flags: W
LayerCount: 2
Fore
SplineSet
195 619 m 1,0,-1
 86 619 l 1,1,-1
 86 743 l 1,2,-1
 195 743 l 1,3,-1
 195 619 l 1,0,-1
157.5 -130.5 m 128,-1,5
 123 -166 123 -166 43 -166 c 0,6,7
 19 -166 19 -166 4.5 -163.5 c 128,-1,8
 -10 -161 -10 -161 -15 -158 c 128,-1,9
 -20 -155 -20 -155 -21 -154 c 2,10,-1
 -22 -86 l 1,11,-1
 27 -83 l 2,12,13
 61 -80 61 -80 75 -65 c 128,-1,14
 89 -50 89 -50 89 -15 c 2,15,-1
 89 517 l 1,16,-1
 192 517 l 1,17,-1
 192 -18 l 2,18,4
 192 -95 192 -95 157.5 -130.5 c 128,-1,5
EndSplineSet
Substitution2: "Single Substitution lookup 28 subtable" uni0237
Substitution2: "'aalt' Access All Alternates in Latin lookup 0 subtable" uni0237
EndChar

StartChar: k
Encoding: 107 107 78
Width: 568
GlyphClass: 2
Flags: W
AnchorPoint: "Anchor-5" 0 0 basechar 0
AnchorPoint: "Anchor-4" 284 0 basechar 0
AnchorPoint: "Anchor-3" 0 0 basechar 0
AnchorPoint: "Anchor-2" 0 0 basechar 0
LayerCount: 2
Fore
SplineSet
432 0 m 1,0,-1
 275 253 l 1,1,-1
 179 153 l 1,2,-1
 179 0 l 1,3,-1
 76 0 l 1,4,-1
 76 743 l 1,5,-1
 179 743 l 1,6,-1
 179 262 l 1,7,-1
 416 517 l 1,8,-1
 527 517 l 1,9,-1
 341 318 l 1,10,-1
 539 0 l 1,11,-1
 432 0 l 1,0,-1
EndSplineSet
EndChar

StartChar: l
Encoding: 108 108 79
Width: 298
GlyphClass: 2
Flags: W
AnchorPoint: "Anchor-5" 308 740 basechar 0
AnchorPoint: "Anchor-4" 119 0 basechar 0
AnchorPoint: "Anchor-3" 125 763 basechar 0
AnchorPoint: "Anchor-2" 0 0 basechar 0
LayerCount: 2
Fore
SplineSet
104.5 34 m 128,-1,1
 76 72 76 72 76 138 c 2,2,-1
 76 743 l 1,3,-1
 177 743 l 1,4,-1
 177 149 l 2,5,6
 177 76 177 76 235 71 c 2,7,-1
 262 70 l 1,8,-1
 262 5 l 1,9,10
 233 -4 233 -4 213 -4 c 0,11,0
 133 -4 133 -4 104.5 34 c 128,-1,1
EndSplineSet
Substitution2: "'ss01' Style Set 1 in Latin lookup 27 subtable" l.ss01
Substitution2: "'salt' Stylistic Alternatives in Latin lookup 26 subtable" l.ss01
Substitution2: "'aalt' Access All Alternates in Latin lookup 0 subtable" l.ss01
EndChar

StartChar: m
Encoding: 109 109 80
Width: 907
GlyphClass: 2
Flags: W
LayerCount: 2
Fore
SplineSet
76 517 m 1,0,-1
 176 517 l 1,1,-1
 176 446 l 1,2,3
 200 479 200 479 241 503 c 128,-1,4
 282 527 282 527 337 527 c 0,5,6
 390 527 390 527 432.5 507 c 128,-1,7
 475 487 475 487 495 447 c 1,8,9
 520 484 520 484 562 505.5 c 128,-1,10
 604 527 604 527 656 527 c 0,11,12
 727 527 727 527 779 485 c 128,-1,13
 831 443 831 443 831 347 c 2,14,-1
 831 0 l 1,15,-1
 729 0 l 1,16,-1
 729 337 l 2,17,18
 729 448 729 448 621 448 c 0,19,20
 569 448 569 448 536.5 422 c 128,-1,21
 504 396 504 396 504 340 c 2,22,-1
 504 0 l 1,23,-1
 402 0 l 1,24,-1
 402 362 l 2,25,26
 402 403 402 403 371 425.5 c 128,-1,27
 340 448 340 448 294 448 c 0,28,29
 250 448 250 448 214.5 423.5 c 128,-1,30
 179 399 179 399 179 352 c 2,31,-1
 179 0 l 1,32,-1
 76 0 l 1,33,-1
 76 517 l 1,0,-1
EndSplineSet
EndChar

StartChar: n
Encoding: 110 110 81
Width: 593
GlyphClass: 2
Flags: W
AnchorPoint: "Anchor-5" 0 0 basechar 0
AnchorPoint: "Anchor-4" 297 0 basechar 0
AnchorPoint: "Anchor-3" 303 517 basechar 0
AnchorPoint: "Anchor-2" 0 0 basechar 0
LayerCount: 2
Fore
SplineSet
76 517 m 1,0,-1
 176 517 l 1,1,-1
 176 446 l 1,2,3
 229 524 229 524 336 524 c 0,4,5
 386 524 386 524 427 502.5 c 128,-1,6
 468 481 468 481 492.5 439.5 c 128,-1,7
 517 398 517 398 517 341 c 2,8,-1
 517 0 l 1,9,-1
 414 0 l 1,10,-1
 414 330 l 2,11,12
 414 382 414 382 384.5 411.5 c 128,-1,13
 355 441 355 441 306 441 c 0,14,15
 252 441 252 441 215.5 416 c 128,-1,16
 179 391 179 391 179 345 c 2,17,-1
 179 0 l 1,18,-1
 76 0 l 1,19,-1
 76 517 l 1,0,-1
EndSplineSet
EndChar

StartChar: o
Encoding: 111 111 82
Width: 568
GlyphClass: 2
Flags: W
AnchorPoint: "Anchor-5" 0 0 basechar 0
AnchorPoint: "Anchor-4" 283 0 basechar 0
AnchorPoint: "Anchor-3" 286 517 basechar 0
AnchorPoint: "Anchor-2" 352 10 basechar 0
LayerCount: 2
Fore
SplineSet
156 23.5 m 128,-1,1
 102 57 102 57 73.5 117 c 128,-1,2
 45 177 45 177 45 255 c 0,3,4
 45 335 45 335 74.5 396.5 c 128,-1,5
 104 458 104 458 158.5 492.5 c 128,-1,6
 213 527 213 527 285 527 c 0,7,8
 359 527 359 527 412.5 492.5 c 128,-1,9
 466 458 466 458 494.5 396.5 c 128,-1,10
 523 335 523 335 523 256 c 0,11,12
 523 178 523 178 494.5 117.5 c 128,-1,13
 466 57 466 57 412 23.5 c 128,-1,14
 358 -10 358 -10 284 -10 c 128,-1,0
 210 -10 210 -10 156 23.5 c 128,-1,1
388 122 m 128,-1,16
 422 175 422 175 422 259 c 128,-1,17
 422 343 422 343 388 395.5 c 128,-1,18
 354 448 354 448 285 448 c 128,-1,19
 216 448 216 448 181.5 395.5 c 128,-1,20
 147 343 147 343 147 259 c 128,-1,21
 147 175 147 175 181.5 122 c 128,-1,22
 216 69 216 69 286 69 c 0,23,15
 354 69 354 69 388 122 c 128,-1,16
EndSplineSet
Substitution2: "Single Substitution lookup 30 subtable" ordmasculine
Substitution2: "'aalt' Access All Alternates in Latin lookup 0 subtable" ordmasculine
EndChar

StartChar: p
Encoding: 112 112 83
Width: 595
GlyphClass: 2
Flags: W
LayerCount: 2
Fore
SplineSet
76 517 m 1,0,-1
 178 517 l 1,1,-1
 178 447 l 1,2,3
 239 527 239 527 336 527 c 0,4,5
 397 527 397 527 445.5 498 c 128,-1,6
 494 469 494 469 522 410 c 128,-1,7
 550 351 550 351 550 265 c 0,8,9
 550 178 550 178 520.5 116 c 128,-1,10
 491 54 491 54 439 22 c 128,-1,11
 387 -10 387 -10 321 -10 c 0,12,13
 233 -10 233 -10 179 53 c 1,14,-1
 179 -161 l 1,15,-1
 76 -161 l 1,16,-1
 76 517 l 1,0,-1
411 119 m 128,-1,18
 453 171 453 171 453 262 c 0,19,20
 453 323 453 323 433 365 c 128,-1,21
 413 407 413 407 380 428 c 128,-1,22
 347 449 347 449 308 449 c 0,23,24
 273 449 273 449 243 431 c 128,-1,25
 213 413 213 413 196 386 c 128,-1,26
 179 359 179 359 179 332 c 2,27,-1
 179 150 l 1,28,29
 200 112 200 112 232.5 89.5 c 128,-1,30
 265 67 265 67 304 67 c 0,31,17
 369 67 369 67 411 119 c 128,-1,18
EndSplineSet
EndChar

StartChar: q
Encoding: 113 113 84
Width: 596
GlyphClass: 2
Flags: W
LayerCount: 2
Fore
SplineSet
417 -161 m 1,0,-1
 417 49 l 1,1,2
 380 18 380 18 344.5 4 c 128,-1,3
 309 -10 309 -10 268 -10 c 0,4,5
 202 -10 202 -10 152 22 c 128,-1,6
 102 54 102 54 73.5 116 c 128,-1,7
 45 178 45 178 45 265 c 0,8,9
 45 351 45 351 73.5 409.5 c 128,-1,10
 102 468 102 468 150 497.5 c 128,-1,11
 198 527 198 527 259 527 c 0,12,13
 314 527 314 527 350 506 c 128,-1,14
 386 485 386 485 418 455 c 1,15,-1
 418 517 l 1,16,-1
 520 517 l 1,17,-1
 520 -161 l 1,18,-1
 417 -161 l 1,0,-1
417 167 m 1,19,-1
 417 318 l 2,20,21
 417 374 417 374 382 413.5 c 128,-1,22
 347 453 347 453 291 453 c 0,23,24
 230 453 230 453 190 405 c 128,-1,25
 150 357 150 357 150 264 c 128,-1,26
 150 171 150 171 191 117 c 128,-1,27
 232 63 232 63 296 63 c 0,28,29
 372 63 372 63 417 167 c 1,19,-1
EndSplineSet
EndChar

StartChar: r
Encoding: 114 114 85
Width: 394
GlyphClass: 2
Flags: W
AnchorPoint: "Anchor-5" 0 0 basechar 0
AnchorPoint: "Anchor-4" 132 0 basechar 0
AnchorPoint: "Anchor-3" 216 517 basechar 0
AnchorPoint: "Anchor-2" 0 0 basechar 0
LayerCount: 2
Fore
SplineSet
76 517 m 1,0,-1
 174 517 l 1,1,-1
 174 404 l 1,2,3
 199 457 199 457 251 492 c 128,-1,4
 303 527 303 527 362 527 c 1,5,-1
 362 429 l 1,6,7
 309 432 309 432 267 414.5 c 128,-1,8
 225 397 225 397 202 366.5 c 128,-1,9
 179 336 179 336 179 304 c 2,10,-1
 179 0 l 1,11,-1
 76 0 l 1,12,-1
 76 517 l 1,0,-1
EndSplineSet
EndChar

StartChar: s
Encoding: 115 115 86
Width: 509
GlyphClass: 2
Flags: W
AnchorPoint: "Anchor-5" 0 0 basechar 0
AnchorPoint: "Anchor-4" 255 0 basechar 0
AnchorPoint: "Anchor-3" 251 517 basechar 0
AnchorPoint: "Anchor-2" 0 0 basechar 0
LayerCount: 2
Fore
SplineSet
112.5 29 m 128,-1,1
 54 68 54 68 41 140 c 1,2,-1
 128 149 l 1,3,4
 154 64 154 64 256 64 c 0,5,6
 308 64 308 64 343 84.5 c 128,-1,7
 378 105 378 105 378 140 c 0,8,9
 378 195 378 195 301 213 c 2,10,-1
 199 234 l 2,11,12
 128 250 128 250 93.5 283.5 c 128,-1,13
 59 317 59 317 59 371 c 0,14,15
 59 443 59 443 113 485 c 128,-1,16
 167 527 167 527 260 527 c 0,17,18
 354 527 354 527 406.5 484.5 c 128,-1,19
 459 442 459 442 461 375 c 1,20,-1
 374 370 l 1,21,22
 358 454 358 454 257 454 c 0,23,24
 212 454 212 454 182 436.5 c 128,-1,25
 152 419 152 419 152 378 c 0,26,27
 152 355 152 355 171 339 c 128,-1,28
 190 323 190 323 238 312 c 2,29,-1
 338 288 l 2,30,31
 408 271 408 271 438 231.5 c 128,-1,32
 468 192 468 192 468 145 c 0,33,34
 468 99 468 99 441 63.5 c 128,-1,35
 414 28 414 28 365.5 9 c 128,-1,36
 317 -10 317 -10 255 -10 c 0,37,0
 171 -10 171 -10 112.5 29 c 128,-1,1
EndSplineSet
EndChar

StartChar: t
Encoding: 116 116 87
Width: 398
GlyphClass: 2
Flags: W
AnchorPoint: "Anchor-5" 388 760 basechar 0
AnchorPoint: "Anchor-4" 260 0 basechar 0
AnchorPoint: "Anchor-3" 0 0 basechar 0
AnchorPoint: "Anchor-2" 0 0 basechar 0
LayerCount: 2
Fore
SplineSet
227 443 m 1,0,-1
 228 133 l 2,1,2
 228 96 228 96 239.5 83 c 128,-1,3
 251 70 251 70 276 70 c 2,4,-1
 348 70 l 1,5,-1
 348 6 l 1,6,7
 325 -3 325 -3 269 -3 c 0,8,9
 188 -3 188 -3 156.5 29 c 128,-1,10
 125 61 125 61 125 127 c 2,11,-1
 125 443 l 1,12,-1
 41 443 l 1,13,-1
 41 517 l 1,14,-1
 128 517 l 1,15,-1
 140 686 l 1,16,-1
 227 686 l 1,17,-1
 227 517 l 1,18,-1
 344 517 l 1,19,-1
 344 443 l 1,20,-1
 227 443 l 1,0,-1
EndSplineSet
EndChar

StartChar: u
Encoding: 117 117 88
Width: 593
GlyphClass: 2
Flags: W
AnchorPoint: "Anchor-5" 0 0 basechar 0
AnchorPoint: "Anchor-4" 296 0 basechar 0
AnchorPoint: "Anchor-3" 289 517 basechar 0
AnchorPoint: "Anchor-2" 499 11 basechar 0
LayerCount: 2
Fore
SplineSet
180 9.5 m 128,-1,1
 135 28 135 28 105.5 67 c 128,-1,2
 76 106 76 106 76 165 c 2,3,-1
 76 518 l 1,4,-1
 179 518 l 1,5,-1
 179 176 l 2,6,7
 179 122 179 122 213.5 95.5 c 128,-1,8
 248 69 248 69 294 69 c 0,9,10
 344 69 344 69 378.5 98.5 c 128,-1,11
 413 128 413 128 414 181 c 2,12,-1
 414 518 l 1,13,-1
 517 518 l 1,14,-1
 515 1 l 1,15,-1
 435 1 l 1,16,-1
 430 79 l 1,17,18
 412 43 412 43 366 17 c 128,-1,19
 320 -9 320 -9 272 -9 c 0,20,0
 225 -9 225 -9 180 9.5 c 128,-1,1
EndSplineSet
EndChar

StartChar: v
Encoding: 118 118 89
Width: 536
GlyphClass: 2
Flags: W
LayerCount: 2
Fore
SplineSet
306 0 m 1,0,-1
 230 0 l 1,1,-1
 20 517 l 1,2,-1
 116 517 l 1,3,-1
 269 131 l 1,4,-1
 421 517 l 1,5,-1
 516 517 l 1,6,-1
 306 0 l 1,0,-1
EndSplineSet
EndChar

StartChar: w
Encoding: 119 119 90
Width: 780
GlyphClass: 2
Flags: W
AnchorPoint: "Anchor-5" 0 0 basechar 0
AnchorPoint: "Anchor-4" 0 0 basechar 0
AnchorPoint: "Anchor-3" 394 517 basechar 0
AnchorPoint: "Anchor-2" 0 0 basechar 0
LayerCount: 2
Fore
SplineSet
594 0 m 1,0,-1
 506 0 l 1,1,-1
 388 369 l 1,2,-1
 275 0 l 1,3,-1
 188 0 l 1,4,-1
 23 517 l 1,5,-1
 117 517 l 1,6,-1
 235 134 l 1,7,-1
 352 517 l 1,8,-1
 428 517 l 1,9,-1
 548 134 l 1,10,-1
 662 517 l 1,11,-1
 757 517 l 1,12,-1
 594 0 l 1,0,-1
EndSplineSet
EndChar

StartChar: x
Encoding: 120 120 91
Width: 551
GlyphClass: 2
Flags: W
LayerCount: 2
Fore
SplineSet
421 0 m 1,0,-1
 275 196 l 1,1,-1
 130 0 l 1,2,-1
 20 0 l 1,3,-1
 219 269 l 1,4,-1
 36 517 l 1,5,-1
 146 517 l 1,6,-1
 276 342 l 1,7,-1
 405 517 l 1,8,-1
 515 517 l 1,9,-1
 332 269 l 1,10,-1
 531 0 l 1,11,-1
 421 0 l 1,0,-1
EndSplineSet
EndChar

StartChar: y
Encoding: 121 121 92
Width: 537
GlyphClass: 2
Flags: W
AnchorPoint: "Anchor-5" 0 0 basechar 0
AnchorPoint: "Anchor-4" 0 0 basechar 0
AnchorPoint: "Anchor-3" 280 517 basechar 0
AnchorPoint: "Anchor-2" 0 0 basechar 0
LayerCount: 2
Fore
SplineSet
83 -162 m 128,-1,1
 65 -159 65 -159 56.5 -155.5 c 128,-1,2
 48 -152 48 -152 46 -151 c 2,3,-1
 46 -85 l 1,4,-1
 99 -87 l 2,5,6
 151 -89 151 -89 173 -73 c 128,-1,7
 195 -57 195 -57 206 -31 c 2,8,-1
 222 14 l 1,9,-1
 20 517 l 1,10,-1
 123 517 l 1,11,-1
 270 129 l 1,12,-1
 417 517 l 1,13,-1
 517 517 l 1,14,-1
 301 -32 l 2,15,16
 270 -107 270 -107 229 -136 c 128,-1,17
 188 -165 188 -165 129 -165 c 0,18,0
 101 -165 101 -165 83 -162 c 128,-1,1
EndSplineSet
EndChar

StartChar: z
Encoding: 122 122 93
Width: 493
GlyphClass: 2
Flags: W
AnchorPoint: "Anchor-5" 0 0 basechar 0
AnchorPoint: "Anchor-4" 0 0 basechar 0
AnchorPoint: "Anchor-3" 261 517 basechar 0
AnchorPoint: "Anchor-2" 0 0 basechar 0
LayerCount: 2
Fore
SplineSet
38 60 m 1,0,-1
 329 448 l 1,1,-1
 59 448 l 1,2,-1
 59 517 l 1,3,-1
 454 517 l 1,4,-1
 454 457 l 1,5,-1
 162 69 l 1,6,-1
 458 69 l 1,7,-1
 458 0 l 1,8,-1
 38 0 l 1,9,-1
 38 60 l 1,0,-1
EndSplineSet
EndChar

StartChar: braceleft
Encoding: 123 123 94
Width: 333
GlyphClass: 2
Flags: W
LayerCount: 2
Fore
SplineSet
158 694.5 m 128,-1,1
 196 723 196 723 253 723 c 2,2,-1
 308 723 l 1,3,-1
 308 659 l 1,4,-1
 271 659 l 2,5,6
 234 659 234 659 221.5 646.5 c 128,-1,7
 209 634 209 634 209 608 c 2,8,-1
 209 398 l 2,9,10
 208 346 208 346 179 318.5 c 128,-1,11
 150 291 150 291 109 287 c 0,12,13
 103 286 103 286 102.5 283.5 c 128,-1,14
 102 281 102 281 109 280 c 0,15,16
 151 277 151 277 179.5 250.5 c 128,-1,17
 208 224 208 224 209 168 c 2,18,-1
 209 -44 l 2,19,20
 209 -73 209 -73 222.5 -85 c 128,-1,21
 236 -97 236 -97 271 -97 c 2,22,-1
 308 -97 l 1,23,-1
 308 -161 l 1,24,-1
 255 -161 l 2,25,26
 195 -161 195 -161 157.5 -132 c 128,-1,27
 120 -103 120 -103 120 -54 c 2,28,-1
 120 160 l 2,29,30
 120 198 120 198 90.5 226 c 128,-1,31
 61 254 61 254 7 254 c 1,32,-1
 7 313 l 1,33,34
 64 314 64 314 92 339.5 c 128,-1,35
 120 365 120 365 120 411 c 2,36,-1
 120 618 l 2,37,0
 120 666 120 666 158 694.5 c 128,-1,1
EndSplineSet
EndChar

StartChar: bar
Encoding: 124 124 95
Width: 260
GlyphClass: 2
Flags: W
LayerCount: 2
Fore
SplineSet
91 -161 m 1,0,-1
 91 826 l 1,1,-1
 169 826 l 1,2,-1
 169 -161 l 1,3,-1
 91 -161 l 1,0,-1
EndSplineSet
EndChar

StartChar: braceright
Encoding: 125 125 96
Width: 342
GlyphClass: 2
Flags: W
LayerCount: 2
Fore
SplineSet
170 694.5 m 128,-1,1
 132 723 132 723 75 723 c 2,2,-1
 20 723 l 1,3,-1
 20 659 l 1,4,-1
 57 659 l 2,5,6
 94 659 94 659 106.5 646.5 c 128,-1,7
 119 634 119 634 119 608 c 2,8,-1
 119 398 l 2,9,10
 120 346 120 346 149 318.5 c 128,-1,11
 178 291 178 291 219 287 c 0,12,13
 225 286 225 286 225.5 283.5 c 128,-1,14
 226 281 226 281 219 280 c 0,15,16
 177 277 177 277 148.5 250.5 c 128,-1,17
 120 224 120 224 119 168 c 2,18,-1
 119 -44 l 2,19,20
 119 -73 119 -73 105.5 -85 c 128,-1,21
 92 -97 92 -97 57 -97 c 2,22,-1
 20 -97 l 1,23,-1
 20 -161 l 1,24,-1
 73 -161 l 2,25,26
 133 -161 133 -161 170.5 -132 c 128,-1,27
 208 -103 208 -103 208 -54 c 2,28,-1
 208 160 l 2,29,30
 208 198 208 198 237.5 226 c 128,-1,31
 267 254 267 254 321 254 c 1,32,-1
 321 313 l 1,33,34
 264 314 264 314 236 339.5 c 128,-1,35
 208 365 208 365 208 411 c 2,36,-1
 208 618 l 2,37,0
 208 666 208 666 170 694.5 c 128,-1,1
EndSplineSet
EndChar

StartChar: asciitilde
Encoding: 126 126 97
Width: 575
GlyphClass: 2
Flags: W
LayerCount: 2
Fore
SplineSet
460 322 m 128,-1,1
 426 303 426 303 383 303 c 0,2,3
 355 303 355 303 333.5 310 c 128,-1,4
 312 317 312 317 282 332 c 0,5,6
 256 345 256 345 237.5 351 c 128,-1,7
 219 357 219 357 197 357 c 0,8,9
 163 357 163 357 138 341.5 c 128,-1,10
 113 326 113 326 87 298 c 1,11,-1
 58 354 l 1,12,13
 93 389 93 389 124 407.5 c 128,-1,14
 155 426 155 426 197 426 c 0,15,16
 223 426 223 426 245.5 419 c 128,-1,17
 268 412 268 412 296 398 c 0,18,19
 325 384 325 384 343 378 c 128,-1,20
 361 372 361 372 382 372 c 0,21,22
 443 372 443 372 483 431 c 1,23,-1
 514 374 l 1,24,0
 494 341 494 341 460 322 c 128,-1,1
EndSplineSet
EndChar

StartChar: exclamdown
Encoding: 161 161 99
Width: 256
GlyphClass: 2
Flags: W
LayerCount: 2
Fore
SplineSet
67 393 m 1,0,-1
 67 517 l 1,1,-1
 186 517 l 1,2,-1
 186 393 l 1,3,-1
 67 393 l 1,0,-1
66 -161 m 1,4,-1
 93 325 l 1,5,-1
 160 325 l 1,6,-1
 188 -161 l 1,7,-1
 66 -161 l 1,4,-1
EndSplineSet
EndChar

StartChar: cent
Encoding: 162 162 100
Width: 544
GlyphClass: 2
Flags: W
AnchorPoint: "Anchor-1" 289 628 basechar 0
AnchorPoint: "Anchor-0" 290 111 basechar 0
LayerCount: 2
Fore
SplineSet
432.5 153.5 m 128,-1,1
 389 113 389 113 325 104 c 1,2,-1
 325 0 l 1,3,-1
 252 0 l 1,4,-1
 252 104 l 1,5,6
 160 117 160 117 105 188 c 128,-1,7
 50 259 50 259 50 367 c 0,8,9
 50 476 50 476 105 549 c 128,-1,10
 160 622 160 622 252 635 c 1,11,-1
 252 723 l 1,12,-1
 325 723 l 1,13,-1
 325 635 l 1,14,15
 389 626 389 626 430.5 585 c 128,-1,16
 472 544 472 544 492 482 c 1,17,-1
 408 469 l 1,18,19
 377 517 377 517 354 537 c 128,-1,20
 331 557 331 557 293 557 c 0,21,22
 226 557 226 557 186.5 506.5 c 128,-1,23
 147 456 147 456 147 369 c 0,24,25
 147 281 147 281 187 229 c 128,-1,26
 227 177 227 177 294 177 c 0,27,28
 336 177 336 177 363.5 201.5 c 128,-1,29
 391 226 391 226 414 271 c 1,30,-1
 496 258 l 1,31,0
 476 194 476 194 432.5 153.5 c 128,-1,1
EndSplineSet
EndChar

StartChar: sterling
Encoding: 163 163 101
Width: 618
GlyphClass: 2
Flags: W
LayerCount: 2
Fore
SplineSet
15 87 m 1,0,-1
 52 87 l 2,1,2
 92 87 92 87 116.5 119.5 c 128,-1,3
 141 152 141 152 141 218 c 0,4,5
 141 265 141 265 130 343 c 1,6,-1
 29 343 l 1,7,-1
 29 406 l 1,8,-1
 118 406 l 1,9,-1
 104 490 l 2,10,11
 99 518 99 518 99 539 c 0,12,13
 99 598 99 598 128 642 c 128,-1,14
 157 686 157 686 206 709.5 c 128,-1,15
 255 733 255 733 312 733 c 0,16,17
 384 733 384 733 441 699 c 128,-1,18
 498 665 498 665 522 610 c 1,19,-1
 432 579 l 1,20,21
 414 614 414 614 389.5 630.5 c 128,-1,22
 365 647 365 647 326 647 c 0,23,24
 277 647 277 647 246 619 c 128,-1,25
 215 591 215 591 215 541 c 0,26,27
 215 485 215 485 236 407 c 1,28,-1
 395 407 l 1,29,-1
 395 344 l 1,30,-1
 245 344 l 1,31,32
 251 299 251 299 251 267 c 0,33,34
 251 256 251 256 249 230 c 0,35,36
 244 139 244 139 191 88 c 1,37,-1
 358 88 l 2,38,39
 409 88 409 88 438 106 c 128,-1,40
 467 124 467 124 484 169 c 1,41,-1
 571 147 l 1,42,43
 525 0 525 0 365 0 c 2,44,-1
 15 0 l 1,45,-1
 15 87 l 1,0,-1
EndSplineSet
EndChar

StartChar: currency
Encoding: 164 164 102
Width: 544
GlyphClass: 2
Flags: W
LayerCount: 2
Fore
SplineSet
164 199 m 0,0,1
 156 204 156 204 150 198 c 2,2,-1
 95 142 l 1,3,-1
 48 192 l 1,4,-1
 109 252 l 1,5,6
 74 304 74 304 74 364 c 0,7,8
 74 419 74 419 104 468 c 0,9,10
 107 473 107 473 107 475 c 0,11,12
 107 476 107 476 103 482 c 2,13,-1
 49 537 l 1,14,-1
 97 585 l 1,15,-1
 158 523 l 1,16,17
 182 540 182 540 211 549.5 c 128,-1,18
 240 559 240 559 269 559 c 0,19,20
 328 559 328 559 375 527 c 0,21,22
 381 522 381 522 387 528 c 2,23,-1
 441 583 l 1,24,-1
 488 534 l 1,25,-1
 429 475 l 1,26,27
 464 423 464 423 464 364 c 0,28,29
 464 302 464 302 433 259 c 0,30,31
 429 254 429 254 433 248 c 2,32,-1
 489 195 l 1,33,-1
 441 146 l 1,34,-1
 382 205 l 1,35,36
 329 168 329 168 271 168 c 0,37,38
 212 168 212 168 164 199 c 0,0,1
356.5 278.5 m 128,-1,40
 391 314 391 314 391 364 c 0,41,42
 391 396 391 396 375.5 424 c 128,-1,43
 360 452 360 452 332.5 468.5 c 128,-1,44
 305 485 305 485 271 485 c 128,-1,45
 237 485 237 485 209 468.5 c 128,-1,46
 181 452 181 452 165 424 c 128,-1,47
 149 396 149 396 149 364 c 0,48,49
 149 314 149 314 184 278.5 c 128,-1,50
 219 243 219 243 271 243 c 0,51,39
 322 243 322 243 356.5 278.5 c 128,-1,40
EndSplineSet
EndChar

StartChar: yen
Encoding: 165 165 103
Width: 617
GlyphClass: 2
Flags: W
LayerCount: 2
Fore
SplineSet
383 340 m 1,0,-1
 522 340 l 1,1,-1
 522 278 l 1,2,-1
 370 278 l 1,3,-1
 370 192 l 1,4,-1
 522 192 l 1,5,-1
 522 130 l 1,6,-1
 370 130 l 1,7,-1
 370 0 l 1,8,-1
 253 0 l 1,9,-1
 253 129 l 1,10,-1
 101 129 l 1,11,-1
 101 191 l 1,12,-1
 253 191 l 1,13,-1
 253 278 l 1,14,-1
 101 278 l 1,15,-1
 101 340 l 1,16,-1
 230 340 l 1,17,-1
 1 723 l 1,18,-1
 134 723 l 1,19,-1
 320 400 l 1,20,-1
 506 723 l 1,21,-1
 616 723 l 1,22,-1
 383 340 l 1,0,-1
EndSplineSet
EndChar

StartChar: brokenbar
Encoding: 166 166 104
Width: 260
GlyphClass: 2
Flags: W
LayerCount: 2
Fore
SplineSet
91 424 m 1,0,-1
 91 826 l 1,1,-1
 169 826 l 1,2,-1
 169 424 l 1,3,-1
 91 424 l 1,0,-1
91 -161 m 1,4,-1
 91 241 l 1,5,-1
 169 241 l 1,6,-1
 169 -161 l 1,7,-1
 91 -161 l 1,4,-1
EndSplineSet
EndChar

StartChar: section
Encoding: 167 167 105
Width: 490
GlyphClass: 2
Flags: W
LayerCount: 2
Fore
SplineSet
117.5 -40.5 m 128,-1,1
 58 -8 58 -8 32 43 c 1,2,-1
 99 78 l 1,3,4
 122 41 122 41 160.5 18.5 c 128,-1,5
 199 -4 199 -4 250 -4 c 0,6,7
 298 -4 298 -4 327.5 14 c 128,-1,8
 357 32 357 32 357 64 c 0,9,10
 357 90 357 90 336 110.5 c 128,-1,11
 315 131 315 131 263 152 c 2,12,-1
 179 184 l 2,13,14
 108 211 108 211 76 246.5 c 128,-1,15
 44 282 44 282 44 333 c 0,16,17
 44 378 44 378 70.5 411.5 c 128,-1,18
 97 445 97 445 141 463 c 1,19,20
 89 491 89 491 68.5 521.5 c 128,-1,21
 48 552 48 552 48 590 c 0,22,23
 48 630 48 630 71.5 663 c 128,-1,24
 95 696 95 696 138.5 714.5 c 128,-1,25
 182 733 182 733 239 733 c 0,26,27
 304 733 304 733 356.5 703.5 c 128,-1,28
 409 674 409 674 435 630 c 1,29,-1
 368 595 l 1,30,31
 312 664 312 664 243 664 c 0,32,33
 196 664 196 664 169 646.5 c 128,-1,34
 142 629 142 629 142 599 c 0,35,36
 142 556 142 556 216 525 c 2,37,-1
 298 493 l 2,38,39
 377 462 377 462 412 423.5 c 128,-1,40
 447 385 447 385 447 331 c 0,41,42
 447 248 447 248 360 203 c 1,43,44
 406 177 406 177 428.5 146 c 128,-1,45
 451 115 451 115 451 75 c 0,46,47
 451 9 451 9 397 -32 c 128,-1,48
 343 -73 343 -73 251 -73 c 0,49,0
 177 -73 177 -73 117.5 -40.5 c 128,-1,1
334 259 m 128,-1,51
 359 281 359 281 359 314 c 0,52,53
 359 345 359 345 341 366.5 c 128,-1,54
 323 388 323 388 275 407 c 2,55,-1
 223 427 l 1,56,57
 184 424 184 424 158 400.5 c 128,-1,58
 132 377 132 377 132 347 c 0,59,60
 132 320 132 320 149 302.5 c 128,-1,61
 166 285 166 285 217 265 c 2,62,-1
 275 240 l 1,63,50
 309 237 309 237 334 259 c 128,-1,51
EndSplineSet
EndChar

StartChar: dieresis
Encoding: 168 168 106
Width: 285
GlyphClass: 2
Flags: W
LayerCount: 2
Fore
SplineSet
109 610 m 1,0,-1
 13 610 l 1,1,-1
 13 723 l 1,2,-1
 109 723 l 1,3,-1
 109 610 l 1,0,-1
269 610 m 1,4,-1
 172 610 l 1,5,-1
 172 723 l 1,6,-1
 269 723 l 1,7,-1
 269 610 l 1,4,-1
EndSplineSet
EndChar

StartChar: copyright
Encoding: 169 169 107
Width: 819
GlyphClass: 2
Flags: W
LayerCount: 2
Fore
SplineSet
221 40 m 128,-1,1
 136 90 136 90 86 175 c 128,-1,2
 36 260 36 260 36 362 c 0,3,4
 36 462 36 462 86 547.5 c 128,-1,5
 136 633 136 633 221 683 c 128,-1,6
 306 733 306 733 407 733 c 128,-1,7
 508 733 508 733 593.5 683 c 128,-1,8
 679 633 679 633 729 547.5 c 128,-1,9
 779 462 779 462 779 362 c 0,10,11
 779 260 779 260 729 175 c 128,-1,12
 679 90 679 90 593.5 40 c 128,-1,13
 508 -10 508 -10 407 -10 c 128,-1,0
 306 -10 306 -10 221 40 c 128,-1,1
559.5 94 m 128,-1,15
 628 132 628 132 668 201.5 c 128,-1,16
 708 271 708 271 708 362 c 0,17,18
 708 452 708 452 668 522 c 128,-1,19
 628 592 628 592 559 630.5 c 128,-1,20
 490 669 490 669 407 669 c 0,21,22
 322 669 322 669 253.5 630.5 c 128,-1,23
 185 592 185 592 145.5 522 c 128,-1,24
 106 452 106 452 106 362 c 0,25,26
 106 271 106 271 145.5 201.5 c 128,-1,27
 185 132 185 132 253.5 94 c 128,-1,28
 322 56 322 56 407 56 c 0,29,14
 491 56 491 56 559.5 94 c 128,-1,15
511.5 540.5 m 128,-1,31
 553 508 553 508 577 458 c 1,32,-1
 502 443 l 1,33,34
 468 512 468 512 413 512 c 0,35,36
 364 512 364 512 334 473 c 128,-1,37
 304 434 304 434 304 365 c 0,38,39
 304 295 304 295 334.5 256 c 128,-1,40
 365 217 365 217 416 217 c 0,41,42
 484 217 484 217 522 291 c 1,43,-1
 578 273 l 1,44,45
 556 224 556 224 513.5 190 c 128,-1,46
 471 156 471 156 410 156 c 0,47,48
 354 156 354 156 310 182 c 128,-1,49
 266 208 266 208 241.5 255 c 128,-1,50
 217 302 217 302 217 363 c 128,-1,51
 217 424 217 424 242 472 c 128,-1,52
 267 520 267 520 311 546.5 c 128,-1,53
 355 573 355 573 410 573 c 0,54,30
 470 573 470 573 511.5 540.5 c 128,-1,31
EndSplineSet
EndChar

StartChar: ordfeminine
Encoding: 170 170 108
Width: 416
GlyphClass: 2
Flags: W
LayerCount: 2
Fore
SplineSet
74.5 420.5 m 128,-1,1
 46 445 46 445 46 487 c 0,2,3
 46 534 46 534 88.5 563 c 128,-1,4
 131 592 131 592 210 596 c 2,5,-1
 262 600 l 1,6,-1
 262 623 l 2,7,8
 262 654 262 654 243.5 668 c 128,-1,9
 225 682 225 682 194 682 c 0,10,11
 167 682 167 682 148 671.5 c 128,-1,12
 129 661 129 661 115 635 c 1,13,-1
 54 651 l 1,14,15
 72 691 72 691 106.5 711 c 128,-1,16
 141 731 141 731 197 731 c 0,17,18
 329 731 329 731 329 624 c 2,19,-1
 329 505 l 2,20,21
 329 465 329 465 333 437 c 2,22,-1
 340 402 l 1,23,-1
 269 402 l 1,24,-1
 261 443 l 1,25,26
 233 418 233 418 209 407 c 128,-1,27
 185 396 185 396 154 396 c 0,28,0
 103 396 103 396 74.5 420.5 c 128,-1,1
240 467 m 0,29,30
 251 477 251 477 256.5 486 c 128,-1,31
 262 495 262 495 262 505 c 2,32,-1
 262 557 l 1,33,-1
 218 555 l 2,34,35
 168 551 168 551 142 534.5 c 128,-1,36
 116 518 116 518 116 491 c 0,37,38
 116 469 116 469 133 456.5 c 128,-1,39
 150 444 150 444 178 444 c 0,40,41
 214 444 214 444 240 467 c 0,29,30
EndSplineSet
EndChar

StartChar: guillemotleft
Encoding: 171 171 109
Width: 458
GlyphClass: 2
Flags: W
LayerCount: 2
Fore
SplineSet
225 69 m 1,0,-1
 169 69 l 1,1,-1
 40 251 l 1,2,-1
 169 441 l 1,3,-1
 227 441 l 1,4,-1
 129 251 l 1,5,-1
 225 69 l 1,0,-1
405 69 m 1,6,-1
 348 69 l 1,7,-1
 219 251 l 1,8,-1
 348 441 l 1,9,-1
 406 441 l 1,10,-1
 309 251 l 1,11,-1
 405 69 l 1,6,-1
EndSplineSet
EndChar

StartChar: logicalnot
Encoding: 172 172 110
Width: 560
GlyphClass: 2
Flags: W
LayerCount: 2
Fore
SplineSet
498 403 m 1,0,-1
 498 180 l 1,1,-1
 413 180 l 1,2,-1
 413 325 l 1,3,-1
 59 324 l 1,4,-1
 59 402 l 1,5,-1
 498 403 l 1,0,-1
EndSplineSet
EndChar

StartChar: uni00AD
Encoding: 173 173 111
Width: 374
GlyphClass: 2
Flags: W
LayerCount: 2
Fore
SplineSet
325 219 m 1,0,-1
 68 218 l 1,1,-1
 68 297 l 1,2,-1
 325 298 l 1,3,-1
 325 219 l 1,0,-1
EndSplineSet
EndChar

StartChar: registered
Encoding: 174 174 112
Width: 541
GlyphClass: 2
Flags: W
LayerCount: 2
Fore
SplineSet
151.5 299 m 128,-1,1
 98 330 98 330 67 383 c 128,-1,2
 36 436 36 436 36 500 c 128,-1,3
 36 564 36 564 67 617 c 128,-1,4
 98 670 98 670 151.5 701.5 c 128,-1,5
 205 733 205 733 269 733 c 0,6,7
 332 733 332 733 385.5 701.5 c 128,-1,8
 439 670 439 670 470 616.5 c 128,-1,9
 501 563 501 563 501 500 c 128,-1,10
 501 437 501 437 470 383.5 c 128,-1,11
 439 330 439 330 385.5 299 c 128,-1,12
 332 268 332 268 269 268 c 0,13,0
 205 268 205 268 151.5 299 c 128,-1,1
399.5 366 m 128,-1,15
 449 416 449 416 449 500 c 0,16,17
 449 583 449 583 399 634 c 128,-1,18
 349 685 349 685 269 685 c 0,19,20
 187 685 187 685 137.5 634 c 128,-1,21
 88 583 88 583 88 500 c 0,22,23
 88 416 88 416 137.5 366 c 128,-1,24
 187 316 187 316 269 316 c 0,25,14
 350 316 350 316 399.5 366 c 128,-1,15
179 614 m 1,26,-1
 283 614 l 2,27,28
 322 614 322 614 343.5 598.5 c 128,-1,29
 365 583 365 583 365 555 c 0,30,31
 365 511 365 511 317 493 c 1,32,-1
 362 383 l 1,33,-1
 312 383 l 1,34,-1
 274 488 l 1,35,-1
 224 488 l 1,36,-1
 224 383 l 1,37,-1
 179 383 l 1,38,-1
 179 614 l 1,26,-1
279 524 m 2,39,40
 317 524 317 524 317 551 c 0,41,42
 317 579 317 579 276 579 c 2,43,-1
 224 579 l 1,44,-1
 224 524 l 1,45,-1
 279 524 l 2,39,40
EndSplineSet
EndChar

StartChar: macron
Encoding: 175 175 113
Width: 338
GlyphClass: 2
Flags: W
LayerCount: 2
Fore
SplineSet
321 641 m 1,0,-1
 13 641 l 1,1,-1
 13 712 l 1,2,-1
 321 712 l 1,3,-1
 321 641 l 1,0,-1
EndSplineSet
EndChar

StartChar: degree
Encoding: 176 176 114
Width: 462
GlyphClass: 2
Flags: W
LayerCount: 2
Fore
SplineSet
366.5 595 m 128,-1,1
 346 559 346 559 310 538.5 c 128,-1,2
 274 518 274 518 229 518 c 0,3,4
 160 518 160 518 115 562.5 c 128,-1,5
 70 607 70 607 70 677 c 0,6,7
 70 723 70 723 90.5 759.5 c 128,-1,8
 111 796 111 796 147.5 816.5 c 128,-1,9
 184 837 184 837 229 837 c 128,-1,10
 274 837 274 837 310 816.5 c 128,-1,11
 346 796 346 796 366.5 759.5 c 128,-1,12
 387 723 387 723 387 677 c 128,-1,0
 387 631 387 631 366.5 595 c 128,-1,1
293.5 745 m 128,-1,14
 269 771 269 771 227 771 c 0,15,16
 187 771 187 771 161.5 745 c 128,-1,17
 136 719 136 719 136 678 c 0,18,19
 136 635 136 635 161 608 c 128,-1,20
 186 581 186 581 228 581 c 0,21,22
 269 581 269 581 293.5 607 c 128,-1,23
 318 633 318 633 318 676 c 128,-1,13
 318 719 318 719 293.5 745 c 128,-1,14
EndSplineSet
EndChar

StartChar: plusminus
Encoding: 177 177 115
Width: 560
GlyphClass: 2
Flags: W
LayerCount: 2
Fore
SplineSet
498 481 m 1,0,-1
 498 403 l 1,1,-1
 318 403 l 1,2,-1
 318 223 l 1,3,-1
 240 223 l 1,4,-1
 240 402 l 1,5,-1
 59 402 l 1,6,-1
 59 480 l 1,7,-1
 240 480 l 1,8,-1
 240 662 l 1,9,-1
 318 662 l 1,10,-1
 318 481 l 1,11,-1
 498 481 l 1,0,-1
59 132 m 1,12,-1
 498 132 l 1,13,-1
 498 55 l 1,14,-1
 59 54 l 1,15,-1
 59 132 l 1,12,-1
EndSplineSet
EndChar

StartChar: uni00B2
Encoding: 178 178 116
Width: 379
GlyphClass: 2
Flags: W
LayerCount: 2
Fore
SplineSet
14 437 m 1,0,-1
 160 576 l 2,1,2
 216 629 216 629 235.5 656.5 c 128,-1,3
 255 684 255 684 255 714 c 0,4,5
 255 751 255 751 229.5 770 c 128,-1,6
 204 789 204 789 170 789 c 0,7,8
 138 789 138 789 111 773 c 128,-1,9
 84 757 84 757 69 724 c 1,10,-1
 11 735 l 1,11,12
 26 787 26 787 67 816 c 128,-1,13
 108 845 108 845 173 845 c 0,14,15
 239 845 239 845 280.5 810.5 c 128,-1,16
 322 776 322 776 322 716 c 0,17,18
 322 678 322 678 302 645.5 c 128,-1,19
 282 613 282 613 229 560 c 2,20,-1
 107 440 l 1,21,-1
 327 440 l 1,22,-1
 327 384 l 1,23,-1
 14 384 l 1,24,-1
 14 437 l 1,0,-1
EndSplineSet
EndChar

StartChar: uni00B3
Encoding: 179 179 117
Width: 394
GlyphClass: 2
Flags: W
LayerCount: 2
Fore
SplineSet
91.5 821 m 128,-1,1
 137 845 137 845 199 845 c 0,2,3
 269 845 269 845 313.5 812 c 128,-1,4
 358 779 358 779 358 729 c 0,5,6
 358 656 358 656 272 627 c 1,7,8
 317 614 317 614 345 584.5 c 128,-1,9
 373 555 373 555 373 512 c 0,10,11
 373 473 373 473 349.5 442.5 c 128,-1,12
 326 412 326 412 285 395 c 128,-1,13
 244 378 244 378 194 378 c 0,14,15
 126 378 126 378 83.5 400.5 c 128,-1,16
 41 423 41 423 23 478 c 1,17,-1
 81 488 l 1,18,19
 115 432 115 432 192 432 c 0,20,21
 242 432 242 432 271.5 454 c 128,-1,22
 301 476 301 476 301 510 c 0,23,24
 301 548 301 548 270 570.5 c 128,-1,25
 239 593 239 593 195 593 c 2,26,-1
 134 594 l 1,27,-1
 134 647 l 1,28,-1
 185 648 l 2,29,30
 230 649 230 649 259.5 670.5 c 128,-1,31
 289 692 289 692 289 724 c 0,32,33
 289 754 289 754 262.5 773 c 128,-1,34
 236 792 236 792 197 792 c 0,35,36
 119 792 119 792 92 736 c 1,37,-1
 34 747 l 1,38,0
 46 797 46 797 91.5 821 c 128,-1,1
EndSplineSet
EndChar

StartChar: acute
Encoding: 180 180 118
Width: 293
GlyphClass: 2
Flags: W
LayerCount: 2
Fore
SplineSet
281 658 m 1,0,-1
 27 585 l 1,1,-1
 10 635 l 1,2,-1
 256 733 l 1,3,-1
 281 658 l 1,0,-1
EndSplineSet
EndChar

StartChar: paragraph
Encoding: 182 182 119
Width: 577
GlyphClass: 2
Flags: W
LayerCount: 2
Fore
SplineSet
440 662 m 1,0,-1
 440 -83 l 1,1,-1
 374 -83 l 1,2,-1
 374 662 l 1,3,-1
 322 662 l 1,4,-1
 322 -83 l 1,5,-1
 255 -83 l 1,6,-1
 255 298 l 1,7,8
 193 300 193 300 145.5 327.5 c 128,-1,9
 98 355 98 355 71.5 401 c 128,-1,10
 45 447 45 447 45 505 c 0,11,12
 45 564 45 564 71.5 613.5 c 128,-1,13
 98 663 98 663 150 693 c 128,-1,14
 202 723 202 723 275 723 c 2,15,-1
 501 723 l 1,16,-1
 501 662 l 1,17,-1
 440 662 l 1,0,-1
EndSplineSet
EndChar

StartChar: periodcentered
Encoding: 183 183 120
Width: 222
GlyphClass: 2
Flags: W
LayerCount: 2
Fore
SplineSet
169 306 m 1,0,-1
 48 306 l 1,1,-1
 48 423 l 1,2,-1
 169 423 l 1,3,-1
 169 306 l 1,0,-1
EndSplineSet
EndChar

StartChar: cedilla
Encoding: 184 184 121
Width: 237
GlyphClass: 2
Flags: W
LayerCount: 2
Fore
SplineSet
188 -186 m 128,-1,1
 156 -207 156 -207 110 -207 c 0,2,3
 50 -207 50 -207 11 -182 c 1,4,-1
 27 -141 l 1,5,6
 60 -165 60 -165 97 -165 c 0,7,8
 151 -165 151 -165 151 -129 c 0,9,10
 151 -108 151 -108 131.5 -97.5 c 128,-1,11
 112 -87 112 -87 70 -86 c 0,12,13
 60 -86 60 -86 63 -79 c 2,14,-1
 100 5 l 1,15,-1
 152 5 l 1,16,-1
 128 -55 l 1,17,18
 176 -57 176 -57 198 -78.5 c 128,-1,19
 220 -100 220 -100 220 -129 c 0,20,0
 220 -165 220 -165 188 -186 c 128,-1,1
EndSplineSet
EndChar

StartChar: uni00B9
Encoding: 185 185 122
Width: 297
GlyphClass: 2
Flags: W
LayerCount: 2
Fore
SplineSet
83 761 m 1,0,-1
 -3 731 l 1,1,-1
 -3 779 l 1,2,-1
 109 835 l 1,3,-1
 149 835 l 1,4,-1
 149 380 l 1,5,-1
 83 380 l 1,6,-1
 83 761 l 1,0,-1
EndSplineSet
EndChar

StartChar: ordmasculine
Encoding: 186 186 123
Width: 407
GlyphClass: 2
Flags: W
LayerCount: 2
Fore
SplineSet
318 685.5 m 128,-1,1
 361 639 361 639 361 563 c 0,2,3
 361 489 361 489 318 443 c 128,-1,4
 275 397 275 397 203 397 c 128,-1,5
 131 397 131 397 88 443 c 128,-1,6
 45 489 45 489 45 563 c 0,7,8
 45 639 45 639 88.5 685.5 c 128,-1,9
 132 732 132 732 203 732 c 0,10,0
 275 732 275 732 318 685.5 c 128,-1,1
140.5 651 m 128,-1,12
 119 621 119 621 119 566 c 0,13,14
 119 509 119 509 140 478.5 c 128,-1,15
 161 448 161 448 203 448 c 128,-1,16
 245 448 245 448 266.5 478.5 c 128,-1,17
 288 509 288 509 288 566 c 0,18,19
 288 621 288 621 266 651 c 128,-1,20
 244 681 244 681 203 681 c 128,-1,11
 162 681 162 681 140.5 651 c 128,-1,12
EndSplineSet
EndChar

StartChar: guillemotright
Encoding: 187 187 124
Width: 458
GlyphClass: 2
Flags: W
LayerCount: 2
Fore
SplineSet
49 441 m 1,0,-1
 106 441 l 1,1,-1
 235 251 l 1,2,-1
 106 69 l 1,3,-1
 50 69 l 1,4,-1
 146 251 l 1,5,-1
 49 441 l 1,0,-1
228 441 m 1,6,-1
 285 441 l 1,7,-1
 414 251 l 1,8,-1
 285 69 l 1,9,-1
 229 69 l 1,10,-1
 325 251 l 1,11,-1
 228 441 l 1,6,-1
EndSplineSet
EndChar

StartChar: onequarter
Encoding: 188 188 125
Width: 957
GlyphClass: 2
Flags: W
LayerCount: 2
Fore
SplineSet
83 657 m 1,0,-1
 -3 627 l 1,1,-1
 -3 675 l 1,2,-1
 109 731 l 1,3,-1
 149 731 l 1,4,-1
 149 276 l 1,5,-1
 83 276 l 1,6,-1
 83 657 l 1,0,-1
208 -4 m 1,7,-1
 142 -3 l 1,8,-1
 629 731 l 1,9,-1
 694 731 l 1,10,-1
 208 -4 l 1,7,-1
838 455 m 1,11,-1
 838 170 l 1,12,-1
 908 170 l 1,13,-1
 908 113 l 1,14,-1
 838 113 l 1,15,-1
 838 0 l 1,16,-1
 773 0 l 1,17,-1
 774 113 l 1,18,-1
 563 113 l 1,19,-1
 563 172 l 1,20,-1
 773 455 l 1,21,-1
 838 455 l 1,11,-1
773 170 m 1,22,-1
 773 362 l 1,23,-1
 630 170 l 1,24,-1
 773 170 l 1,22,-1
EndSplineSet
EndChar

StartChar: onehalf
Encoding: 189 189 126
Width: 925
GlyphClass: 2
Flags: W
LayerCount: 2
Fore
SplineSet
83 657 m 1,0,-1
 -3 627 l 1,1,-1
 -3 675 l 1,2,-1
 109 731 l 1,3,-1
 149 731 l 1,4,-1
 149 276 l 1,5,-1
 83 276 l 1,6,-1
 83 657 l 1,0,-1
208 -4 m 1,7,-1
 142 -3 l 1,8,-1
 629 731 l 1,9,-1
 694 731 l 1,10,-1
 208 -4 l 1,7,-1
560 53 m 1,11,-1
 706 192 l 2,12,13
 743 228 743 228 763 250 c 128,-1,14
 783 272 783 272 792 290.5 c 128,-1,15
 801 309 801 309 801 330 c 0,16,17
 801 367 801 367 775.5 386 c 128,-1,18
 750 405 750 405 716 405 c 0,19,20
 684 405 684 405 657 389.5 c 128,-1,21
 630 374 630 374 615 340 c 1,22,-1
 557 351 l 1,23,24
 572 403 572 403 613.5 432 c 128,-1,25
 655 461 655 461 719 461 c 0,26,27
 762 461 762 461 796 445.5 c 128,-1,28
 830 430 830 430 849 401 c 128,-1,29
 868 372 868 372 868 331 c 0,30,31
 868 305 868 305 859 282.5 c 128,-1,32
 850 260 850 260 830.5 236 c 128,-1,33
 811 212 811 212 775 176 c 2,34,-1
 653 56 l 1,35,-1
 873 56 l 1,36,-1
 873 0 l 1,37,-1
 560 0 l 1,38,-1
 560 53 l 1,11,-1
EndSplineSet
EndChar

StartChar: threequarters
Encoding: 190 190 127
Width: 1054
GlyphClass: 2
Flags: W
LayerCount: 2
Fore
SplineSet
91.5 716 m 128,-1,1
 137 740 137 740 199 740 c 0,2,3
 269 740 269 740 313.5 707 c 128,-1,4
 358 674 358 674 358 624 c 0,5,6
 358 551 358 551 272 522 c 1,7,8
 317 509 317 509 345 479.5 c 128,-1,9
 373 450 373 450 373 407 c 0,10,11
 373 368 373 368 349.5 337.5 c 128,-1,12
 326 307 326 307 285 290 c 128,-1,13
 244 273 244 273 194 273 c 0,14,15
 126 273 126 273 83.5 295.5 c 128,-1,16
 41 318 41 318 23 373 c 1,17,-1
 81 383 l 1,18,19
 115 327 115 327 192 327 c 0,20,21
 242 327 242 327 271.5 349 c 128,-1,22
 301 371 301 371 301 405 c 0,23,24
 301 443 301 443 270 465.5 c 128,-1,25
 239 488 239 488 195 488 c 2,26,-1
 134 489 l 1,27,-1
 134 542 l 1,28,-1
 185 543 l 2,29,30
 230 544 230 544 259.5 565.5 c 128,-1,31
 289 587 289 587 289 619 c 0,32,33
 289 649 289 649 262.5 668 c 128,-1,34
 236 687 236 687 197 687 c 0,35,36
 119 687 119 687 92 631 c 1,37,-1
 34 642 l 1,38,0
 46 692 46 692 91.5 716 c 128,-1,1
305 -4 m 1,39,-1
 239 -3 l 1,40,-1
 726 731 l 1,41,-1
 791 731 l 1,42,-1
 305 -4 l 1,39,-1
935 455 m 1,43,-1
 935 170 l 1,44,-1
 1005 170 l 1,45,-1
 1005 113 l 1,46,-1
 935 113 l 1,47,-1
 935 0 l 1,48,-1
 870 0 l 1,49,-1
 871 113 l 1,50,-1
 660 113 l 1,51,-1
 660 172 l 1,52,-1
 870 455 l 1,53,-1
 935 455 l 1,43,-1
870 170 m 1,54,-1
 870 362 l 1,55,-1
 727 170 l 1,56,-1
 870 170 l 1,54,-1
EndSplineSet
EndChar

StartChar: questiondown
Encoding: 191 191 128
Width: 520
GlyphClass: 2
Flags: W
LayerCount: 2
Fore
SplineSet
212 517 m 1,0,-1
 331 517 l 1,1,-1
 331 393 l 1,2,-1
 212 393 l 1,3,-1
 212 517 l 1,0,-1
400 -132 m 128,-1,5
 337 -171 337 -171 255 -171 c 0,6,7
 184 -171 184 -171 133.5 -148.5 c 128,-1,8
 83 -126 83 -126 56.5 -86.5 c 128,-1,9
 30 -47 30 -47 30 3 c 0,10,11
 30 42 30 42 43.5 71 c 128,-1,12
 57 100 57 100 77 120.5 c 128,-1,13
 97 141 97 141 130 168 c 0,14,15
 163 196 163 196 182 215.5 c 128,-1,16
 201 235 201 235 214.5 263 c 128,-1,17
 228 291 228 291 228 328 c 1,18,-1
 314 328 l 1,19,20
 314 281 314 281 299.5 245.5 c 128,-1,21
 285 210 285 210 264.5 186.5 c 128,-1,22
 244 163 244 163 210 132 c 0,23,24
 171 96 171 96 152.5 70 c 128,-1,25
 134 44 134 44 134 7 c 0,26,27
 134 -38 134 -38 167.5 -65.5 c 128,-1,28
 201 -93 201 -93 255 -93 c 0,29,30
 303 -93 303 -93 346 -65.5 c 128,-1,31
 389 -38 389 -38 405 3 c 1,32,-1
 495 -22 l 1,33,4
 463 -93 463 -93 400 -132 c 128,-1,5
EndSplineSet
EndChar

StartChar: Agrave
Encoding: 192 192 129
Width: 700
GlyphClass: 2
Flags: W
AnchorPoint: "Anchor-5" 0 0 basechar 0
AnchorPoint: "Anchor-4" 0 0 basechar 0
AnchorPoint: "Anchor-3" 356 723 basechar 0
AnchorPoint: "Anchor-2" 663 10 basechar 0
LayerCount: 2
Fore
SplineSet
294 723 m 1,0,-1
 407 723 l 1,1,-1
 668 0 l 1,2,-1
 565 0 l 1,3,-1
 496 192 l 1,4,-1
 207 192 l 1,5,-1
 136 0 l 1,6,-1
 33 0 l 1,7,-1
 294 723 l 1,0,-1
469 285 m 1,8,-1
 351 623 l 1,9,-1
 232 285 l 1,10,-1
 469 285 l 1,8,-1
481 841 m 1,11,-1
 464 791 l 1,12,-1
 210 864 l 1,13,-1
 235 939 l 1,14,-1
 481 841 l 1,11,-1
EndSplineSet
EndChar

StartChar: Aacute
Encoding: 193 193 130
Width: 700
GlyphClass: 2
Flags: W
AnchorPoint: "Anchor-5" 0 0 basechar 0
AnchorPoint: "Anchor-4" 0 0 basechar 0
AnchorPoint: "Anchor-3" 356 723 basechar 0
AnchorPoint: "Anchor-2" 663 10 basechar 0
LayerCount: 2
Fore
SplineSet
294 723 m 1,0,-1
 407 723 l 1,1,-1
 668 0 l 1,2,-1
 565 0 l 1,3,-1
 496 192 l 1,4,-1
 207 192 l 1,5,-1
 136 0 l 1,6,-1
 33 0 l 1,7,-1
 294 723 l 1,0,-1
469 285 m 1,8,-1
 351 623 l 1,9,-1
 232 285 l 1,10,-1
 469 285 l 1,8,-1
492 864 m 1,11,-1
 238 791 l 1,12,-1
 221 841 l 1,13,-1
 467 939 l 1,14,-1
 492 864 l 1,11,-1
EndSplineSet
EndChar

StartChar: Acircumflex
Encoding: 194 194 131
Width: 700
GlyphClass: 2
Flags: W
AnchorPoint: "Anchor-5" 0 0 basechar 0
AnchorPoint: "Anchor-4" 0 0 basechar 0
AnchorPoint: "Anchor-3" 356 723 basechar 0
AnchorPoint: "Anchor-2" 663 10 basechar 0
LayerCount: 2
Fore
SplineSet
294 723 m 1,0,-1
 407 723 l 1,1,-1
 668 0 l 1,2,-1
 565 0 l 1,3,-1
 496 192 l 1,4,-1
 207 192 l 1,5,-1
 136 0 l 1,6,-1
 33 0 l 1,7,-1
 294 723 l 1,0,-1
469 285 m 1,8,-1
 351 623 l 1,9,-1
 232 285 l 1,10,-1
 469 285 l 1,8,-1
355 883 m 1,11,-1
 280 815 l 1,12,-1
 193 815 l 1,13,-1
 320 933 l 1,14,-1
 393 933 l 1,15,-1
 517 815 l 1,16,-1
 425 815 l 1,17,-1
 355 883 l 1,11,-1
EndSplineSet
EndChar

StartChar: Atilde
Encoding: 195 195 132
Width: 700
GlyphClass: 2
Flags: W
AnchorPoint: "Anchor-5" 0 0 basechar 0
AnchorPoint: "Anchor-4" 0 0 basechar 0
AnchorPoint: "Anchor-3" 356 723 basechar 0
AnchorPoint: "Anchor-2" 663 10 basechar 0
LayerCount: 2
Fore
SplineSet
294 723 m 1,0,-1
 407 723 l 1,1,-1
 668 0 l 1,2,-1
 565 0 l 1,3,-1
 496 192 l 1,4,-1
 207 192 l 1,5,-1
 136 0 l 1,6,-1
 33 0 l 1,7,-1
 294 723 l 1,0,-1
469 285 m 1,8,-1
 351 623 l 1,9,-1
 232 285 l 1,10,-1
 469 285 l 1,8,-1
423 837 m 0,11,12
 393 837 393 837 353 851 c 0,13,14
 338 856 338 856 322.5 859.5 c 128,-1,15
 307 863 307 863 293 863 c 0,16,17
 274 863 274 863 262 858 c 128,-1,18
 250 853 250 853 232 842 c 0,19,20
 228 839 228 839 224 839 c 128,-1,21
 220 839 220 839 217 847 c 2,22,-1
 206 878 l 2,23,24
 205 880 205 880 205 884 c 0,25,26
 205 889 205 889 211 894 c 0,27,28
 229 909 229 909 246.5 917.5 c 128,-1,29
 264 926 264 926 288 926 c 0,30,31
 305 926 305 926 324.5 921.5 c 128,-1,32
 344 917 344 917 361 911 c 0,33,34
 400 898 400 898 423 898 c 0,35,36
 452 898 452 898 483 918 c 0,37,38
 487 921 487 921 491 921 c 0,39,40
 497 921 497 921 500 913 c 2,41,-1
 510 876 l 1,42,-1
 511 872 l 2,43,44
 511 867 511 867 501 860 c 0,45,46
 470 837 470 837 423 837 c 0,11,12
EndSplineSet
EndChar

StartChar: Adieresis
Encoding: 196 196 133
Width: 700
GlyphClass: 2
Flags: W
AnchorPoint: "Anchor-5" 0 0 basechar 0
AnchorPoint: "Anchor-4" 0 0 basechar 0
AnchorPoint: "Anchor-3" 356 723 basechar 0
AnchorPoint: "Anchor-2" 663 10 basechar 0
LayerCount: 2
Fore
SplineSet
294 723 m 1,0,-1
 407 723 l 1,1,-1
 668 0 l 1,2,-1
 565 0 l 1,3,-1
 496 192 l 1,4,-1
 207 192 l 1,5,-1
 136 0 l 1,6,-1
 33 0 l 1,7,-1
 294 723 l 1,0,-1
469 285 m 1,8,-1
 351 623 l 1,9,-1
 232 285 l 1,10,-1
 469 285 l 1,8,-1
324 816 m 1,11,-1
 228 816 l 1,12,-1
 228 929 l 1,13,-1
 324 929 l 1,14,-1
 324 816 l 1,11,-1
484 816 m 1,15,-1
 387 816 l 1,16,-1
 387 929 l 1,17,-1
 484 929 l 1,18,-1
 484 816 l 1,15,-1
EndSplineSet
EndChar

StartChar: Aring
Encoding: 197 197 134
Width: 700
GlyphClass: 2
Flags: W
AnchorPoint: "Anchor-5" 0 0 basechar 0
AnchorPoint: "Anchor-4" 0 0 basechar 0
AnchorPoint: "Anchor-3" 356 723 basechar 0
AnchorPoint: "Anchor-2" 663 10 basechar 0
LayerCount: 2
Fore
SplineSet
294 723 m 1,0,-1
 407 723 l 1,1,-1
 668 0 l 1,2,-1
 565 0 l 1,3,-1
 496 192 l 1,4,-1
 207 192 l 1,5,-1
 136 0 l 1,6,-1
 33 0 l 1,7,-1
 294 723 l 1,0,-1
469 285 m 1,8,-1
 351 623 l 1,9,-1
 232 285 l 1,10,-1
 469 285 l 1,8,-1
430 811 m 128,-1,12
 400 781 400 781 356 781 c 128,-1,13
 312 781 312 781 282 811.5 c 128,-1,14
 252 842 252 842 252 886 c 0,15,16
 252 928 252 928 282.5 957.5 c 128,-1,17
 313 987 313 987 356 987 c 0,18,19
 400 987 400 987 430 957 c 128,-1,20
 460 927 460 927 460 884 c 128,-1,11
 460 841 460 841 430 811 c 128,-1,12
392 922 m 128,-1,22
 377 937 377 937 355 937 c 128,-1,23
 333 937 333 937 317 922 c 128,-1,24
 301 907 301 907 301 884 c 0,25,26
 301 863 301 863 317 846.5 c 128,-1,27
 333 830 333 830 355 830 c 0,28,29
 376 830 376 830 391.5 846.5 c 128,-1,30
 407 863 407 863 407 884 c 0,31,21
 407 907 407 907 392 922 c 128,-1,22
EndSplineSet
EndChar

StartChar: AE
Encoding: 198 198 135
Width: 1023
GlyphClass: 2
Flags: W
AnchorPoint: "Anchor-5" 0 0 basechar 0
AnchorPoint: "Anchor-4" 0 0 basechar 0
AnchorPoint: "Anchor-3" 680 723 basechar 0
AnchorPoint: "Anchor-2" 0 0 basechar 0
LayerCount: 2
Fore
SplineSet
960 0 m 1,0,-1
 488 0 l 1,1,-1
 488 195 l 1,2,-1
 243 195 l 1,3,-1
 136 0 l 1,4,-1
 33 0 l 1,5,-1
 430 723 l 1,6,-1
 949 723 l 1,7,-1
 948 635 l 1,8,-1
 604 635 l 1,9,-1
 604 408 l 1,10,-1
 856 408 l 1,11,-1
 856 321 l 1,12,-1
 604 321 l 1,13,-1
 604 88 l 1,14,-1
 960 88 l 1,15,-1
 960 0 l 1,0,-1
488 651 m 1,16,-1
 283 285 l 1,17,-1
 488 285 l 1,18,-1
 488 651 l 1,16,-1
EndSplineSet
EndChar

StartChar: Ccedilla
Encoding: 199 199 136
Width: 689
GlyphClass: 2
Flags: W
AnchorPoint: "Anchor-5" 0 0 basechar 0
AnchorPoint: "Anchor-4" 363 0 basechar 0
AnchorPoint: "Anchor-3" 363 723 basechar 0
AnchorPoint: "Anchor-2" 0 0 basechar 0
LayerCount: 2
Fore
SplineSet
496.5 703.5 m 128,-1,1
 558 674 558 674 594.5 622.5 c 128,-1,2
 631 571 631 571 638 508 c 1,3,-1
 530 504 l 1,4,5
 518 569 518 569 474 607 c 128,-1,6
 430 645 430 645 357 645 c 0,7,8
 262 645 262 645 212.5 575 c 128,-1,9
 163 505 163 505 163 363 c 128,-1,10
 163 221 163 221 213 149.5 c 128,-1,11
 263 78 263 78 361 78 c 0,12,13
 425 78 425 78 470 116.5 c 128,-1,14
 515 155 515 155 529 219 c 1,15,-1
 636 212 l 1,16,17
 628 149 628 149 594.5 99 c 128,-1,18
 561 49 561 49 502 19.5 c 128,-1,19
 443 -10 443 -10 363 -10 c 0,20,21
 266 -10 266 -10 195.5 35.5 c 128,-1,22
 125 81 125 81 87.5 165.5 c 128,-1,23
 50 250 50 250 50 364 c 128,-1,24
 50 478 50 478 86.5 561 c 128,-1,25
 123 644 123 644 192.5 688.5 c 128,-1,26
 262 733 262 733 358 733 c 0,27,0
 435 733 435 733 496.5 703.5 c 128,-1,1
428 -186 m 128,-1,29
 396 -207 396 -207 350 -207 c 0,30,31
 290 -207 290 -207 251 -182 c 1,32,-1
 267 -141 l 1,33,34
 300 -165 300 -165 337 -165 c 0,35,36
 391 -165 391 -165 391 -129 c 0,37,38
 391 -108 391 -108 371.5 -97.5 c 128,-1,39
 352 -87 352 -87 310 -86 c 0,40,41
 300 -86 300 -86 303 -79 c 2,42,-1
 340 5 l 1,43,-1
 392 5 l 1,44,-1
 368 -55 l 1,45,46
 416 -57 416 -57 438 -78.5 c 128,-1,47
 460 -100 460 -100 460 -129 c 0,48,28
 460 -165 460 -165 428 -186 c 128,-1,29
EndSplineSet
EndChar

StartChar: Egrave
Encoding: 200 200 137
Width: 625
GlyphClass: 2
Flags: W
AnchorPoint: "Anchor-5" 0 0 basechar 0
AnchorPoint: "Anchor-4" 342 0 basechar 0
AnchorPoint: "Anchor-3" 331 723 basechar 0
AnchorPoint: "Anchor-2" 557 10 basechar 0
LayerCount: 2
Fore
SplineSet
91 723 m 1,0,-1
 554 723 l 1,1,-1
 553 634 l 1,2,-1
 193 634 l 1,3,-1
 193 409 l 1,4,-1
 516 409 l 1,5,-1
 516 321 l 1,6,-1
 193 321 l 1,7,-1
 193 91 l 1,8,-1
 563 90 l 1,9,-1
 563 0 l 1,10,-1
 91 0 l 1,11,-1
 91 723 l 1,0,-1
456 841 m 1,12,-1
 439 791 l 1,13,-1
 185 864 l 1,14,-1
 210 939 l 1,15,-1
 456 841 l 1,12,-1
EndSplineSet
EndChar

StartChar: Eacute
Encoding: 201 201 138
Width: 625
GlyphClass: 2
Flags: W
AnchorPoint: "Anchor-5" 0 0 basechar 0
AnchorPoint: "Anchor-4" 342 0 basechar 0
AnchorPoint: "Anchor-3" 331 723 basechar 0
AnchorPoint: "Anchor-2" 557 10 basechar 0
LayerCount: 2
Fore
SplineSet
91 723 m 1,0,-1
 554 723 l 1,1,-1
 553 634 l 1,2,-1
 193 634 l 1,3,-1
 193 409 l 1,4,-1
 516 409 l 1,5,-1
 516 321 l 1,6,-1
 193 321 l 1,7,-1
 193 91 l 1,8,-1
 563 90 l 1,9,-1
 563 0 l 1,10,-1
 91 0 l 1,11,-1
 91 723 l 1,0,-1
467 864 m 1,12,-1
 213 791 l 1,13,-1
 196 841 l 1,14,-1
 442 939 l 1,15,-1
 467 864 l 1,12,-1
EndSplineSet
EndChar

StartChar: Ecircumflex
Encoding: 202 202 139
Width: 625
GlyphClass: 2
Flags: W
AnchorPoint: "Anchor-5" 0 0 basechar 0
AnchorPoint: "Anchor-4" 342 0 basechar 0
AnchorPoint: "Anchor-3" 331 723 basechar 0
AnchorPoint: "Anchor-2" 557 10 basechar 0
LayerCount: 2
Fore
SplineSet
91 723 m 1,0,-1
 554 723 l 1,1,-1
 553 634 l 1,2,-1
 193 634 l 1,3,-1
 193 409 l 1,4,-1
 516 409 l 1,5,-1
 516 321 l 1,6,-1
 193 321 l 1,7,-1
 193 91 l 1,8,-1
 563 90 l 1,9,-1
 563 0 l 1,10,-1
 91 0 l 1,11,-1
 91 723 l 1,0,-1
330 883 m 1,12,-1
 255 815 l 1,13,-1
 168 815 l 1,14,-1
 295 933 l 1,15,-1
 368 933 l 1,16,-1
 492 815 l 1,17,-1
 400 815 l 1,18,-1
 330 883 l 1,12,-1
EndSplineSet
EndChar

StartChar: Edieresis
Encoding: 203 203 140
Width: 625
GlyphClass: 2
Flags: W
AnchorPoint: "Anchor-5" 0 0 basechar 0
AnchorPoint: "Anchor-4" 342 0 basechar 0
AnchorPoint: "Anchor-3" 331 723 basechar 0
AnchorPoint: "Anchor-2" 557 10 basechar 0
LayerCount: 2
Fore
SplineSet
91 723 m 1,0,-1
 554 723 l 1,1,-1
 553 634 l 1,2,-1
 193 634 l 1,3,-1
 193 409 l 1,4,-1
 516 409 l 1,5,-1
 516 321 l 1,6,-1
 193 321 l 1,7,-1
 193 91 l 1,8,-1
 563 90 l 1,9,-1
 563 0 l 1,10,-1
 91 0 l 1,11,-1
 91 723 l 1,0,-1
299 816 m 1,12,-1
 203 816 l 1,13,-1
 203 929 l 1,14,-1
 299 929 l 1,15,-1
 299 816 l 1,12,-1
459 816 m 1,16,-1
 362 816 l 1,17,-1
 362 929 l 1,18,-1
 459 929 l 1,19,-1
 459 816 l 1,16,-1
EndSplineSet
EndChar

StartChar: Igrave
Encoding: 204 204 141
Width: 283
GlyphClass: 2
Flags: W
AnchorPoint: "Anchor-5" 0 0 basechar 0
AnchorPoint: "Anchor-4" 147 0 basechar 0
AnchorPoint: "Anchor-3" 145 723 basechar 0
AnchorPoint: "Anchor-2" 179 7 basechar 0
LayerCount: 2
Fore
SplineSet
193 723 m 1,0,-1
 193 0 l 1,1,-1
 91 0 l 1,2,-1
 91 723 l 1,3,-1
 193 723 l 1,0,-1
270 841 m 1,4,-1
 253 791 l 1,5,-1
 -1 864 l 1,6,-1
 24 939 l 1,7,-1
 270 841 l 1,4,-1
EndSplineSet
EndChar

StartChar: Iacute
Encoding: 205 205 142
Width: 283
GlyphClass: 2
Flags: W
AnchorPoint: "Anchor-5" 0 0 basechar 0
AnchorPoint: "Anchor-4" 147 0 basechar 0
AnchorPoint: "Anchor-3" 145 723 basechar 0
AnchorPoint: "Anchor-2" 179 7 basechar 0
LayerCount: 2
Fore
SplineSet
193 723 m 1,0,-1
 193 0 l 1,1,-1
 91 0 l 1,2,-1
 91 723 l 1,3,-1
 193 723 l 1,0,-1
281 864 m 1,4,-1
 27 791 l 1,5,-1
 10 841 l 1,6,-1
 256 939 l 1,7,-1
 281 864 l 1,4,-1
EndSplineSet
EndChar

StartChar: Icircumflex
Encoding: 206 206 143
Width: 283
GlyphClass: 2
Flags: W
AnchorPoint: "Anchor-5" 0 0 basechar 0
AnchorPoint: "Anchor-4" 147 0 basechar 0
AnchorPoint: "Anchor-3" 145 723 basechar 0
AnchorPoint: "Anchor-2" 179 7 basechar 0
LayerCount: 2
Fore
SplineSet
193 723 m 1,0,-1
 193 0 l 1,1,-1
 91 0 l 1,2,-1
 91 723 l 1,3,-1
 193 723 l 1,0,-1
144 883 m 1,4,-1
 69 815 l 1,5,-1
 -18 815 l 1,6,-1
 109 933 l 1,7,-1
 182 933 l 1,8,-1
 306 815 l 1,9,-1
 214 815 l 1,10,-1
 144 883 l 1,4,-1
EndSplineSet
EndChar

StartChar: Idieresis
Encoding: 207 207 144
Width: 283
GlyphClass: 2
Flags: W
AnchorPoint: "Anchor-5" 0 0 basechar 0
AnchorPoint: "Anchor-4" 147 0 basechar 0
AnchorPoint: "Anchor-3" 145 723 basechar 0
AnchorPoint: "Anchor-2" 179 7 basechar 0
LayerCount: 2
Fore
SplineSet
193 723 m 1,0,-1
 193 0 l 1,1,-1
 91 0 l 1,2,-1
 91 723 l 1,3,-1
 193 723 l 1,0,-1
113 816 m 1,4,-1
 17 816 l 1,5,-1
 17 929 l 1,6,-1
 113 929 l 1,7,-1
 113 816 l 1,4,-1
273 816 m 1,8,-1
 176 816 l 1,9,-1
 176 929 l 1,10,-1
 273 929 l 1,11,-1
 273 816 l 1,8,-1
EndSplineSet
EndChar

StartChar: Eth
Encoding: 208 208 145
Width: 705
GlyphClass: 2
Flags: W
AnchorPoint: "Anchor-5" 0 0 basechar 0
AnchorPoint: "Anchor-4" 0 0 basechar 0
AnchorPoint: "Anchor-3" 355 723 basechar 0
AnchorPoint: "Anchor-2" 0 0 basechar 0
LayerCount: 2
Fore
SplineSet
565.5 629.5 m 128,-1,1
 656 540 656 540 656 366 c 0,2,3
 656 0 656 0 272 0 c 2,4,-1
 104 0 l 1,5,-1
 104 320 l 1,6,-1
 49 320 l 2,7,8
 40 320 40 320 36 324 c 128,-1,9
 32 328 32 328 32 336 c 2,10,-1
 32 386 l 2,11,12
 32 400 32 400 44 400 c 2,13,-1
 104 400 l 1,14,-1
 104 723 l 1,15,16
 219 723 219 723 280 722 c 0,17,0
 475 719 475 719 565.5 629.5 c 128,-1,1
477.5 152.5 m 128,-1,19
 549 218 549 218 549 365 c 0,20,21
 549 511 549 511 480 574 c 128,-1,22
 411 637 411 637 276 637 c 2,23,-1
 208 637 l 1,24,-1
 208 400 l 1,25,-1
 361 400 l 2,26,27
 372 400 372 400 372 388 c 2,28,-1
 372 338 l 2,29,30
 372 328 372 328 367 324 c 128,-1,31
 362 320 362 320 351 320 c 2,32,-1
 208 320 l 1,33,-1
 208 87 l 1,34,-1
 272 87 l 2,35,18
 406 87 406 87 477.5 152.5 c 128,-1,19
EndSplineSet
EndChar

StartChar: Ntilde
Encoding: 209 209 146
Width: 755
GlyphClass: 2
Flags: W
AnchorPoint: "Anchor-5" 0 0 basechar 0
AnchorPoint: "Anchor-4" 363 0 basechar 0
AnchorPoint: "Anchor-3" 386 723 basechar 0
AnchorPoint: "Anchor-2" 0 0 basechar 0
LayerCount: 2
Fore
SplineSet
664 723 m 1,0,-1
 664 0 l 1,1,-1
 573 0 l 1,2,-1
 193 557 l 1,3,-1
 193 0 l 1,4,-1
 91 0 l 1,5,-1
 91 723 l 1,6,-1
 189 723 l 1,7,-1
 562 176 l 1,8,-1
 562 723 l 1,9,-1
 664 723 l 1,0,-1
453 837 m 0,10,11
 423 837 423 837 383 851 c 0,12,13
 368 856 368 856 352.5 859.5 c 128,-1,14
 337 863 337 863 323 863 c 0,15,16
 304 863 304 863 292 858 c 128,-1,17
 280 853 280 853 262 842 c 0,18,19
 258 839 258 839 254 839 c 128,-1,20
 250 839 250 839 247 847 c 2,21,-1
 236 878 l 2,22,23
 235 880 235 880 235 884 c 0,24,25
 235 889 235 889 241 894 c 0,26,27
 259 909 259 909 276.5 917.5 c 128,-1,28
 294 926 294 926 318 926 c 0,29,30
 335 926 335 926 354.5 921.5 c 128,-1,31
 374 917 374 917 391 911 c 0,32,33
 430 898 430 898 453 898 c 0,34,35
 482 898 482 898 513 918 c 0,36,37
 517 921 517 921 521 921 c 0,38,39
 527 921 527 921 530 913 c 2,40,-1
 540 876 l 1,41,-1
 541 872 l 2,42,43
 541 867 541 867 531 860 c 0,44,45
 500 837 500 837 453 837 c 0,10,11
EndSplineSet
EndChar

StartChar: Ograve
Encoding: 210 210 147
Width: 733
GlyphClass: 2
Flags: W
AnchorPoint: "Anchor-5" 0 0 basechar 0
AnchorPoint: "Anchor-4" 369 0 basechar 0
AnchorPoint: "Anchor-3" 368 723 basechar 0
AnchorPoint: "Anchor-2" 446 9 basechar 0
LayerCount: 2
Fore
SplineSet
198 33.5 m 128,-1,1
 127 77 127 77 88.5 160 c 128,-1,2
 50 243 50 243 50 359 c 0,3,4
 50 476 50 476 89 560.5 c 128,-1,5
 128 645 128 645 199.5 689 c 128,-1,6
 271 733 271 733 368 733 c 0,7,8
 464 733 464 733 535 689 c 128,-1,9
 606 645 606 645 644.5 561 c 128,-1,10
 683 477 683 477 683 360 c 0,11,12
 683 244 683 244 645 161 c 128,-1,13
 607 78 607 78 536 34 c 128,-1,14
 465 -10 465 -10 367 -10 c 128,-1,0
 269 -10 269 -10 198 33.5 c 128,-1,1
571 359 m 0,15,16
 571 504 571 504 518.5 574.5 c 128,-1,17
 466 645 466 645 368 645 c 0,18,19
 269 645 269 645 216 574 c 128,-1,20
 163 503 163 503 163 359 c 0,21,22
 163 216 163 216 216.5 147 c 128,-1,23
 270 78 270 78 369 78 c 0,24,25
 571 78 571 78 571 359 c 0,15,16
493 841 m 1,26,-1
 476 791 l 1,27,-1
 222 864 l 1,28,-1
 247 939 l 1,29,-1
 493 841 l 1,26,-1
EndSplineSet
EndChar

StartChar: Oacute
Encoding: 211 211 148
Width: 733
GlyphClass: 2
Flags: W
AnchorPoint: "Anchor-5" 0 0 basechar 0
AnchorPoint: "Anchor-4" 369 0 basechar 0
AnchorPoint: "Anchor-3" 368 723 basechar 0
AnchorPoint: "Anchor-2" 446 9 basechar 0
LayerCount: 2
Fore
SplineSet
198 33.5 m 128,-1,1
 127 77 127 77 88.5 160 c 128,-1,2
 50 243 50 243 50 359 c 0,3,4
 50 476 50 476 89 560.5 c 128,-1,5
 128 645 128 645 199.5 689 c 128,-1,6
 271 733 271 733 368 733 c 0,7,8
 464 733 464 733 535 689 c 128,-1,9
 606 645 606 645 644.5 561 c 128,-1,10
 683 477 683 477 683 360 c 0,11,12
 683 244 683 244 645 161 c 128,-1,13
 607 78 607 78 536 34 c 128,-1,14
 465 -10 465 -10 367 -10 c 128,-1,0
 269 -10 269 -10 198 33.5 c 128,-1,1
571 359 m 0,15,16
 571 504 571 504 518.5 574.5 c 128,-1,17
 466 645 466 645 368 645 c 0,18,19
 269 645 269 645 216 574 c 128,-1,20
 163 503 163 503 163 359 c 0,21,22
 163 216 163 216 216.5 147 c 128,-1,23
 270 78 270 78 369 78 c 0,24,25
 571 78 571 78 571 359 c 0,15,16
504 864 m 1,26,-1
 250 791 l 1,27,-1
 233 841 l 1,28,-1
 479 939 l 1,29,-1
 504 864 l 1,26,-1
EndSplineSet
EndChar

StartChar: Ocircumflex
Encoding: 212 212 149
Width: 733
GlyphClass: 2
Flags: W
AnchorPoint: "Anchor-5" 0 0 basechar 0
AnchorPoint: "Anchor-4" 369 0 basechar 0
AnchorPoint: "Anchor-3" 368 723 basechar 0
AnchorPoint: "Anchor-2" 446 9 basechar 0
LayerCount: 2
Fore
SplineSet
198 33.5 m 128,-1,1
 127 77 127 77 88.5 160 c 128,-1,2
 50 243 50 243 50 359 c 0,3,4
 50 476 50 476 89 560.5 c 128,-1,5
 128 645 128 645 199.5 689 c 128,-1,6
 271 733 271 733 368 733 c 0,7,8
 464 733 464 733 535 689 c 128,-1,9
 606 645 606 645 644.5 561 c 128,-1,10
 683 477 683 477 683 360 c 0,11,12
 683 244 683 244 645 161 c 128,-1,13
 607 78 607 78 536 34 c 128,-1,14
 465 -10 465 -10 367 -10 c 128,-1,0
 269 -10 269 -10 198 33.5 c 128,-1,1
571 359 m 0,15,16
 571 504 571 504 518.5 574.5 c 128,-1,17
 466 645 466 645 368 645 c 0,18,19
 269 645 269 645 216 574 c 128,-1,20
 163 503 163 503 163 359 c 0,21,22
 163 216 163 216 216.5 147 c 128,-1,23
 270 78 270 78 369 78 c 0,24,25
 571 78 571 78 571 359 c 0,15,16
367 883 m 1,26,-1
 292 815 l 1,27,-1
 205 815 l 1,28,-1
 332 933 l 1,29,-1
 405 933 l 1,30,-1
 529 815 l 1,31,-1
 437 815 l 1,32,-1
 367 883 l 1,26,-1
EndSplineSet
EndChar

StartChar: Otilde
Encoding: 213 213 150
Width: 733
GlyphClass: 2
Flags: W
AnchorPoint: "Anchor-5" 0 0 basechar 0
AnchorPoint: "Anchor-4" 369 0 basechar 0
AnchorPoint: "Anchor-3" 368 723 basechar 0
AnchorPoint: "Anchor-2" 446 9 basechar 0
LayerCount: 2
Fore
SplineSet
198 33.5 m 128,-1,1
 127 77 127 77 88.5 160 c 128,-1,2
 50 243 50 243 50 359 c 0,3,4
 50 476 50 476 89 560.5 c 128,-1,5
 128 645 128 645 199.5 689 c 128,-1,6
 271 733 271 733 368 733 c 0,7,8
 464 733 464 733 535 689 c 128,-1,9
 606 645 606 645 644.5 561 c 128,-1,10
 683 477 683 477 683 360 c 0,11,12
 683 244 683 244 645 161 c 128,-1,13
 607 78 607 78 536 34 c 128,-1,14
 465 -10 465 -10 367 -10 c 128,-1,0
 269 -10 269 -10 198 33.5 c 128,-1,1
571 359 m 0,15,16
 571 504 571 504 518.5 574.5 c 128,-1,17
 466 645 466 645 368 645 c 0,18,19
 269 645 269 645 216 574 c 128,-1,20
 163 503 163 503 163 359 c 0,21,22
 163 216 163 216 216.5 147 c 128,-1,23
 270 78 270 78 369 78 c 0,24,25
 571 78 571 78 571 359 c 0,15,16
435 837 m 0,26,27
 405 837 405 837 365 851 c 0,28,29
 350 856 350 856 334.5 859.5 c 128,-1,30
 319 863 319 863 305 863 c 0,31,32
 286 863 286 863 274 858 c 128,-1,33
 262 853 262 853 244 842 c 0,34,35
 240 839 240 839 236 839 c 128,-1,36
 232 839 232 839 229 847 c 2,37,-1
 218 878 l 2,38,39
 217 880 217 880 217 884 c 0,40,41
 217 889 217 889 223 894 c 0,42,43
 241 909 241 909 258.5 917.5 c 128,-1,44
 276 926 276 926 300 926 c 0,45,46
 317 926 317 926 336.5 921.5 c 128,-1,47
 356 917 356 917 373 911 c 0,48,49
 412 898 412 898 435 898 c 0,50,51
 464 898 464 898 495 918 c 0,52,53
 499 921 499 921 503 921 c 0,54,55
 509 921 509 921 512 913 c 2,56,-1
 522 876 l 1,57,-1
 523 872 l 2,58,59
 523 867 523 867 513 860 c 0,60,61
 482 837 482 837 435 837 c 0,26,27
EndSplineSet
EndChar

StartChar: Odieresis
Encoding: 214 214 151
Width: 733
GlyphClass: 2
Flags: W
AnchorPoint: "Anchor-5" 0 0 basechar 0
AnchorPoint: "Anchor-4" 369 0 basechar 0
AnchorPoint: "Anchor-3" 368 723 basechar 0
AnchorPoint: "Anchor-2" 446 9 basechar 0
LayerCount: 2
Fore
SplineSet
198 33.5 m 128,-1,1
 127 77 127 77 88.5 160 c 128,-1,2
 50 243 50 243 50 359 c 0,3,4
 50 476 50 476 89 560.5 c 128,-1,5
 128 645 128 645 199.5 689 c 128,-1,6
 271 733 271 733 368 733 c 0,7,8
 464 733 464 733 535 689 c 128,-1,9
 606 645 606 645 644.5 561 c 128,-1,10
 683 477 683 477 683 360 c 0,11,12
 683 244 683 244 645 161 c 128,-1,13
 607 78 607 78 536 34 c 128,-1,14
 465 -10 465 -10 367 -10 c 128,-1,0
 269 -10 269 -10 198 33.5 c 128,-1,1
571 359 m 0,15,16
 571 504 571 504 518.5 574.5 c 128,-1,17
 466 645 466 645 368 645 c 0,18,19
 269 645 269 645 216 574 c 128,-1,20
 163 503 163 503 163 359 c 0,21,22
 163 216 163 216 216.5 147 c 128,-1,23
 270 78 270 78 369 78 c 0,24,25
 571 78 571 78 571 359 c 0,15,16
336 816 m 1,26,-1
 240 816 l 1,27,-1
 240 929 l 1,28,-1
 336 929 l 1,29,-1
 336 816 l 1,26,-1
496 816 m 1,30,-1
 399 816 l 1,31,-1
 399 929 l 1,32,-1
 496 929 l 1,33,-1
 496 816 l 1,30,-1
EndSplineSet
EndChar

StartChar: multiply
Encoding: 215 215 152
Width: 546
GlyphClass: 2
Flags: W
LayerCount: 2
Fore
SplineSet
326 364 m 1,0,-1
 483 208 l 1,1,-1
 427 152 l 1,2,-1
 271 308 l 1,3,-1
 115 152 l 1,4,-1
 60 208 l 1,5,-1
 215 364 l 1,6,-1
 59 520 l 1,7,-1
 114 575 l 1,8,-1
 271 419 l 1,9,-1
 427 576 l 1,10,-1
 483 521 l 1,11,-1
 326 364 l 1,0,-1
EndSplineSet
EndChar

StartChar: Oslash
Encoding: 216 216 153
Width: 731
GlyphClass: 2
Flags: W
AnchorPoint: "Anchor-5" 0 0 basechar 0
AnchorPoint: "Anchor-4" 0 0 basechar 0
AnchorPoint: "Anchor-3" 364 723 basechar 0
AnchorPoint: "Anchor-2" 0 0 basechar 0
LayerCount: 2
Fore
SplineSet
710 684 m 128,-1,1
 710 679 710 679 706 676 c 2,2,-1
 627 589 l 1,3,4
 680 497 680 497 680 360 c 0,5,6
 680 244 680 244 642 161 c 128,-1,7
 604 78 604 78 532.5 34 c 128,-1,8
 461 -10 461 -10 364 -10 c 0,9,10
 227 -10 227 -10 147 72 c 1,11,-1
 82 1 l 2,12,13
 75 -7 75 -7 68 -7 c 128,-1,14
 61 -7 61 -7 54 0 c 2,15,-1
 29 25 l 2,16,17
 20 34 20 34 20 39 c 0,18,19
 20 43 20 43 25 48 c 2,20,-1
 100 131 l 1,21,22
 47 221 47 221 47 359 c 0,23,24
 47 476 47 476 85.5 560.5 c 128,-1,25
 124 645 124 645 195.5 689 c 128,-1,26
 267 733 267 733 364 733 c 0,27,28
 500 733 500 733 581 649 c 1,29,-1
 651 724 l 2,30,31
 658 731 658 731 662 731 c 128,-1,32
 666 731 666 731 670 727 c 2,33,-1
 706 693 l 2,34,0
 710 689 710 689 710 684 c 128,-1,1
192 224 m 1,35,-1
 509 575 l 1,36,37
 462 647 462 647 364 647 c 128,-1,38
 266 647 266 647 218 576.5 c 128,-1,39
 170 506 170 506 170 359 c 0,40,41
 170 279 170 279 192 224 c 1,35,-1
534 496 m 1,42,-1
 218 145 l 1,43,44
 267 77 267 77 365 77 c 128,-1,45
 463 77 463 77 509.5 145 c 128,-1,46
 556 213 556 213 556 359 c 0,47,48
 556 442 556 442 534 496 c 1,42,-1
EndSplineSet
EndChar

StartChar: Ugrave
Encoding: 217 217 154
Width: 719
GlyphClass: 2
Flags: W
AnchorPoint: "Anchor-5" 0 0 basechar 0
AnchorPoint: "Anchor-4" 0 0 basechar 0
AnchorPoint: "Anchor-3" 354 723 basechar 0
AnchorPoint: "Anchor-2" 433 10 basechar 0
LayerCount: 2
Fore
SplineSet
563 57.5 m 128,-1,1
 498 -10 498 -10 359 -10 c 0,2,3
 219 -10 219 -10 155 59 c 128,-1,4
 91 128 91 128 91 263 c 2,5,-1
 91 723 l 1,6,-1
 196 723 l 1,7,-1
 196 250 l 2,8,9
 196 165 196 165 238 122 c 128,-1,10
 280 79 280 79 359 79 c 0,11,12
 439 79 439 79 482 121.5 c 128,-1,13
 525 164 525 164 525 250 c 2,14,-1
 525 723 l 1,15,-1
 628 723 l 1,16,-1
 628 254 l 2,17,0
 628 125 628 125 563 57.5 c 128,-1,1
479 841 m 1,18,-1
 462 791 l 1,19,-1
 208 864 l 1,20,-1
 233 939 l 1,21,-1
 479 841 l 1,18,-1
EndSplineSet
EndChar

StartChar: Uacute
Encoding: 218 218 155
Width: 719
GlyphClass: 2
Flags: W
AnchorPoint: "Anchor-5" 0 0 basechar 0
AnchorPoint: "Anchor-4" 0 0 basechar 0
AnchorPoint: "Anchor-3" 354 723 basechar 0
AnchorPoint: "Anchor-2" 433 10 basechar 0
LayerCount: 2
Fore
SplineSet
563 57.5 m 128,-1,1
 498 -10 498 -10 359 -10 c 0,2,3
 219 -10 219 -10 155 59 c 128,-1,4
 91 128 91 128 91 263 c 2,5,-1
 91 723 l 1,6,-1
 196 723 l 1,7,-1
 196 250 l 2,8,9
 196 165 196 165 238 122 c 128,-1,10
 280 79 280 79 359 79 c 0,11,12
 439 79 439 79 482 121.5 c 128,-1,13
 525 164 525 164 525 250 c 2,14,-1
 525 723 l 1,15,-1
 628 723 l 1,16,-1
 628 254 l 2,17,0
 628 125 628 125 563 57.5 c 128,-1,1
490 864 m 1,18,-1
 236 791 l 1,19,-1
 219 841 l 1,20,-1
 465 939 l 1,21,-1
 490 864 l 1,18,-1
EndSplineSet
EndChar

StartChar: Ucircumflex
Encoding: 219 219 156
Width: 719
GlyphClass: 2
Flags: W
AnchorPoint: "Anchor-5" 0 0 basechar 0
AnchorPoint: "Anchor-4" 0 0 basechar 0
AnchorPoint: "Anchor-3" 354 723 basechar 0
AnchorPoint: "Anchor-2" 433 10 basechar 0
LayerCount: 2
Fore
SplineSet
563 57.5 m 128,-1,1
 498 -10 498 -10 359 -10 c 0,2,3
 219 -10 219 -10 155 59 c 128,-1,4
 91 128 91 128 91 263 c 2,5,-1
 91 723 l 1,6,-1
 196 723 l 1,7,-1
 196 250 l 2,8,9
 196 165 196 165 238 122 c 128,-1,10
 280 79 280 79 359 79 c 0,11,12
 439 79 439 79 482 121.5 c 128,-1,13
 525 164 525 164 525 250 c 2,14,-1
 525 723 l 1,15,-1
 628 723 l 1,16,-1
 628 254 l 2,17,0
 628 125 628 125 563 57.5 c 128,-1,1
353 883 m 1,18,-1
 278 815 l 1,19,-1
 191 815 l 1,20,-1
 318 933 l 1,21,-1
 391 933 l 1,22,-1
 515 815 l 1,23,-1
 423 815 l 1,24,-1
 353 883 l 1,18,-1
EndSplineSet
EndChar

StartChar: Udieresis
Encoding: 220 220 157
Width: 719
GlyphClass: 2
Flags: W
AnchorPoint: "Anchor-5" 0 0 basechar 0
AnchorPoint: "Anchor-4" 0 0 basechar 0
AnchorPoint: "Anchor-3" 354 723 basechar 0
AnchorPoint: "Anchor-2" 433 10 basechar 0
LayerCount: 2
Fore
SplineSet
563 57.5 m 128,-1,1
 498 -10 498 -10 359 -10 c 0,2,3
 219 -10 219 -10 155 59 c 128,-1,4
 91 128 91 128 91 263 c 2,5,-1
 91 723 l 1,6,-1
 196 723 l 1,7,-1
 196 250 l 2,8,9
 196 165 196 165 238 122 c 128,-1,10
 280 79 280 79 359 79 c 0,11,12
 439 79 439 79 482 121.5 c 128,-1,13
 525 164 525 164 525 250 c 2,14,-1
 525 723 l 1,15,-1
 628 723 l 1,16,-1
 628 254 l 2,17,0
 628 125 628 125 563 57.5 c 128,-1,1
322 816 m 1,18,-1
 226 816 l 1,19,-1
 226 929 l 1,20,-1
 322 929 l 1,21,-1
 322 816 l 1,18,-1
482 816 m 1,22,-1
 385 816 l 1,23,-1
 385 929 l 1,24,-1
 482 929 l 1,25,-1
 482 816 l 1,22,-1
EndSplineSet
EndChar

StartChar: Yacute
Encoding: 221 221 158
Width: 608
GlyphClass: 2
Flags: W
AnchorPoint: "Anchor-5" 0 0 basechar 0
AnchorPoint: "Anchor-4" 0 0 basechar 0
AnchorPoint: "Anchor-3" 312 723 basechar 0
AnchorPoint: "Anchor-2" 0 0 basechar 0
LayerCount: 2
Fore
SplineSet
356 307 m 1,0,-1
 356 0 l 1,1,-1
 254 0 l 1,2,-1
 254 308 l 1,3,-1
 6 723 l 1,4,-1
 118 723 l 1,5,-1
 305 398 l 1,6,-1
 490 723 l 1,7,-1
 602 723 l 1,8,-1
 356 307 l 1,0,-1
448 864 m 1,9,-1
 194 791 l 1,10,-1
 177 841 l 1,11,-1
 423 939 l 1,12,-1
 448 864 l 1,9,-1
EndSplineSet
EndChar

StartChar: Thorn
Encoding: 222 222 159
Width: 673
GlyphClass: 2
Flags: W
LayerCount: 2
Fore
SplineSet
571.5 215 m 128,-1,1
 501 161 501 161 382 161 c 2,2,-1
 207 161 l 1,3,-1
 207 0 l 1,4,-1
 91 0 l 1,5,-1
 91 723 l 1,6,-1
 207 723 l 1,7,-1
 207 576 l 1,8,-1
 368 576 l 2,9,10
 491 576 491 576 566.5 524.5 c 128,-1,11
 642 473 642 473 642 373 c 0,12,0
 642 269 642 269 571.5 215 c 128,-1,1
479.5 461.5 m 128,-1,14
 437 490 437 490 362 490 c 2,15,-1
 207 490 l 1,16,-1
 207 248 l 1,17,-1
 368 248 l 2,18,19
 441 248 441 248 481.5 279.5 c 128,-1,20
 522 311 522 311 522 374 c 0,21,13
 522 433 522 433 479.5 461.5 c 128,-1,14
EndSplineSet
EndChar

StartChar: germandbls
Encoding: 223 223 160
Width: 611
GlyphClass: 2
Flags: W
LayerCount: 2
Fore
SplineSet
455 684 m 128,-1,1
 500 645 500 645 500 583 c 0,2,3
 500 531 500 531 471 502.5 c 128,-1,4
 442 474 442 474 379 444 c 0,5,6
 349 429 349 429 339 420 c 128,-1,7
 329 411 329 411 329 396 c 128,-1,8
 329 381 329 381 339 374 c 128,-1,9
 349 367 349 367 378 358 c 0,10,11
 441 333 441 333 476.5 314.5 c 128,-1,12
 512 296 512 296 540 259 c 128,-1,13
 568 222 568 222 568 163 c 0,14,15
 568 81 568 81 512.5 35.5 c 128,-1,16
 457 -10 457 -10 368 -10 c 0,17,18
 330 -10 330 -10 293.5 -1 c 128,-1,19
 257 8 257 8 232 24 c 1,20,-1
 267 91 l 1,21,22
 291 76 291 76 312 68.5 c 128,-1,23
 333 61 333 61 362 61 c 0,24,25
 413 61 413 61 443.5 85 c 128,-1,26
 474 109 474 109 474 152 c 0,27,28
 474 183 474 183 459 202.5 c 128,-1,29
 444 222 444 222 420.5 233.5 c 128,-1,30
 397 245 397 245 356 260 c 0,31,32
 306 278 306 278 277.5 303.5 c 128,-1,33
 249 329 249 329 249 376 c 0,34,35
 249 411 249 411 268.5 436 c 128,-1,36
 288 461 288 461 329 486 c 0,37,38
 336 491 336 491 358.5 506 c 128,-1,39
 381 521 381 521 393 539 c 128,-1,40
 405 557 405 557 405 580 c 0,41,42
 405 613 405 613 380.5 632.5 c 128,-1,43
 356 652 356 652 312 652 c 0,44,45
 256 652 256 652 223 618 c 128,-1,46
 190 584 190 584 190 522 c 2,47,-1
 190 0 l 1,48,-1
 90 0 l 1,49,-1
 90 430 l 1,50,-1
 24 430 l 1,51,-1
 24 504 l 1,52,-1
 89 504 l 1,53,54
 91 602 91 602 149.5 662.5 c 128,-1,55
 208 723 208 723 319 723 c 0,56,0
 410 723 410 723 455 684 c 128,-1,1
EndSplineSet
EndChar

StartChar: agrave
Encoding: 224 224 161
Width: 562
GlyphClass: 2
Flags: W
AnchorPoint: "Anchor-5" 0 0 basechar 0
AnchorPoint: "Anchor-4" 0 0 basechar 0
AnchorPoint: "Anchor-3" 281 517 basechar 0
AnchorPoint: "Anchor-2" 471 12 basechar 0
LayerCount: 2
Fore
SplineSet
93.5 30.5 m 128,-1,1
 46 71 46 71 46 141 c 0,2,3
 46 227 46 227 106 267 c 128,-1,4
 166 307 166 307 301 313 c 2,5,-1
 388 319 l 1,6,-1
 388 354 l 2,7,8
 388 400 388 400 359.5 426.5 c 128,-1,9
 331 453 331 453 281 453 c 0,10,11
 195 453 195 453 145 378 c 1,12,-1
 62 390 l 1,13,14
 82 455 82 455 141 491 c 128,-1,15
 200 527 200 527 283 527 c 0,16,17
 384 527 384 527 435 483 c 128,-1,18
 486 439 486 439 486 361 c 2,19,-1
 486 0 l 1,20,-1
 399 0 l 1,21,-1
 392 72 l 1,22,23
 326 -10 326 -10 217 -10 c 0,24,0
 141 -10 141 -10 93.5 30.5 c 128,-1,1
313.5 77.5 m 128,-1,26
 346 93 346 93 367 118 c 128,-1,27
 388 143 388 143 388 170 c 2,28,-1
 388 259 l 1,29,-1
 316 254 l 2,30,31
 227 248 227 248 185.5 226 c 128,-1,32
 144 204 144 204 144 151 c 0,33,34
 144 110 144 110 173 86 c 128,-1,35
 202 62 202 62 248 62 c 0,36,25
 281 62 281 62 313.5 77.5 c 128,-1,26
406 635 m 1,37,-1
 389 585 l 1,38,-1
 135 658 l 1,39,-1
 160 733 l 1,40,-1
 406 635 l 1,37,-1
EndSplineSet
EndChar

StartChar: aacute
Encoding: 225 225 162
Width: 562
GlyphClass: 2
Flags: W
AnchorPoint: "Anchor-5" 0 0 basechar 0
AnchorPoint: "Anchor-4" 0 0 basechar 0
AnchorPoint: "Anchor-3" 281 517 basechar 0
AnchorPoint: "Anchor-2" 471 12 basechar 0
LayerCount: 2
Fore
SplineSet
93.5 30.5 m 128,-1,1
 46 71 46 71 46 141 c 0,2,3
 46 227 46 227 106 267 c 128,-1,4
 166 307 166 307 301 313 c 2,5,-1
 388 319 l 1,6,-1
 388 354 l 2,7,8
 388 400 388 400 359.5 426.5 c 128,-1,9
 331 453 331 453 281 453 c 0,10,11
 195 453 195 453 145 378 c 1,12,-1
 62 390 l 1,13,14
 82 455 82 455 141 491 c 128,-1,15
 200 527 200 527 283 527 c 0,16,17
 384 527 384 527 435 483 c 128,-1,18
 486 439 486 439 486 361 c 2,19,-1
 486 0 l 1,20,-1
 399 0 l 1,21,-1
 392 72 l 1,22,23
 326 -10 326 -10 217 -10 c 0,24,0
 141 -10 141 -10 93.5 30.5 c 128,-1,1
313.5 77.5 m 128,-1,26
 346 93 346 93 367 118 c 128,-1,27
 388 143 388 143 388 170 c 2,28,-1
 388 259 l 1,29,-1
 316 254 l 2,30,31
 227 248 227 248 185.5 226 c 128,-1,32
 144 204 144 204 144 151 c 0,33,34
 144 110 144 110 173 86 c 128,-1,35
 202 62 202 62 248 62 c 0,36,25
 281 62 281 62 313.5 77.5 c 128,-1,26
417 658 m 1,37,-1
 163 585 l 1,38,-1
 146 635 l 1,39,-1
 392 733 l 1,40,-1
 417 658 l 1,37,-1
EndSplineSet
EndChar

StartChar: acircumflex
Encoding: 226 226 163
Width: 562
GlyphClass: 2
Flags: W
AnchorPoint: "Anchor-5" 0 0 basechar 0
AnchorPoint: "Anchor-4" 0 0 basechar 0
AnchorPoint: "Anchor-3" 281 517 basechar 0
AnchorPoint: "Anchor-2" 471 12 basechar 0
LayerCount: 2
Fore
SplineSet
93.5 30.5 m 128,-1,1
 46 71 46 71 46 141 c 0,2,3
 46 227 46 227 106 267 c 128,-1,4
 166 307 166 307 301 313 c 2,5,-1
 388 319 l 1,6,-1
 388 354 l 2,7,8
 388 400 388 400 359.5 426.5 c 128,-1,9
 331 453 331 453 281 453 c 0,10,11
 195 453 195 453 145 378 c 1,12,-1
 62 390 l 1,13,14
 82 455 82 455 141 491 c 128,-1,15
 200 527 200 527 283 527 c 0,16,17
 384 527 384 527 435 483 c 128,-1,18
 486 439 486 439 486 361 c 2,19,-1
 486 0 l 1,20,-1
 399 0 l 1,21,-1
 392 72 l 1,22,23
 326 -10 326 -10 217 -10 c 0,24,0
 141 -10 141 -10 93.5 30.5 c 128,-1,1
313.5 77.5 m 128,-1,26
 346 93 346 93 367 118 c 128,-1,27
 388 143 388 143 388 170 c 2,28,-1
 388 259 l 1,29,-1
 316 254 l 2,30,31
 227 248 227 248 185.5 226 c 128,-1,32
 144 204 144 204 144 151 c 0,33,34
 144 110 144 110 173 86 c 128,-1,35
 202 62 202 62 248 62 c 0,36,25
 281 62 281 62 313.5 77.5 c 128,-1,26
280 677 m 1,37,-1
 205 609 l 1,38,-1
 118 609 l 1,39,-1
 245 727 l 1,40,-1
 318 727 l 1,41,-1
 442 609 l 1,42,-1
 350 609 l 1,43,-1
 280 677 l 1,37,-1
EndSplineSet
EndChar

StartChar: atilde
Encoding: 227 227 164
Width: 562
GlyphClass: 2
Flags: W
AnchorPoint: "Anchor-5" 0 0 basechar 0
AnchorPoint: "Anchor-4" 0 0 basechar 0
AnchorPoint: "Anchor-3" 281 517 basechar 0
AnchorPoint: "Anchor-2" 471 12 basechar 0
LayerCount: 2
Fore
SplineSet
93.5 30.5 m 128,-1,1
 46 71 46 71 46 141 c 0,2,3
 46 227 46 227 106 267 c 128,-1,4
 166 307 166 307 301 313 c 2,5,-1
 388 319 l 1,6,-1
 388 354 l 2,7,8
 388 400 388 400 359.5 426.5 c 128,-1,9
 331 453 331 453 281 453 c 0,10,11
 195 453 195 453 145 378 c 1,12,-1
 62 390 l 1,13,14
 82 455 82 455 141 491 c 128,-1,15
 200 527 200 527 283 527 c 0,16,17
 384 527 384 527 435 483 c 128,-1,18
 486 439 486 439 486 361 c 2,19,-1
 486 0 l 1,20,-1
 399 0 l 1,21,-1
 392 72 l 1,22,23
 326 -10 326 -10 217 -10 c 0,24,0
 141 -10 141 -10 93.5 30.5 c 128,-1,1
313.5 77.5 m 128,-1,26
 346 93 346 93 367 118 c 128,-1,27
 388 143 388 143 388 170 c 2,28,-1
 388 259 l 1,29,-1
 316 254 l 2,30,31
 227 248 227 248 185.5 226 c 128,-1,32
 144 204 144 204 144 151 c 0,33,34
 144 110 144 110 173 86 c 128,-1,35
 202 62 202 62 248 62 c 0,36,25
 281 62 281 62 313.5 77.5 c 128,-1,26
348 631 m 0,37,38
 318 631 318 631 278 645 c 0,39,40
 263 650 263 650 247.5 653.5 c 128,-1,41
 232 657 232 657 218 657 c 0,42,43
 199 657 199 657 187 652 c 128,-1,44
 175 647 175 647 157 636 c 0,45,46
 153 633 153 633 149 633 c 128,-1,47
 145 633 145 633 142 641 c 2,48,-1
 131 672 l 2,49,50
 130 674 130 674 130 678 c 0,51,52
 130 683 130 683 136 688 c 0,53,54
 154 703 154 703 171.5 711.5 c 128,-1,55
 189 720 189 720 213 720 c 0,56,57
 230 720 230 720 249.5 715.5 c 128,-1,58
 269 711 269 711 286 705 c 0,59,60
 325 692 325 692 348 692 c 0,61,62
 377 692 377 692 408 712 c 0,63,64
 412 715 412 715 416 715 c 0,65,66
 422 715 422 715 425 707 c 2,67,-1
 435 670 l 1,68,-1
 436 666 l 2,69,70
 436 661 436 661 426 654 c 0,71,72
 395 631 395 631 348 631 c 0,37,38
EndSplineSet
EndChar

StartChar: adieresis
Encoding: 228 228 165
Width: 562
GlyphClass: 2
Flags: W
AnchorPoint: "Anchor-5" 0 0 basechar 0
AnchorPoint: "Anchor-4" 0 0 basechar 0
AnchorPoint: "Anchor-3" 281 517 basechar 0
AnchorPoint: "Anchor-2" 471 12 basechar 0
LayerCount: 2
Fore
SplineSet
93.5 30.5 m 128,-1,1
 46 71 46 71 46 141 c 0,2,3
 46 227 46 227 106 267 c 128,-1,4
 166 307 166 307 301 313 c 2,5,-1
 388 319 l 1,6,-1
 388 354 l 2,7,8
 388 400 388 400 359.5 426.5 c 128,-1,9
 331 453 331 453 281 453 c 0,10,11
 195 453 195 453 145 378 c 1,12,-1
 62 390 l 1,13,14
 82 455 82 455 141 491 c 128,-1,15
 200 527 200 527 283 527 c 0,16,17
 384 527 384 527 435 483 c 128,-1,18
 486 439 486 439 486 361 c 2,19,-1
 486 0 l 1,20,-1
 399 0 l 1,21,-1
 392 72 l 1,22,23
 326 -10 326 -10 217 -10 c 0,24,0
 141 -10 141 -10 93.5 30.5 c 128,-1,1
313.5 77.5 m 128,-1,26
 346 93 346 93 367 118 c 128,-1,27
 388 143 388 143 388 170 c 2,28,-1
 388 259 l 1,29,-1
 316 254 l 2,30,31
 227 248 227 248 185.5 226 c 128,-1,32
 144 204 144 204 144 151 c 0,33,34
 144 110 144 110 173 86 c 128,-1,35
 202 62 202 62 248 62 c 0,36,25
 281 62 281 62 313.5 77.5 c 128,-1,26
249 610 m 1,37,-1
 153 610 l 1,38,-1
 153 723 l 1,39,-1
 249 723 l 1,40,-1
 249 610 l 1,37,-1
409 610 m 1,41,-1
 312 610 l 1,42,-1
 312 723 l 1,43,-1
 409 723 l 1,44,-1
 409 610 l 1,41,-1
EndSplineSet
EndChar

StartChar: aring
Encoding: 229 229 166
Width: 562
GlyphClass: 2
Flags: W
AnchorPoint: "Anchor-5" 0 0 basechar 0
AnchorPoint: "Anchor-4" 0 0 basechar 0
AnchorPoint: "Anchor-3" 281 517 basechar 0
AnchorPoint: "Anchor-2" 471 12 basechar 0
LayerCount: 2
Fore
SplineSet
93.5 30.5 m 128,-1,1
 46 71 46 71 46 141 c 0,2,3
 46 227 46 227 106 267 c 128,-1,4
 166 307 166 307 301 313 c 2,5,-1
 388 319 l 1,6,-1
 388 354 l 2,7,8
 388 400 388 400 359.5 426.5 c 128,-1,9
 331 453 331 453 281 453 c 0,10,11
 195 453 195 453 145 378 c 1,12,-1
 62 390 l 1,13,14
 82 455 82 455 141 491 c 128,-1,15
 200 527 200 527 283 527 c 0,16,17
 384 527 384 527 435 483 c 128,-1,18
 486 439 486 439 486 361 c 2,19,-1
 486 0 l 1,20,-1
 399 0 l 1,21,-1
 392 72 l 1,22,23
 326 -10 326 -10 217 -10 c 0,24,0
 141 -10 141 -10 93.5 30.5 c 128,-1,1
313.5 77.5 m 128,-1,26
 346 93 346 93 367 118 c 128,-1,27
 388 143 388 143 388 170 c 2,28,-1
 388 259 l 1,29,-1
 316 254 l 2,30,31
 227 248 227 248 185.5 226 c 128,-1,32
 144 204 144 204 144 151 c 0,33,34
 144 110 144 110 173 86 c 128,-1,35
 202 62 202 62 248 62 c 0,36,25
 281 62 281 62 313.5 77.5 c 128,-1,26
355 605 m 128,-1,38
 325 575 325 575 281 575 c 128,-1,39
 237 575 237 575 207 605.5 c 128,-1,40
 177 636 177 636 177 680 c 0,41,42
 177 722 177 722 207.5 751.5 c 128,-1,43
 238 781 238 781 281 781 c 0,44,45
 325 781 325 781 355 751 c 128,-1,46
 385 721 385 721 385 678 c 128,-1,37
 385 635 385 635 355 605 c 128,-1,38
317 716 m 128,-1,48
 302 731 302 731 280 731 c 128,-1,49
 258 731 258 731 242 716 c 128,-1,50
 226 701 226 701 226 678 c 0,51,52
 226 657 226 657 242 640.5 c 128,-1,53
 258 624 258 624 280 624 c 0,54,55
 301 624 301 624 316.5 640.5 c 128,-1,56
 332 657 332 657 332 678 c 0,57,47
 332 701 332 701 317 716 c 128,-1,48
EndSplineSet
EndChar

StartChar: ae
Encoding: 230 230 167
Width: 921
GlyphClass: 2
Flags: W
AnchorPoint: "Anchor-5" 0 0 basechar 0
AnchorPoint: "Anchor-4" 0 0 basechar 0
AnchorPoint: "Anchor-3" 454 517 basechar 0
AnchorPoint: "Anchor-2" 0 0 basechar 0
LayerCount: 2
Fore
SplineSet
512 152.5 m 128,-1,1
 533 113 533 113 569 88.5 c 128,-1,2
 605 64 605 64 647 64 c 0,3,4
 699 64 699 64 732.5 85.5 c 128,-1,5
 766 107 766 107 799 148 c 1,6,-1
 866 115 l 1,7,8
 790 -10 790 -10 635 -10 c 0,9,10
 565 -10 565 -10 517.5 18.5 c 128,-1,11
 470 47 470 47 435 90 c 0,12,13
 431 96 431 96 428 90 c 0,14,15
 386 44 386 44 336.5 17 c 128,-1,16
 287 -10 287 -10 211 -10 c 0,17,18
 133 -10 133 -10 89.5 29 c 128,-1,19
 46 68 46 68 46 135 c 0,20,21
 46 211 46 211 109.5 256 c 128,-1,22
 173 301 173 301 298 309 c 2,23,-1
 390 316 l 1,24,-1
 390 354 l 2,25,26
 390 403 390 403 361.5 430 c 128,-1,27
 333 457 333 457 278 457 c 0,28,29
 197 457 197 457 145 375 c 1,30,-1
 59 401 l 1,31,32
 91 463 91 463 146 495 c 128,-1,33
 201 527 201 527 284 527 c 0,34,35
 419 527 419 527 460 442 c 1,36,37
 490 484 490 484 535 505.5 c 128,-1,38
 580 527 580 527 636 527 c 0,39,40
 707 527 707 527 761 493 c 128,-1,41
 815 459 815 459 845.5 393.5 c 128,-1,42
 876 328 876 328 876 238 c 1,43,-1
 491 237 l 1,44,0
 491 192 491 192 512 152.5 c 128,-1,1
534.5 415 m 128,-1,46
 493 372 493 372 493 301 c 1,47,-1
 775 300 l 1,48,49
 775 341 775 341 758 377 c 128,-1,50
 741 413 741 413 709.5 435.5 c 128,-1,51
 678 458 678 458 637 458 c 0,52,45
 576 458 576 458 534.5 415 c 128,-1,46
314 250 m 2,53,54
 236 244 236 244 192 216.5 c 128,-1,55
 148 189 148 189 148 142 c 0,56,57
 148 104 148 104 173.5 81.5 c 128,-1,58
 199 59 199 59 244 59 c 0,59,60
 282 59 282 59 316 73.5 c 128,-1,61
 350 88 350 88 370 112.5 c 128,-1,62
 390 137 390 137 390 166 c 2,63,-1
 390 255 l 1,64,-1
 314 250 l 2,53,54
EndSplineSet
EndChar

StartChar: ccedilla
Encoding: 231 231 168
Width: 537
GlyphClass: 2
Flags: W
AnchorPoint: "Anchor-5" 0 0 basechar 0
AnchorPoint: "Anchor-4" 285 0 basechar 0
AnchorPoint: "Anchor-3" 284 517 basechar 0
AnchorPoint: "Anchor-2" 0 0 basechar 0
LayerCount: 2
Fore
SplineSet
413.5 484.5 m 128,-1,1
 464 442 464 442 487 371 c 1,2,-1
 403 358 l 1,3,4
 372 406 372 406 349 426 c 128,-1,5
 326 446 326 446 288 446 c 0,6,7
 221 446 221 446 181.5 395.5 c 128,-1,8
 142 345 142 345 142 258 c 0,9,10
 142 170 142 170 182 118 c 128,-1,11
 222 66 222 66 289 66 c 0,12,13
 331 66 331 66 358.5 90.5 c 128,-1,14
 386 115 386 115 409 160 c 1,15,-1
 491 147 l 1,16,17
 468 75 468 75 415 32.5 c 128,-1,18
 362 -10 362 -10 284 -10 c 0,19,20
 213 -10 213 -10 159 23.5 c 128,-1,21
 105 57 105 57 75 117.5 c 128,-1,22
 45 178 45 178 45 256 c 0,23,24
 45 335 45 335 75 396.5 c 128,-1,25
 105 458 105 458 159 492.5 c 128,-1,26
 213 527 213 527 284 527 c 0,27,0
 363 527 363 527 413.5 484.5 c 128,-1,1
350 -186 m 128,-1,29
 318 -207 318 -207 272 -207 c 0,30,31
 212 -207 212 -207 173 -182 c 1,32,-1
 189 -141 l 1,33,34
 222 -165 222 -165 259 -165 c 0,35,36
 313 -165 313 -165 313 -129 c 0,37,38
 313 -108 313 -108 293.5 -97.5 c 128,-1,39
 274 -87 274 -87 232 -86 c 0,40,41
 222 -86 222 -86 225 -79 c 2,42,-1
 262 5 l 1,43,-1
 314 5 l 1,44,-1
 290 -55 l 1,45,46
 338 -57 338 -57 360 -78.5 c 128,-1,47
 382 -100 382 -100 382 -129 c 0,48,28
 382 -165 382 -165 350 -186 c 128,-1,29
EndSplineSet
EndChar

StartChar: egrave
Encoding: 232 232 169
Width: 558
GlyphClass: 2
Flags: W
AnchorPoint: "Anchor-5" 0 0 basechar 0
AnchorPoint: "Anchor-4" 280 0 basechar 0
AnchorPoint: "Anchor-3" 284 517 basechar 0
AnchorPoint: "Anchor-2" 392 21 basechar 0
LayerCount: 2
Fore
SplineSet
185.5 114.5 m 128,-1,1
 223 68 223 68 291 68 c 0,2,3
 386 68 386 68 414 144 c 1,4,-1
 506 134 l 1,5,6
 490 68 490 68 430.5 29 c 128,-1,7
 371 -10 371 -10 293 -10 c 0,8,9
 220 -10 220 -10 164 21.5 c 128,-1,10
 108 53 108 53 76.5 113 c 128,-1,11
 45 173 45 173 45 253 c 0,12,13
 45 334 45 334 73.5 396 c 128,-1,14
 102 458 102 458 156 492.5 c 128,-1,15
 210 527 210 527 284 527 c 0,16,17
 393 527 393 527 452.5 458 c 128,-1,18
 512 389 512 389 512 270 c 2,19,-1
 512 234 l 1,20,-1
 148 234 l 1,21,0
 148 161 148 161 185.5 114.5 c 128,-1,1
415 302 m 1,22,23
 415 368 415 368 381 409.5 c 128,-1,24
 347 451 347 451 283 451 c 0,25,26
 240 451 240 451 209.5 429.5 c 128,-1,27
 179 408 179 408 163.5 374 c 128,-1,28
 148 340 148 340 148 302 c 1,29,-1
 415 302 l 1,22,23
409 635 m 1,30,-1
 392 585 l 1,31,-1
 138 658 l 1,32,-1
 163 733 l 1,33,-1
 409 635 l 1,30,-1
EndSplineSet
EndChar

StartChar: eacute
Encoding: 233 233 170
Width: 558
GlyphClass: 2
Flags: W
AnchorPoint: "Anchor-5" 0 0 basechar 0
AnchorPoint: "Anchor-4" 280 0 basechar 0
AnchorPoint: "Anchor-3" 284 517 basechar 0
AnchorPoint: "Anchor-2" 392 21 basechar 0
LayerCount: 2
Fore
SplineSet
185.5 114.5 m 128,-1,1
 223 68 223 68 291 68 c 0,2,3
 386 68 386 68 414 144 c 1,4,-1
 506 134 l 1,5,6
 490 68 490 68 430.5 29 c 128,-1,7
 371 -10 371 -10 293 -10 c 0,8,9
 220 -10 220 -10 164 21.5 c 128,-1,10
 108 53 108 53 76.5 113 c 128,-1,11
 45 173 45 173 45 253 c 0,12,13
 45 334 45 334 73.5 396 c 128,-1,14
 102 458 102 458 156 492.5 c 128,-1,15
 210 527 210 527 284 527 c 0,16,17
 393 527 393 527 452.5 458 c 128,-1,18
 512 389 512 389 512 270 c 2,19,-1
 512 234 l 1,20,-1
 148 234 l 1,21,0
 148 161 148 161 185.5 114.5 c 128,-1,1
415 302 m 1,22,23
 415 368 415 368 381 409.5 c 128,-1,24
 347 451 347 451 283 451 c 0,25,26
 240 451 240 451 209.5 429.5 c 128,-1,27
 179 408 179 408 163.5 374 c 128,-1,28
 148 340 148 340 148 302 c 1,29,-1
 415 302 l 1,22,23
420 658 m 1,30,-1
 166 585 l 1,31,-1
 149 635 l 1,32,-1
 395 733 l 1,33,-1
 420 658 l 1,30,-1
EndSplineSet
EndChar

StartChar: ecircumflex
Encoding: 234 234 171
Width: 558
GlyphClass: 2
Flags: W
AnchorPoint: "Anchor-5" 0 0 basechar 0
AnchorPoint: "Anchor-4" 280 0 basechar 0
AnchorPoint: "Anchor-3" 284 517 basechar 0
AnchorPoint: "Anchor-2" 392 21 basechar 0
LayerCount: 2
Fore
SplineSet
185.5 114.5 m 128,-1,1
 223 68 223 68 291 68 c 0,2,3
 386 68 386 68 414 144 c 1,4,-1
 506 134 l 1,5,6
 490 68 490 68 430.5 29 c 128,-1,7
 371 -10 371 -10 293 -10 c 0,8,9
 220 -10 220 -10 164 21.5 c 128,-1,10
 108 53 108 53 76.5 113 c 128,-1,11
 45 173 45 173 45 253 c 0,12,13
 45 334 45 334 73.5 396 c 128,-1,14
 102 458 102 458 156 492.5 c 128,-1,15
 210 527 210 527 284 527 c 0,16,17
 393 527 393 527 452.5 458 c 128,-1,18
 512 389 512 389 512 270 c 2,19,-1
 512 234 l 1,20,-1
 148 234 l 1,21,0
 148 161 148 161 185.5 114.5 c 128,-1,1
415 302 m 1,22,23
 415 368 415 368 381 409.5 c 128,-1,24
 347 451 347 451 283 451 c 0,25,26
 240 451 240 451 209.5 429.5 c 128,-1,27
 179 408 179 408 163.5 374 c 128,-1,28
 148 340 148 340 148 302 c 1,29,-1
 415 302 l 1,22,23
283 677 m 1,30,-1
 208 609 l 1,31,-1
 121 609 l 1,32,-1
 248 727 l 1,33,-1
 321 727 l 1,34,-1
 445 609 l 1,35,-1
 353 609 l 1,36,-1
 283 677 l 1,30,-1
EndSplineSet
EndChar

StartChar: edieresis
Encoding: 235 235 172
Width: 558
GlyphClass: 2
Flags: W
AnchorPoint: "Anchor-5" 0 0 basechar 0
AnchorPoint: "Anchor-4" 280 0 basechar 0
AnchorPoint: "Anchor-3" 284 517 basechar 0
AnchorPoint: "Anchor-2" 392 21 basechar 0
LayerCount: 2
Fore
SplineSet
185.5 114.5 m 128,-1,1
 223 68 223 68 291 68 c 0,2,3
 386 68 386 68 414 144 c 1,4,-1
 506 134 l 1,5,6
 490 68 490 68 430.5 29 c 128,-1,7
 371 -10 371 -10 293 -10 c 0,8,9
 220 -10 220 -10 164 21.5 c 128,-1,10
 108 53 108 53 76.5 113 c 128,-1,11
 45 173 45 173 45 253 c 0,12,13
 45 334 45 334 73.5 396 c 128,-1,14
 102 458 102 458 156 492.5 c 128,-1,15
 210 527 210 527 284 527 c 0,16,17
 393 527 393 527 452.5 458 c 128,-1,18
 512 389 512 389 512 270 c 2,19,-1
 512 234 l 1,20,-1
 148 234 l 1,21,0
 148 161 148 161 185.5 114.5 c 128,-1,1
415 302 m 1,22,23
 415 368 415 368 381 409.5 c 128,-1,24
 347 451 347 451 283 451 c 0,25,26
 240 451 240 451 209.5 429.5 c 128,-1,27
 179 408 179 408 163.5 374 c 128,-1,28
 148 340 148 340 148 302 c 1,29,-1
 415 302 l 1,22,23
252 610 m 1,30,-1
 156 610 l 1,31,-1
 156 723 l 1,32,-1
 252 723 l 1,33,-1
 252 610 l 1,30,-1
412 610 m 1,34,-1
 315 610 l 1,35,-1
 315 723 l 1,36,-1
 412 723 l 1,37,-1
 412 610 l 1,34,-1
EndSplineSet
EndChar

StartChar: igrave
Encoding: 236 236 173
Width: 255
GlyphClass: 2
Flags: W
AnchorPoint: "Anchor-5" 0 0 basechar 0
AnchorPoint: "Anchor-4" 0 0 basechar 0
AnchorPoint: "Anchor-3" 129 517 basechar 0
AnchorPoint: "Anchor-2" 162 11 basechar 0
LayerCount: 2
Fore
SplineSet
179 0 m 1,0,-1
 76 0 l 1,1,-1
 76 517 l 1,2,-1
 179 517 l 1,3,-1
 179 0 l 1,0,-1
254 635 m 1,4,-1
 237 585 l 1,5,-1
 -17 658 l 1,6,-1
 8 733 l 1,7,-1
 254 635 l 1,4,-1
EndSplineSet
EndChar

StartChar: iacute
Encoding: 237 237 174
Width: 255
GlyphClass: 2
Flags: W
AnchorPoint: "Anchor-5" 0 0 basechar 0
AnchorPoint: "Anchor-4" 0 0 basechar 0
AnchorPoint: "Anchor-3" 129 517 basechar 0
AnchorPoint: "Anchor-2" 162 11 basechar 0
LayerCount: 2
Fore
SplineSet
179 0 m 1,0,-1
 76 0 l 1,1,-1
 76 517 l 1,2,-1
 179 517 l 1,3,-1
 179 0 l 1,0,-1
265 658 m 1,4,-1
 11 585 l 1,5,-1
 -6 635 l 1,6,-1
 240 733 l 1,7,-1
 265 658 l 1,4,-1
EndSplineSet
EndChar

StartChar: icircumflex
Encoding: 238 238 175
Width: 255
GlyphClass: 2
Flags: W
AnchorPoint: "Anchor-5" 0 0 basechar 0
AnchorPoint: "Anchor-4" 0 0 basechar 0
AnchorPoint: "Anchor-3" 129 517 basechar 0
AnchorPoint: "Anchor-2" 162 11 basechar 0
LayerCount: 2
Fore
SplineSet
179 0 m 1,0,-1
 76 0 l 1,1,-1
 76 517 l 1,2,-1
 179 517 l 1,3,-1
 179 0 l 1,0,-1
128 677 m 1,4,-1
 53 609 l 1,5,-1
 -34 609 l 1,6,-1
 93 727 l 1,7,-1
 166 727 l 1,8,-1
 290 609 l 1,9,-1
 198 609 l 1,10,-1
 128 677 l 1,4,-1
EndSplineSet
EndChar

StartChar: idieresis
Encoding: 239 239 176
Width: 255
GlyphClass: 2
Flags: W
AnchorPoint: "Anchor-5" 0 0 basechar 0
AnchorPoint: "Anchor-4" 0 0 basechar 0
AnchorPoint: "Anchor-3" 129 517 basechar 0
AnchorPoint: "Anchor-2" 162 11 basechar 0
LayerCount: 2
Fore
SplineSet
179 0 m 1,0,-1
 76 0 l 1,1,-1
 76 517 l 1,2,-1
 179 517 l 1,3,-1
 179 0 l 1,0,-1
97 610 m 1,4,-1
 1 610 l 1,5,-1
 1 723 l 1,6,-1
 97 723 l 1,7,-1
 97 610 l 1,4,-1
257 610 m 1,8,-1
 160 610 l 1,9,-1
 160 723 l 1,10,-1
 257 723 l 1,11,-1
 257 610 l 1,8,-1
EndSplineSet
EndChar

StartChar: eth
Encoding: 240 240 177
Width: 593
GlyphClass: 2
Flags: W
LayerCount: 2
Fore
SplineSet
517 118 m 128,-1,1
 486 57 486 57 429 23.5 c 128,-1,2
 372 -10 372 -10 295 -10 c 0,3,4
 222 -10 222 -10 165 23 c 128,-1,5
 108 56 108 56 76.5 114.5 c 128,-1,6
 45 173 45 173 45 246 c 0,7,8
 45 321 45 321 77 380.5 c 128,-1,9
 109 440 109 440 165 473.5 c 128,-1,10
 221 507 221 507 291 507 c 0,11,12
 354 507 354 507 392 469 c 1,13,14
 353 551 353 551 268 609 c 1,15,-1
 122 527 l 1,16,-1
 98 567 l 1,17,-1
 224 636 l 1,18,19
 180 661 180 661 114 686 c 1,20,-1
 176 734 l 1,21,22
 240 713 240 713 302 681 c 1,23,-1
 401 736 l 1,24,-1
 423 695 l 1,25,-1
 347 652 l 1,26,27
 449 582 449 582 498.5 482 c 128,-1,28
 548 382 548 382 548 260 c 0,29,0
 548 179 548 179 517 118 c 128,-1,1
403.5 114 m 128,-1,31
 443 165 443 165 443 249 c 0,32,33
 443 332 443 332 403 384 c 128,-1,34
 363 436 363 436 297 436 c 128,-1,35
 231 436 231 436 190.5 384 c 128,-1,36
 150 332 150 332 150 249 c 128,-1,37
 150 166 150 166 190.5 114.5 c 128,-1,38
 231 63 231 63 298 63 c 0,39,30
 364 63 364 63 403.5 114 c 128,-1,31
EndSplineSet
EndChar

StartChar: ntilde
Encoding: 241 241 178
Width: 593
GlyphClass: 2
Flags: W
AnchorPoint: "Anchor-5" 0 0 basechar 0
AnchorPoint: "Anchor-4" 297 0 basechar 0
AnchorPoint: "Anchor-3" 303 517 basechar 0
AnchorPoint: "Anchor-2" 0 0 basechar 0
LayerCount: 2
Fore
SplineSet
76 517 m 1,0,-1
 176 517 l 1,1,-1
 176 446 l 1,2,3
 229 524 229 524 336 524 c 0,4,5
 386 524 386 524 427 502.5 c 128,-1,6
 468 481 468 481 492.5 439.5 c 128,-1,7
 517 398 517 398 517 341 c 2,8,-1
 517 0 l 1,9,-1
 414 0 l 1,10,-1
 414 330 l 2,11,12
 414 382 414 382 384.5 411.5 c 128,-1,13
 355 441 355 441 306 441 c 0,14,15
 252 441 252 441 215.5 416 c 128,-1,16
 179 391 179 391 179 345 c 2,17,-1
 179 0 l 1,18,-1
 76 0 l 1,19,-1
 76 517 l 1,0,-1
370 631 m 0,20,21
 340 631 340 631 300 645 c 0,22,23
 285 650 285 650 269.5 653.5 c 128,-1,24
 254 657 254 657 240 657 c 0,25,26
 221 657 221 657 209 652 c 128,-1,27
 197 647 197 647 179 636 c 0,28,29
 175 633 175 633 171 633 c 128,-1,30
 167 633 167 633 164 641 c 2,31,-1
 153 672 l 2,32,33
 152 674 152 674 152 678 c 0,34,35
 152 683 152 683 158 688 c 0,36,37
 176 703 176 703 193.5 711.5 c 128,-1,38
 211 720 211 720 235 720 c 0,39,40
 252 720 252 720 271.5 715.5 c 128,-1,41
 291 711 291 711 308 705 c 0,42,43
 347 692 347 692 370 692 c 0,44,45
 399 692 399 692 430 712 c 0,46,47
 434 715 434 715 438 715 c 0,48,49
 444 715 444 715 447 707 c 2,50,-1
 457 670 l 1,51,-1
 458 666 l 2,52,53
 458 661 458 661 448 654 c 0,54,55
 417 631 417 631 370 631 c 0,20,21
EndSplineSet
EndChar

StartChar: ograve
Encoding: 242 242 179
Width: 568
GlyphClass: 2
Flags: W
AnchorPoint: "Anchor-5" 0 0 basechar 0
AnchorPoint: "Anchor-4" 283 0 basechar 0
AnchorPoint: "Anchor-3" 286 517 basechar 0
AnchorPoint: "Anchor-2" 352 10 basechar 0
LayerCount: 2
Fore
SplineSet
156 23.5 m 128,-1,1
 102 57 102 57 73.5 117 c 128,-1,2
 45 177 45 177 45 255 c 0,3,4
 45 335 45 335 74.5 396.5 c 128,-1,5
 104 458 104 458 158.5 492.5 c 128,-1,6
 213 527 213 527 285 527 c 0,7,8
 359 527 359 527 412.5 492.5 c 128,-1,9
 466 458 466 458 494.5 396.5 c 128,-1,10
 523 335 523 335 523 256 c 0,11,12
 523 178 523 178 494.5 117.5 c 128,-1,13
 466 57 466 57 412 23.5 c 128,-1,14
 358 -10 358 -10 284 -10 c 128,-1,0
 210 -10 210 -10 156 23.5 c 128,-1,1
388 122 m 128,-1,16
 422 175 422 175 422 259 c 128,-1,17
 422 343 422 343 388 395.5 c 128,-1,18
 354 448 354 448 285 448 c 128,-1,19
 216 448 216 448 181.5 395.5 c 128,-1,20
 147 343 147 343 147 259 c 128,-1,21
 147 175 147 175 181.5 122 c 128,-1,22
 216 69 216 69 286 69 c 0,23,15
 354 69 354 69 388 122 c 128,-1,16
411 635 m 1,24,-1
 394 585 l 1,25,-1
 140 658 l 1,26,-1
 165 733 l 1,27,-1
 411 635 l 1,24,-1
EndSplineSet
EndChar

StartChar: oacute
Encoding: 243 243 180
Width: 568
GlyphClass: 2
Flags: W
AnchorPoint: "Anchor-5" 0 0 basechar 0
AnchorPoint: "Anchor-4" 283 0 basechar 0
AnchorPoint: "Anchor-3" 286 517 basechar 0
AnchorPoint: "Anchor-2" 352 10 basechar 0
LayerCount: 2
Fore
SplineSet
156 23.5 m 128,-1,1
 102 57 102 57 73.5 117 c 128,-1,2
 45 177 45 177 45 255 c 0,3,4
 45 335 45 335 74.5 396.5 c 128,-1,5
 104 458 104 458 158.5 492.5 c 128,-1,6
 213 527 213 527 285 527 c 0,7,8
 359 527 359 527 412.5 492.5 c 128,-1,9
 466 458 466 458 494.5 396.5 c 128,-1,10
 523 335 523 335 523 256 c 0,11,12
 523 178 523 178 494.5 117.5 c 128,-1,13
 466 57 466 57 412 23.5 c 128,-1,14
 358 -10 358 -10 284 -10 c 128,-1,0
 210 -10 210 -10 156 23.5 c 128,-1,1
388 122 m 128,-1,16
 422 175 422 175 422 259 c 128,-1,17
 422 343 422 343 388 395.5 c 128,-1,18
 354 448 354 448 285 448 c 128,-1,19
 216 448 216 448 181.5 395.5 c 128,-1,20
 147 343 147 343 147 259 c 128,-1,21
 147 175 147 175 181.5 122 c 128,-1,22
 216 69 216 69 286 69 c 0,23,15
 354 69 354 69 388 122 c 128,-1,16
422 658 m 1,24,-1
 168 585 l 1,25,-1
 151 635 l 1,26,-1
 397 733 l 1,27,-1
 422 658 l 1,24,-1
EndSplineSet
EndChar

StartChar: ocircumflex
Encoding: 244 244 181
Width: 568
GlyphClass: 2
Flags: W
AnchorPoint: "Anchor-5" 0 0 basechar 0
AnchorPoint: "Anchor-4" 283 0 basechar 0
AnchorPoint: "Anchor-3" 286 517 basechar 0
AnchorPoint: "Anchor-2" 352 10 basechar 0
LayerCount: 2
Fore
SplineSet
156 23.5 m 128,-1,1
 102 57 102 57 73.5 117 c 128,-1,2
 45 177 45 177 45 255 c 0,3,4
 45 335 45 335 74.5 396.5 c 128,-1,5
 104 458 104 458 158.5 492.5 c 128,-1,6
 213 527 213 527 285 527 c 0,7,8
 359 527 359 527 412.5 492.5 c 128,-1,9
 466 458 466 458 494.5 396.5 c 128,-1,10
 523 335 523 335 523 256 c 0,11,12
 523 178 523 178 494.5 117.5 c 128,-1,13
 466 57 466 57 412 23.5 c 128,-1,14
 358 -10 358 -10 284 -10 c 128,-1,0
 210 -10 210 -10 156 23.5 c 128,-1,1
388 122 m 128,-1,16
 422 175 422 175 422 259 c 128,-1,17
 422 343 422 343 388 395.5 c 128,-1,18
 354 448 354 448 285 448 c 128,-1,19
 216 448 216 448 181.5 395.5 c 128,-1,20
 147 343 147 343 147 259 c 128,-1,21
 147 175 147 175 181.5 122 c 128,-1,22
 216 69 216 69 286 69 c 0,23,15
 354 69 354 69 388 122 c 128,-1,16
285 677 m 1,24,-1
 210 609 l 1,25,-1
 123 609 l 1,26,-1
 250 727 l 1,27,-1
 323 727 l 1,28,-1
 447 609 l 1,29,-1
 355 609 l 1,30,-1
 285 677 l 1,24,-1
EndSplineSet
EndChar

StartChar: otilde
Encoding: 245 245 182
Width: 568
GlyphClass: 2
Flags: W
AnchorPoint: "Anchor-5" 0 0 basechar 0
AnchorPoint: "Anchor-4" 283 0 basechar 0
AnchorPoint: "Anchor-3" 286 517 basechar 0
AnchorPoint: "Anchor-2" 352 10 basechar 0
LayerCount: 2
Fore
SplineSet
156 23.5 m 128,-1,1
 102 57 102 57 73.5 117 c 128,-1,2
 45 177 45 177 45 255 c 0,3,4
 45 335 45 335 74.5 396.5 c 128,-1,5
 104 458 104 458 158.5 492.5 c 128,-1,6
 213 527 213 527 285 527 c 0,7,8
 359 527 359 527 412.5 492.5 c 128,-1,9
 466 458 466 458 494.5 396.5 c 128,-1,10
 523 335 523 335 523 256 c 0,11,12
 523 178 523 178 494.5 117.5 c 128,-1,13
 466 57 466 57 412 23.5 c 128,-1,14
 358 -10 358 -10 284 -10 c 128,-1,0
 210 -10 210 -10 156 23.5 c 128,-1,1
388 122 m 128,-1,16
 422 175 422 175 422 259 c 128,-1,17
 422 343 422 343 388 395.5 c 128,-1,18
 354 448 354 448 285 448 c 128,-1,19
 216 448 216 448 181.5 395.5 c 128,-1,20
 147 343 147 343 147 259 c 128,-1,21
 147 175 147 175 181.5 122 c 128,-1,22
 216 69 216 69 286 69 c 0,23,15
 354 69 354 69 388 122 c 128,-1,16
353 631 m 0,24,25
 323 631 323 631 283 645 c 0,26,27
 268 650 268 650 252.5 653.5 c 128,-1,28
 237 657 237 657 223 657 c 0,29,30
 204 657 204 657 192 652 c 128,-1,31
 180 647 180 647 162 636 c 0,32,33
 158 633 158 633 154 633 c 128,-1,34
 150 633 150 633 147 641 c 2,35,-1
 136 672 l 2,36,37
 135 674 135 674 135 678 c 0,38,39
 135 683 135 683 141 688 c 0,40,41
 159 703 159 703 176.5 711.5 c 128,-1,42
 194 720 194 720 218 720 c 0,43,44
 235 720 235 720 254.5 715.5 c 128,-1,45
 274 711 274 711 291 705 c 0,46,47
 330 692 330 692 353 692 c 0,48,49
 382 692 382 692 413 712 c 0,50,51
 417 715 417 715 421 715 c 0,52,53
 427 715 427 715 430 707 c 2,54,-1
 440 670 l 1,55,-1
 441 666 l 2,56,57
 441 661 441 661 431 654 c 0,58,59
 400 631 400 631 353 631 c 0,24,25
EndSplineSet
EndChar

StartChar: odieresis
Encoding: 246 246 183
Width: 568
GlyphClass: 2
Flags: W
AnchorPoint: "Anchor-5" 0 0 basechar 0
AnchorPoint: "Anchor-4" 283 0 basechar 0
AnchorPoint: "Anchor-3" 286 517 basechar 0
AnchorPoint: "Anchor-2" 352 10 basechar 0
LayerCount: 2
Fore
SplineSet
156 23.5 m 128,-1,1
 102 57 102 57 73.5 117 c 128,-1,2
 45 177 45 177 45 255 c 0,3,4
 45 335 45 335 74.5 396.5 c 128,-1,5
 104 458 104 458 158.5 492.5 c 128,-1,6
 213 527 213 527 285 527 c 0,7,8
 359 527 359 527 412.5 492.5 c 128,-1,9
 466 458 466 458 494.5 396.5 c 128,-1,10
 523 335 523 335 523 256 c 0,11,12
 523 178 523 178 494.5 117.5 c 128,-1,13
 466 57 466 57 412 23.5 c 128,-1,14
 358 -10 358 -10 284 -10 c 128,-1,0
 210 -10 210 -10 156 23.5 c 128,-1,1
388 122 m 128,-1,16
 422 175 422 175 422 259 c 128,-1,17
 422 343 422 343 388 395.5 c 128,-1,18
 354 448 354 448 285 448 c 128,-1,19
 216 448 216 448 181.5 395.5 c 128,-1,20
 147 343 147 343 147 259 c 128,-1,21
 147 175 147 175 181.5 122 c 128,-1,22
 216 69 216 69 286 69 c 0,23,15
 354 69 354 69 388 122 c 128,-1,16
254 610 m 1,24,-1
 158 610 l 1,25,-1
 158 723 l 1,26,-1
 254 723 l 1,27,-1
 254 610 l 1,24,-1
414 610 m 1,28,-1
 317 610 l 1,29,-1
 317 723 l 1,30,-1
 414 723 l 1,31,-1
 414 610 l 1,28,-1
EndSplineSet
EndChar

StartChar: divide
Encoding: 247 247 184
Width: 561
GlyphClass: 2
Flags: W
LayerCount: 2
Fore
SplineSet
341 484 m 1,0,-1
 218 484 l 1,1,-1
 218 603 l 1,2,-1
 341 603 l 1,3,-1
 341 484 l 1,0,-1
498 325 m 1,4,-1
 59 324 l 1,5,-1
 59 402 l 1,6,-1
 498 403 l 1,7,-1
 498 325 l 1,4,-1
341 125 m 1,8,-1
 218 125 l 1,9,-1
 218 243 l 1,10,-1
 341 243 l 1,11,-1
 341 125 l 1,8,-1
EndSplineSet
EndChar

StartChar: oslash
Encoding: 248 248 185
Width: 582
GlyphClass: 2
Flags: W
AnchorPoint: "Anchor-5" 0 0 basechar 0
AnchorPoint: "Anchor-4" 286 0 basechar 0
AnchorPoint: "Anchor-3" 289 517 basechar 0
AnchorPoint: "Anchor-2" 355 10 basechar 0
LayerCount: 2
Fore
SplineSet
490 412 m 1,0,1
 526 345 526 345 526 256 c 0,2,3
 526 178 526 178 497.5 117.5 c 128,-1,4
 469 57 469 57 415 23.5 c 128,-1,5
 361 -10 361 -10 287 -10 c 0,6,7
 184 -10 184 -10 119 55 c 1,8,-1
 56 -6 l 1,9,-1
 16 36 l 1,10,-1
 85 102 l 1,11,12
 48 167 48 167 48 255 c 0,13,14
 48 335 48 335 77.5 396.5 c 128,-1,15
 107 458 107 458 161.5 492.5 c 128,-1,16
 216 527 216 527 288 527 c 0,17,18
 393 527 393 527 456 459 c 1,19,-1
 521 521 l 1,20,-1
 560 480 l 1,21,-1
 490 412 l 1,0,1
161 175 m 1,22,-1
 391 396 l 1,23,24
 354 448 354 448 288 448 c 0,25,26
 219 448 219 448 184.5 395.5 c 128,-1,27
 150 343 150 343 150 259 c 0,28,29
 150 209 150 209 161 175 c 1,22,-1
415 340 m 1,30,-1
 186 120 l 1,31,32
 223 69 223 69 289 69 c 0,33,34
 357 69 357 69 391 122 c 128,-1,35
 425 175 425 175 425 259 c 0,36,37
 425 306 425 306 415 340 c 1,30,-1
EndSplineSet
EndChar

StartChar: ugrave
Encoding: 249 249 186
Width: 593
GlyphClass: 2
Flags: W
AnchorPoint: "Anchor-5" 0 0 basechar 0
AnchorPoint: "Anchor-4" 296 0 basechar 0
AnchorPoint: "Anchor-3" 289 517 basechar 0
AnchorPoint: "Anchor-2" 499 11 basechar 0
LayerCount: 2
Fore
SplineSet
180 9.5 m 128,-1,1
 135 28 135 28 105.5 67 c 128,-1,2
 76 106 76 106 76 165 c 2,3,-1
 76 518 l 1,4,-1
 179 518 l 1,5,-1
 179 176 l 2,6,7
 179 122 179 122 213.5 95.5 c 128,-1,8
 248 69 248 69 294 69 c 0,9,10
 344 69 344 69 378.5 98.5 c 128,-1,11
 413 128 413 128 414 181 c 2,12,-1
 414 518 l 1,13,-1
 517 518 l 1,14,-1
 515 1 l 1,15,-1
 435 1 l 1,16,-1
 430 79 l 1,17,18
 412 43 412 43 366 17 c 128,-1,19
 320 -9 320 -9 272 -9 c 0,20,0
 225 -9 225 -9 180 9.5 c 128,-1,1
414 635 m 1,21,-1
 397 585 l 1,22,-1
 143 658 l 1,23,-1
 168 733 l 1,24,-1
 414 635 l 1,21,-1
EndSplineSet
EndChar

StartChar: uacute
Encoding: 250 250 187
Width: 593
GlyphClass: 2
Flags: W
AnchorPoint: "Anchor-5" 0 0 basechar 0
AnchorPoint: "Anchor-4" 296 0 basechar 0
AnchorPoint: "Anchor-3" 289 517 basechar 0
AnchorPoint: "Anchor-2" 499 11 basechar 0
LayerCount: 2
Fore
SplineSet
180 9.5 m 128,-1,1
 135 28 135 28 105.5 67 c 128,-1,2
 76 106 76 106 76 165 c 2,3,-1
 76 518 l 1,4,-1
 179 518 l 1,5,-1
 179 176 l 2,6,7
 179 122 179 122 213.5 95.5 c 128,-1,8
 248 69 248 69 294 69 c 0,9,10
 344 69 344 69 378.5 98.5 c 128,-1,11
 413 128 413 128 414 181 c 2,12,-1
 414 518 l 1,13,-1
 517 518 l 1,14,-1
 515 1 l 1,15,-1
 435 1 l 1,16,-1
 430 79 l 1,17,18
 412 43 412 43 366 17 c 128,-1,19
 320 -9 320 -9 272 -9 c 0,20,0
 225 -9 225 -9 180 9.5 c 128,-1,1
425 658 m 1,21,-1
 171 585 l 1,22,-1
 154 635 l 1,23,-1
 400 733 l 1,24,-1
 425 658 l 1,21,-1
EndSplineSet
EndChar

StartChar: ucircumflex
Encoding: 251 251 188
Width: 593
GlyphClass: 2
Flags: W
AnchorPoint: "Anchor-5" 0 0 basechar 0
AnchorPoint: "Anchor-4" 296 0 basechar 0
AnchorPoint: "Anchor-3" 289 517 basechar 0
AnchorPoint: "Anchor-2" 499 11 basechar 0
LayerCount: 2
Fore
SplineSet
180 9.5 m 128,-1,1
 135 28 135 28 105.5 67 c 128,-1,2
 76 106 76 106 76 165 c 2,3,-1
 76 518 l 1,4,-1
 179 518 l 1,5,-1
 179 176 l 2,6,7
 179 122 179 122 213.5 95.5 c 128,-1,8
 248 69 248 69 294 69 c 0,9,10
 344 69 344 69 378.5 98.5 c 128,-1,11
 413 128 413 128 414 181 c 2,12,-1
 414 518 l 1,13,-1
 517 518 l 1,14,-1
 515 1 l 1,15,-1
 435 1 l 1,16,-1
 430 79 l 1,17,18
 412 43 412 43 366 17 c 128,-1,19
 320 -9 320 -9 272 -9 c 0,20,0
 225 -9 225 -9 180 9.5 c 128,-1,1
288 677 m 1,21,-1
 213 609 l 1,22,-1
 126 609 l 1,23,-1
 253 727 l 1,24,-1
 326 727 l 1,25,-1
 450 609 l 1,26,-1
 358 609 l 1,27,-1
 288 677 l 1,21,-1
EndSplineSet
EndChar

StartChar: udieresis
Encoding: 252 252 189
Width: 593
GlyphClass: 2
Flags: W
AnchorPoint: "Anchor-5" 0 0 basechar 0
AnchorPoint: "Anchor-4" 296 0 basechar 0
AnchorPoint: "Anchor-3" 289 517 basechar 0
AnchorPoint: "Anchor-2" 499 11 basechar 0
LayerCount: 2
Fore
SplineSet
180 9.5 m 128,-1,1
 135 28 135 28 105.5 67 c 128,-1,2
 76 106 76 106 76 165 c 2,3,-1
 76 518 l 1,4,-1
 179 518 l 1,5,-1
 179 176 l 2,6,7
 179 122 179 122 213.5 95.5 c 128,-1,8
 248 69 248 69 294 69 c 0,9,10
 344 69 344 69 378.5 98.5 c 128,-1,11
 413 128 413 128 414 181 c 2,12,-1
 414 518 l 1,13,-1
 517 518 l 1,14,-1
 515 1 l 1,15,-1
 435 1 l 1,16,-1
 430 79 l 1,17,18
 412 43 412 43 366 17 c 128,-1,19
 320 -9 320 -9 272 -9 c 0,20,0
 225 -9 225 -9 180 9.5 c 128,-1,1
257 610 m 1,21,-1
 161 610 l 1,22,-1
 161 723 l 1,23,-1
 257 723 l 1,24,-1
 257 610 l 1,21,-1
417 610 m 1,25,-1
 320 610 l 1,26,-1
 320 723 l 1,27,-1
 417 723 l 1,28,-1
 417 610 l 1,25,-1
EndSplineSet
EndChar

StartChar: yacute
Encoding: 253 253 190
Width: 537
GlyphClass: 2
Flags: W
AnchorPoint: "Anchor-5" 0 0 basechar 0
AnchorPoint: "Anchor-4" 0 0 basechar 0
AnchorPoint: "Anchor-3" 280 517 basechar 0
AnchorPoint: "Anchor-2" 0 0 basechar 0
LayerCount: 2
Fore
SplineSet
83 -162 m 128,-1,1
 65 -159 65 -159 56.5 -155.5 c 128,-1,2
 48 -152 48 -152 46 -151 c 2,3,-1
 46 -85 l 1,4,-1
 99 -87 l 2,5,6
 151 -89 151 -89 173 -73 c 128,-1,7
 195 -57 195 -57 206 -31 c 2,8,-1
 222 14 l 1,9,-1
 20 517 l 1,10,-1
 123 517 l 1,11,-1
 270 129 l 1,12,-1
 417 517 l 1,13,-1
 517 517 l 1,14,-1
 301 -32 l 2,15,16
 270 -107 270 -107 229 -136 c 128,-1,17
 188 -165 188 -165 129 -165 c 0,18,0
 101 -165 101 -165 83 -162 c 128,-1,1
416 658 m 1,19,-1
 162 585 l 1,20,-1
 145 635 l 1,21,-1
 391 733 l 1,22,-1
 416 658 l 1,19,-1
EndSplineSet
EndChar

StartChar: thorn
Encoding: 254 254 191
Width: 595
GlyphClass: 2
Flags: W
LayerCount: 2
Fore
SplineSet
178 447 m 1,0,1
 210 482 210 482 245 504.5 c 128,-1,2
 280 527 280 527 340 527 c 128,-1,3
 400 527 400 527 447.5 498 c 128,-1,4
 495 469 495 469 522.5 410 c 128,-1,5
 550 351 550 351 550 265 c 0,6,7
 550 177 550 177 522.5 115.5 c 128,-1,8
 495 54 495 54 445.5 22 c 128,-1,9
 396 -10 396 -10 331 -10 c 0,10,11
 251 -10 251 -10 194 39 c 0,12,13
 187 46 187 46 183 46 c 128,-1,14
 179 46 179 46 179 33 c 2,15,-1
 179 -161 l 1,16,-1
 76 -161 l 1,17,-1
 76 723 l 1,18,-1
 178 723 l 1,19,-1
 178 447 l 1,0,1
299 60 m 0,20,21
 366 60 366 60 406 112 c 128,-1,22
 446 164 446 164 446 265 c 0,23,24
 446 363 446 363 406.5 410 c 128,-1,25
 367 457 367 457 303 457 c 0,26,27
 268 457 268 457 239.5 441.5 c 128,-1,28
 211 426 211 426 195 402.5 c 128,-1,29
 179 379 179 379 179 355 c 2,30,-1
 179 120 l 1,31,32
 236 60 236 60 299 60 c 0,20,21
EndSplineSet
EndChar

StartChar: ydieresis
Encoding: 255 255 192
Width: 537
GlyphClass: 2
Flags: W
AnchorPoint: "Anchor-5" 0 0 basechar 0
AnchorPoint: "Anchor-4" 0 0 basechar 0
AnchorPoint: "Anchor-3" 280 517 basechar 0
AnchorPoint: "Anchor-2" 0 0 basechar 0
LayerCount: 2
Fore
SplineSet
83 -162 m 128,-1,1
 65 -159 65 -159 56.5 -155.5 c 128,-1,2
 48 -152 48 -152 46 -151 c 2,3,-1
 46 -85 l 1,4,-1
 99 -87 l 2,5,6
 151 -89 151 -89 173 -73 c 128,-1,7
 195 -57 195 -57 206 -31 c 2,8,-1
 222 14 l 1,9,-1
 20 517 l 1,10,-1
 123 517 l 1,11,-1
 270 129 l 1,12,-1
 417 517 l 1,13,-1
 517 517 l 1,14,-1
 301 -32 l 2,15,16
 270 -107 270 -107 229 -136 c 128,-1,17
 188 -165 188 -165 129 -165 c 0,18,0
 101 -165 101 -165 83 -162 c 128,-1,1
248 610 m 1,19,-1
 152 610 l 1,20,-1
 152 723 l 1,21,-1
 248 723 l 1,22,-1
 248 610 l 1,19,-1
408 610 m 1,23,-1
 311 610 l 1,24,-1
 311 723 l 1,25,-1
 408 723 l 1,26,-1
 408 610 l 1,23,-1
EndSplineSet
EndChar

StartChar: Amacron
Encoding: 256 256 193
Width: 700
GlyphClass: 2
Flags: W
AnchorPoint: "Anchor-5" 0 0 basechar 0
AnchorPoint: "Anchor-4" 0 0 basechar 0
AnchorPoint: "Anchor-3" 356 723 basechar 0
AnchorPoint: "Anchor-2" 663 10 basechar 0
LayerCount: 2
Fore
SplineSet
294 723 m 1,0,-1
 407 723 l 1,1,-1
 668 0 l 1,2,-1
 565 0 l 1,3,-1
 496 192 l 1,4,-1
 207 192 l 1,5,-1
 136 0 l 1,6,-1
 33 0 l 1,7,-1
 294 723 l 1,0,-1
469 285 m 1,8,-1
 351 623 l 1,9,-1
 232 285 l 1,10,-1
 469 285 l 1,8,-1
510 847 m 1,11,-1
 202 847 l 1,12,-1
 202 918 l 1,13,-1
 510 918 l 1,14,-1
 510 847 l 1,11,-1
EndSplineSet
EndChar

StartChar: amacron
Encoding: 257 257 194
Width: 562
GlyphClass: 2
Flags: W
AnchorPoint: "Anchor-5" 0 0 basechar 0
AnchorPoint: "Anchor-4" 0 0 basechar 0
AnchorPoint: "Anchor-3" 281 517 basechar 0
AnchorPoint: "Anchor-2" 471 12 basechar 0
LayerCount: 2
Fore
SplineSet
93.5 30.5 m 128,-1,1
 46 71 46 71 46 141 c 0,2,3
 46 227 46 227 106 267 c 128,-1,4
 166 307 166 307 301 313 c 2,5,-1
 388 319 l 1,6,-1
 388 354 l 2,7,8
 388 400 388 400 359.5 426.5 c 128,-1,9
 331 453 331 453 281 453 c 0,10,11
 195 453 195 453 145 378 c 1,12,-1
 62 390 l 1,13,14
 82 455 82 455 141 491 c 128,-1,15
 200 527 200 527 283 527 c 0,16,17
 384 527 384 527 435 483 c 128,-1,18
 486 439 486 439 486 361 c 2,19,-1
 486 0 l 1,20,-1
 399 0 l 1,21,-1
 392 72 l 1,22,23
 326 -10 326 -10 217 -10 c 0,24,0
 141 -10 141 -10 93.5 30.5 c 128,-1,1
313.5 77.5 m 128,-1,26
 346 93 346 93 367 118 c 128,-1,27
 388 143 388 143 388 170 c 2,28,-1
 388 259 l 1,29,-1
 316 254 l 2,30,31
 227 248 227 248 185.5 226 c 128,-1,32
 144 204 144 204 144 151 c 0,33,34
 144 110 144 110 173 86 c 128,-1,35
 202 62 202 62 248 62 c 0,36,25
 281 62 281 62 313.5 77.5 c 128,-1,26
435 641 m 1,37,-1
 127 641 l 1,38,-1
 127 712 l 1,39,-1
 435 712 l 1,40,-1
 435 641 l 1,37,-1
EndSplineSet
EndChar

StartChar: Abreve
Encoding: 258 258 195
Width: 700
GlyphClass: 2
Flags: W
AnchorPoint: "Anchor-5" 0 0 basechar 0
AnchorPoint: "Anchor-4" 0 0 basechar 0
AnchorPoint: "Anchor-3" 356 723 basechar 0
AnchorPoint: "Anchor-2" 663 10 basechar 0
LayerCount: 2
Fore
SplineSet
294 723 m 1,0,-1
 407 723 l 1,1,-1
 668 0 l 1,2,-1
 565 0 l 1,3,-1
 496 192 l 1,4,-1
 207 192 l 1,5,-1
 136 0 l 1,6,-1
 33 0 l 1,7,-1
 294 723 l 1,0,-1
469 285 m 1,8,-1
 351 623 l 1,9,-1
 232 285 l 1,10,-1
 469 285 l 1,8,-1
457 849 m 128,-1,12
 415 817 415 817 356 817 c 0,13,14
 296 817 296 817 255 848 c 128,-1,15
 214 879 214 879 201 929 c 1,16,-1
 271 929 l 1,17,18
 302 876 302 876 356 876 c 0,19,20
 384 876 384 876 406 891.5 c 128,-1,21
 428 907 428 907 440 929 c 1,22,-1
 512 929 l 1,23,11
 499 881 499 881 457 849 c 128,-1,12
EndSplineSet
EndChar

StartChar: abreve
Encoding: 259 259 196
Width: 562
GlyphClass: 2
Flags: W
AnchorPoint: "Anchor-5" 0 0 basechar 0
AnchorPoint: "Anchor-4" 0 0 basechar 0
AnchorPoint: "Anchor-3" 281 517 basechar 0
AnchorPoint: "Anchor-2" 471 12 basechar 0
LayerCount: 2
Fore
SplineSet
93.5 30.5 m 128,-1,1
 46 71 46 71 46 141 c 0,2,3
 46 227 46 227 106 267 c 128,-1,4
 166 307 166 307 301 313 c 2,5,-1
 388 319 l 1,6,-1
 388 354 l 2,7,8
 388 400 388 400 359.5 426.5 c 128,-1,9
 331 453 331 453 281 453 c 0,10,11
 195 453 195 453 145 378 c 1,12,-1
 62 390 l 1,13,14
 82 455 82 455 141 491 c 128,-1,15
 200 527 200 527 283 527 c 0,16,17
 384 527 384 527 435 483 c 128,-1,18
 486 439 486 439 486 361 c 2,19,-1
 486 0 l 1,20,-1
 399 0 l 1,21,-1
 392 72 l 1,22,23
 326 -10 326 -10 217 -10 c 0,24,0
 141 -10 141 -10 93.5 30.5 c 128,-1,1
313.5 77.5 m 128,-1,26
 346 93 346 93 367 118 c 128,-1,27
 388 143 388 143 388 170 c 2,28,-1
 388 259 l 1,29,-1
 316 254 l 2,30,31
 227 248 227 248 185.5 226 c 128,-1,32
 144 204 144 204 144 151 c 0,33,34
 144 110 144 110 173 86 c 128,-1,35
 202 62 202 62 248 62 c 0,36,25
 281 62 281 62 313.5 77.5 c 128,-1,26
382 643 m 128,-1,38
 340 611 340 611 281 611 c 0,39,40
 221 611 221 611 180 642 c 128,-1,41
 139 673 139 673 126 723 c 1,42,-1
 196 723 l 1,43,44
 227 670 227 670 281 670 c 0,45,46
 309 670 309 670 331 685.5 c 128,-1,47
 353 701 353 701 365 723 c 1,48,-1
 437 723 l 1,49,37
 424 675 424 675 382 643 c 128,-1,38
EndSplineSet
EndChar

StartChar: Aogonek
Encoding: 260 260 197
Width: 700
GlyphClass: 2
Flags: W
AnchorPoint: "Anchor-5" 0 0 basechar 0
AnchorPoint: "Anchor-4" 0 0 basechar 0
AnchorPoint: "Anchor-3" 356 723 basechar 0
AnchorPoint: "Anchor-2" 663 10 basechar 0
LayerCount: 2
Fore
SplineSet
294 723 m 1,0,-1
 407 723 l 1,1,-1
 668 0 l 1,2,-1
 565 0 l 1,3,-1
 496 192 l 1,4,-1
 207 192 l 1,5,-1
 136 0 l 1,6,-1
 33 0 l 1,7,-1
 294 723 l 1,0,-1
469 285 m 1,8,-1
 351 623 l 1,9,-1
 232 285 l 1,10,-1
 469 285 l 1,8,-1
522 -33 m 128,-1,12
 544 -10 544 -10 601 8 c 1,13,-1
 675 3 l 1,14,15
 623 -18 623 -18 601.5 -36.5 c 128,-1,16
 580 -55 580 -55 580 -78 c 0,17,18
 580 -96 580 -96 590.5 -105 c 128,-1,19
 601 -114 601 -114 624 -114 c 0,20,21
 656 -114 656 -114 684 -100 c 0,22,23
 687 -98 687 -98 691 -98 c 0,24,25
 696 -98 696 -98 696 -106 c 2,26,-1
 696 -138 l 2,27,28
 696 -146 696 -146 689 -150 c 0,29,30
 676 -157 676 -157 651.5 -162 c 128,-1,31
 627 -167 627 -167 601 -167 c 0,32,33
 552 -167 552 -167 526 -146 c 128,-1,34
 500 -125 500 -125 500 -88 c 0,35,11
 500 -56 500 -56 522 -33 c 128,-1,12
EndSplineSet
EndChar

StartChar: aogonek
Encoding: 261 261 198
Width: 562
GlyphClass: 2
Flags: W
AnchorPoint: "Anchor-5" 0 0 basechar 0
AnchorPoint: "Anchor-4" 0 0 basechar 0
AnchorPoint: "Anchor-3" 281 517 basechar 0
AnchorPoint: "Anchor-2" 471 12 basechar 0
LayerCount: 2
Fore
SplineSet
93.5 30.5 m 128,-1,1
 46 71 46 71 46 141 c 0,2,3
 46 227 46 227 106 267 c 128,-1,4
 166 307 166 307 301 313 c 2,5,-1
 388 319 l 1,6,-1
 388 354 l 2,7,8
 388 400 388 400 359.5 426.5 c 128,-1,9
 331 453 331 453 281 453 c 0,10,11
 195 453 195 453 145 378 c 1,12,-1
 62 390 l 1,13,14
 82 455 82 455 141 491 c 128,-1,15
 200 527 200 527 283 527 c 0,16,17
 384 527 384 527 435 483 c 128,-1,18
 486 439 486 439 486 361 c 2,19,-1
 486 0 l 1,20,-1
 399 0 l 1,21,-1
 392 72 l 1,22,23
 326 -10 326 -10 217 -10 c 0,24,0
 141 -10 141 -10 93.5 30.5 c 128,-1,1
313.5 77.5 m 128,-1,26
 346 93 346 93 367 118 c 128,-1,27
 388 143 388 143 388 170 c 2,28,-1
 388 259 l 1,29,-1
 316 254 l 2,30,31
 227 248 227 248 185.5 226 c 128,-1,32
 144 204 144 204 144 151 c 0,33,34
 144 110 144 110 173 86 c 128,-1,35
 202 62 202 62 248 62 c 0,36,25
 281 62 281 62 313.5 77.5 c 128,-1,26
330 -31 m 128,-1,38
 352 -8 352 -8 409 10 c 1,39,-1
 483 5 l 1,40,41
 431 -16 431 -16 409.5 -34.5 c 128,-1,42
 388 -53 388 -53 388 -76 c 0,43,44
 388 -94 388 -94 398.5 -103 c 128,-1,45
 409 -112 409 -112 432 -112 c 0,46,47
 464 -112 464 -112 492 -98 c 0,48,49
 495 -96 495 -96 499 -96 c 0,50,51
 504 -96 504 -96 504 -104 c 2,52,-1
 504 -136 l 2,53,54
 504 -144 504 -144 497 -148 c 0,55,56
 484 -155 484 -155 459.5 -160 c 128,-1,57
 435 -165 435 -165 409 -165 c 0,58,59
 360 -165 360 -165 334 -144 c 128,-1,60
 308 -123 308 -123 308 -86 c 0,61,37
 308 -54 308 -54 330 -31 c 128,-1,38
EndSplineSet
EndChar

StartChar: Cacute
Encoding: 262 262 199
Width: 689
GlyphClass: 2
Flags: W
AnchorPoint: "Anchor-5" 0 0 basechar 0
AnchorPoint: "Anchor-4" 363 0 basechar 0
AnchorPoint: "Anchor-3" 363 723 basechar 0
AnchorPoint: "Anchor-2" 0 0 basechar 0
LayerCount: 2
Fore
SplineSet
496.5 703.5 m 128,-1,1
 558 674 558 674 594.5 622.5 c 128,-1,2
 631 571 631 571 638 508 c 1,3,-1
 530 504 l 1,4,5
 518 569 518 569 474 607 c 128,-1,6
 430 645 430 645 357 645 c 0,7,8
 262 645 262 645 212.5 575 c 128,-1,9
 163 505 163 505 163 363 c 128,-1,10
 163 221 163 221 213 149.5 c 128,-1,11
 263 78 263 78 361 78 c 0,12,13
 425 78 425 78 470 116.5 c 128,-1,14
 515 155 515 155 529 219 c 1,15,-1
 636 212 l 1,16,17
 628 149 628 149 594.5 99 c 128,-1,18
 561 49 561 49 502 19.5 c 128,-1,19
 443 -10 443 -10 363 -10 c 0,20,21
 266 -10 266 -10 195.5 35.5 c 128,-1,22
 125 81 125 81 87.5 165.5 c 128,-1,23
 50 250 50 250 50 364 c 128,-1,24
 50 478 50 478 86.5 561 c 128,-1,25
 123 644 123 644 192.5 688.5 c 128,-1,26
 262 733 262 733 358 733 c 0,27,0
 435 733 435 733 496.5 703.5 c 128,-1,1
499 864 m 1,28,-1
 245 791 l 1,29,-1
 228 841 l 1,30,-1
 474 939 l 1,31,-1
 499 864 l 1,28,-1
EndSplineSet
EndChar

StartChar: cacute
Encoding: 263 263 200
Width: 537
GlyphClass: 2
Flags: W
AnchorPoint: "Anchor-5" 0 0 basechar 0
AnchorPoint: "Anchor-4" 285 0 basechar 0
AnchorPoint: "Anchor-3" 284 517 basechar 0
AnchorPoint: "Anchor-2" 0 0 basechar 0
LayerCount: 2
Fore
SplineSet
413.5 484.5 m 128,-1,1
 464 442 464 442 487 371 c 1,2,-1
 403 358 l 1,3,4
 372 406 372 406 349 426 c 128,-1,5
 326 446 326 446 288 446 c 0,6,7
 221 446 221 446 181.5 395.5 c 128,-1,8
 142 345 142 345 142 258 c 0,9,10
 142 170 142 170 182 118 c 128,-1,11
 222 66 222 66 289 66 c 0,12,13
 331 66 331 66 358.5 90.5 c 128,-1,14
 386 115 386 115 409 160 c 1,15,-1
 491 147 l 1,16,17
 468 75 468 75 415 32.5 c 128,-1,18
 362 -10 362 -10 284 -10 c 0,19,20
 213 -10 213 -10 159 23.5 c 128,-1,21
 105 57 105 57 75 117.5 c 128,-1,22
 45 178 45 178 45 256 c 0,23,24
 45 335 45 335 75 396.5 c 128,-1,25
 105 458 105 458 159 492.5 c 128,-1,26
 213 527 213 527 284 527 c 0,27,0
 363 527 363 527 413.5 484.5 c 128,-1,1
420 658 m 1,28,-1
 166 585 l 1,29,-1
 149 635 l 1,30,-1
 395 733 l 1,31,-1
 420 658 l 1,28,-1
EndSplineSet
EndChar

StartChar: Ccircumflex
Encoding: 264 264 201
Width: 689
GlyphClass: 2
Flags: W
AnchorPoint: "Anchor-5" 0 0 basechar 0
AnchorPoint: "Anchor-4" 363 0 basechar 0
AnchorPoint: "Anchor-3" 363 723 basechar 0
AnchorPoint: "Anchor-2" 0 0 basechar 0
LayerCount: 2
Fore
SplineSet
496.5 703.5 m 128,-1,1
 558 674 558 674 594.5 622.5 c 128,-1,2
 631 571 631 571 638 508 c 1,3,-1
 530 504 l 1,4,5
 518 569 518 569 474 607 c 128,-1,6
 430 645 430 645 357 645 c 0,7,8
 262 645 262 645 212.5 575 c 128,-1,9
 163 505 163 505 163 363 c 128,-1,10
 163 221 163 221 213 149.5 c 128,-1,11
 263 78 263 78 361 78 c 0,12,13
 425 78 425 78 470 116.5 c 128,-1,14
 515 155 515 155 529 219 c 1,15,-1
 636 212 l 1,16,17
 628 149 628 149 594.5 99 c 128,-1,18
 561 49 561 49 502 19.5 c 128,-1,19
 443 -10 443 -10 363 -10 c 0,20,21
 266 -10 266 -10 195.5 35.5 c 128,-1,22
 125 81 125 81 87.5 165.5 c 128,-1,23
 50 250 50 250 50 364 c 128,-1,24
 50 478 50 478 86.5 561 c 128,-1,25
 123 644 123 644 192.5 688.5 c 128,-1,26
 262 733 262 733 358 733 c 0,27,0
 435 733 435 733 496.5 703.5 c 128,-1,1
362 883 m 1,28,-1
 287 815 l 1,29,-1
 200 815 l 1,30,-1
 327 933 l 1,31,-1
 400 933 l 1,32,-1
 524 815 l 1,33,-1
 432 815 l 1,34,-1
 362 883 l 1,28,-1
EndSplineSet
EndChar

StartChar: ccircumflex
Encoding: 265 265 202
Width: 537
GlyphClass: 2
Flags: W
AnchorPoint: "Anchor-5" 0 0 basechar 0
AnchorPoint: "Anchor-4" 285 0 basechar 0
AnchorPoint: "Anchor-3" 284 517 basechar 0
AnchorPoint: "Anchor-2" 0 0 basechar 0
LayerCount: 2
Fore
SplineSet
413.5 484.5 m 128,-1,1
 464 442 464 442 487 371 c 1,2,-1
 403 358 l 1,3,4
 372 406 372 406 349 426 c 128,-1,5
 326 446 326 446 288 446 c 0,6,7
 221 446 221 446 181.5 395.5 c 128,-1,8
 142 345 142 345 142 258 c 0,9,10
 142 170 142 170 182 118 c 128,-1,11
 222 66 222 66 289 66 c 0,12,13
 331 66 331 66 358.5 90.5 c 128,-1,14
 386 115 386 115 409 160 c 1,15,-1
 491 147 l 1,16,17
 468 75 468 75 415 32.5 c 128,-1,18
 362 -10 362 -10 284 -10 c 0,19,20
 213 -10 213 -10 159 23.5 c 128,-1,21
 105 57 105 57 75 117.5 c 128,-1,22
 45 178 45 178 45 256 c 0,23,24
 45 335 45 335 75 396.5 c 128,-1,25
 105 458 105 458 159 492.5 c 128,-1,26
 213 527 213 527 284 527 c 0,27,0
 363 527 363 527 413.5 484.5 c 128,-1,1
283 677 m 1,28,-1
 208 609 l 1,29,-1
 121 609 l 1,30,-1
 248 727 l 1,31,-1
 321 727 l 1,32,-1
 445 609 l 1,33,-1
 353 609 l 1,34,-1
 283 677 l 1,28,-1
EndSplineSet
EndChar

StartChar: Cdotaccent
Encoding: 266 266 203
Width: 689
GlyphClass: 2
Flags: W
AnchorPoint: "Anchor-5" 0 0 basechar 0
AnchorPoint: "Anchor-4" 363 0 basechar 0
AnchorPoint: "Anchor-3" 363 723 basechar 0
AnchorPoint: "Anchor-2" 0 0 basechar 0
LayerCount: 2
Fore
SplineSet
496.5 703.5 m 128,-1,1
 558 674 558 674 594.5 622.5 c 128,-1,2
 631 571 631 571 638 508 c 1,3,-1
 530 504 l 1,4,5
 518 569 518 569 474 607 c 128,-1,6
 430 645 430 645 357 645 c 0,7,8
 262 645 262 645 212.5 575 c 128,-1,9
 163 505 163 505 163 363 c 128,-1,10
 163 221 163 221 213 149.5 c 128,-1,11
 263 78 263 78 361 78 c 0,12,13
 425 78 425 78 470 116.5 c 128,-1,14
 515 155 515 155 529 219 c 1,15,-1
 636 212 l 1,16,17
 628 149 628 149 594.5 99 c 128,-1,18
 561 49 561 49 502 19.5 c 128,-1,19
 443 -10 443 -10 363 -10 c 0,20,21
 266 -10 266 -10 195.5 35.5 c 128,-1,22
 125 81 125 81 87.5 165.5 c 128,-1,23
 50 250 50 250 50 364 c 128,-1,24
 50 478 50 478 86.5 561 c 128,-1,25
 123 644 123 644 192.5 688.5 c 128,-1,26
 262 733 262 733 358 733 c 0,27,0
 435 733 435 733 496.5 703.5 c 128,-1,1
418 806 m 1,28,-1
 310 806 l 1,29,-1
 310 929 l 1,30,-1
 418 929 l 1,31,-1
 418 806 l 1,28,-1
EndSplineSet
EndChar

StartChar: cdotaccent
Encoding: 267 267 204
Width: 537
GlyphClass: 2
Flags: W
AnchorPoint: "Anchor-5" 0 0 basechar 0
AnchorPoint: "Anchor-4" 285 0 basechar 0
AnchorPoint: "Anchor-3" 284 517 basechar 0
AnchorPoint: "Anchor-2" 0 0 basechar 0
LayerCount: 2
Fore
SplineSet
413.5 484.5 m 128,-1,1
 464 442 464 442 487 371 c 1,2,-1
 403 358 l 1,3,4
 372 406 372 406 349 426 c 128,-1,5
 326 446 326 446 288 446 c 0,6,7
 221 446 221 446 181.5 395.5 c 128,-1,8
 142 345 142 345 142 258 c 0,9,10
 142 170 142 170 182 118 c 128,-1,11
 222 66 222 66 289 66 c 0,12,13
 331 66 331 66 358.5 90.5 c 128,-1,14
 386 115 386 115 409 160 c 1,15,-1
 491 147 l 1,16,17
 468 75 468 75 415 32.5 c 128,-1,18
 362 -10 362 -10 284 -10 c 0,19,20
 213 -10 213 -10 159 23.5 c 128,-1,21
 105 57 105 57 75 117.5 c 128,-1,22
 45 178 45 178 45 256 c 0,23,24
 45 335 45 335 75 396.5 c 128,-1,25
 105 458 105 458 159 492.5 c 128,-1,26
 213 527 213 527 284 527 c 0,27,0
 363 527 363 527 413.5 484.5 c 128,-1,1
339 600 m 1,28,-1
 231 600 l 1,29,-1
 231 723 l 1,30,-1
 339 723 l 1,31,-1
 339 600 l 1,28,-1
EndSplineSet
EndChar

StartChar: Ccaron
Encoding: 268 268 205
Width: 689
GlyphClass: 2
Flags: W
AnchorPoint: "Anchor-5" 0 0 basechar 0
AnchorPoint: "Anchor-4" 363 0 basechar 0
AnchorPoint: "Anchor-3" 363 723 basechar 0
AnchorPoint: "Anchor-2" 0 0 basechar 0
LayerCount: 2
Fore
SplineSet
496.5 703.5 m 128,-1,1
 558 674 558 674 594.5 622.5 c 128,-1,2
 631 571 631 571 638 508 c 1,3,-1
 530 504 l 1,4,5
 518 569 518 569 474 607 c 128,-1,6
 430 645 430 645 357 645 c 0,7,8
 262 645 262 645 212.5 575 c 128,-1,9
 163 505 163 505 163 363 c 128,-1,10
 163 221 163 221 213 149.5 c 128,-1,11
 263 78 263 78 361 78 c 0,12,13
 425 78 425 78 470 116.5 c 128,-1,14
 515 155 515 155 529 219 c 1,15,-1
 636 212 l 1,16,17
 628 149 628 149 594.5 99 c 128,-1,18
 561 49 561 49 502 19.5 c 128,-1,19
 443 -10 443 -10 363 -10 c 0,20,21
 266 -10 266 -10 195.5 35.5 c 128,-1,22
 125 81 125 81 87.5 165.5 c 128,-1,23
 50 250 50 250 50 364 c 128,-1,24
 50 478 50 478 86.5 561 c 128,-1,25
 123 644 123 644 192.5 688.5 c 128,-1,26
 262 733 262 733 358 733 c 0,27,0
 435 733 435 733 496.5 703.5 c 128,-1,1
524 929 m 1,28,-1
 400 810 l 1,29,-1
 327 810 l 1,30,-1
 200 929 l 1,31,-1
 287 929 l 1,32,-1
 362 860 l 1,33,-1
 432 929 l 1,34,-1
 524 929 l 1,28,-1
EndSplineSet
EndChar

StartChar: ccaron
Encoding: 269 269 206
Width: 537
GlyphClass: 2
Flags: W
AnchorPoint: "Anchor-5" 0 0 basechar 0
AnchorPoint: "Anchor-4" 285 0 basechar 0
AnchorPoint: "Anchor-3" 284 517 basechar 0
AnchorPoint: "Anchor-2" 0 0 basechar 0
LayerCount: 2
Fore
SplineSet
413.5 484.5 m 128,-1,1
 464 442 464 442 487 371 c 1,2,-1
 403 358 l 1,3,4
 372 406 372 406 349 426 c 128,-1,5
 326 446 326 446 288 446 c 0,6,7
 221 446 221 446 181.5 395.5 c 128,-1,8
 142 345 142 345 142 258 c 0,9,10
 142 170 142 170 182 118 c 128,-1,11
 222 66 222 66 289 66 c 0,12,13
 331 66 331 66 358.5 90.5 c 128,-1,14
 386 115 386 115 409 160 c 1,15,-1
 491 147 l 1,16,17
 468 75 468 75 415 32.5 c 128,-1,18
 362 -10 362 -10 284 -10 c 0,19,20
 213 -10 213 -10 159 23.5 c 128,-1,21
 105 57 105 57 75 117.5 c 128,-1,22
 45 178 45 178 45 256 c 0,23,24
 45 335 45 335 75 396.5 c 128,-1,25
 105 458 105 458 159 492.5 c 128,-1,26
 213 527 213 527 284 527 c 0,27,0
 363 527 363 527 413.5 484.5 c 128,-1,1
445 723 m 1,28,-1
 321 604 l 1,29,-1
 248 604 l 1,30,-1
 121 723 l 1,31,-1
 208 723 l 1,32,-1
 283 654 l 1,33,-1
 353 723 l 1,34,-1
 445 723 l 1,28,-1
EndSplineSet
EndChar

StartChar: Dcaron
Encoding: 270 270 207
Width: 693
GlyphClass: 2
Flags: W
AnchorPoint: "Anchor-5" 0 0 basechar 0
AnchorPoint: "Anchor-4" 0 0 basechar 0
AnchorPoint: "Anchor-3" 342 723 basechar 0
AnchorPoint: "Anchor-2" 0 0 basechar 0
LayerCount: 2
Fore
SplineSet
267 722 m 0,0,1
 462 719 462 719 552.5 629.5 c 128,-1,2
 643 540 643 540 643 366 c 0,3,4
 643 0 643 0 259 0 c 2,5,-1
 91 0 l 1,6,-1
 91 723 l 1,7,8
 206 723 206 723 267 722 c 0,0,1
195 87 m 1,9,-1
 259 87 l 2,10,11
 393 87 393 87 464.5 152.5 c 128,-1,12
 536 218 536 218 536 365 c 0,13,14
 536 511 536 511 467 574 c 128,-1,15
 398 637 398 637 263 637 c 2,16,-1
 195 637 l 1,17,-1
 195 87 l 1,9,-1
503 929 m 1,18,-1
 379 810 l 1,19,-1
 306 810 l 1,20,-1
 179 929 l 1,21,-1
 266 929 l 1,22,-1
 341 860 l 1,23,-1
 411 929 l 1,24,-1
 503 929 l 1,18,-1
EndSplineSet
EndChar

StartChar: dcaron
Encoding: 271 271 208
Width: 589
GlyphClass: 2
Flags: W
AnchorPoint: "Anchor-5" 591 639 basechar 0
AnchorPoint: "Anchor-4" 289 0 basechar 0
AnchorPoint: "Anchor-3" 0 0 basechar 0
AnchorPoint: "Anchor-2" 0 0 basechar 0
LayerCount: 2
Fore
SplineSet
102.5 59 m 128,-1,1
 45 128 45 128 45 254 c 0,2,3
 45 379 45 379 101.5 453 c 128,-1,4
 158 527 158 527 259 527 c 0,5,6
 348 527 348 527 410 461 c 1,7,-1
 410 743 l 1,8,-1
 513 743 l 1,9,-1
 513 0 l 1,10,-1
 435 0 l 1,11,-1
 428 73 l 1,12,13
 406 42 406 42 364 16 c 128,-1,14
 322 -10 322 -10 260 -10 c 0,15,0
 160 -10 160 -10 102.5 59 c 128,-1,1
347.5 85 m 128,-1,17
 377 103 377 103 393.5 133 c 128,-1,18
 410 163 410 163 410 196 c 2,19,-1
 410 362 l 1,20,21
 369 449 369 449 286 449 c 0,22,23
 221 449 221 449 183.5 400.5 c 128,-1,24
 146 352 146 352 146 257 c 0,25,26
 146 161 146 161 183.5 114 c 128,-1,27
 221 67 221 67 282 67 c 0,28,16
 318 67 318 67 347.5 85 c 128,-1,17
514 444 m 128,-1,30
 512 447 512 447 513 451 c 2,31,-1
 543 522 l 1,32,-1
 545 530 l 2,33,34
 545 535 545 535 538 536 c 2,35,-1
 530 537 l 2,36,37
 524 538 524 538 521.5 540 c 128,-1,38
 519 542 519 542 519 548 c 2,39,-1
 519 629 l 2,40,41
 519 639 519 639 528 639 c 2,42,-1
 591 639 l 2,43,44
 599 639 599 639 599 631 c 2,45,-1
 599 537 l 1,46,-1
 598 531 l 1,47,-1
 564 451 l 2,48,49
 562 445 562 445 557.5 443 c 128,-1,50
 553 441 553 441 544 441 c 2,51,-1
 520 441 l 2,52,29
 516 441 516 441 514 444 c 128,-1,30
EndSplineSet
EndChar

StartChar: Dcroat
Encoding: 272 272 209
Width: 705
GlyphClass: 2
Flags: W
AnchorPoint: "Anchor-5" 0 0 basechar 0
AnchorPoint: "Anchor-4" 0 0 basechar 0
AnchorPoint: "Anchor-3" 355 723 basechar 0
AnchorPoint: "Anchor-2" 0 0 basechar 0
LayerCount: 2
Fore
SplineSet
565.5 629.5 m 128,-1,1
 656 540 656 540 656 366 c 0,2,3
 656 0 656 0 272 0 c 2,4,-1
 104 0 l 1,5,-1
 104 320 l 1,6,-1
 49 320 l 2,7,8
 40 320 40 320 36 324 c 128,-1,9
 32 328 32 328 32 336 c 2,10,-1
 32 386 l 2,11,12
 32 400 32 400 44 400 c 2,13,-1
 104 400 l 1,14,-1
 104 723 l 1,15,16
 219 723 219 723 280 722 c 0,17,0
 475 719 475 719 565.5 629.5 c 128,-1,1
477.5 152.5 m 128,-1,19
 549 218 549 218 549 365 c 0,20,21
 549 511 549 511 480 574 c 128,-1,22
 411 637 411 637 276 637 c 2,23,-1
 208 637 l 1,24,-1
 208 400 l 1,25,-1
 361 400 l 2,26,27
 372 400 372 400 372 388 c 2,28,-1
 372 338 l 2,29,30
 372 328 372 328 367 324 c 128,-1,31
 362 320 362 320 351 320 c 2,32,-1
 208 320 l 1,33,-1
 208 87 l 1,34,-1
 272 87 l 2,35,18
 406 87 406 87 477.5 152.5 c 128,-1,19
EndSplineSet
EndChar

StartChar: dcroat
Encoding: 273 273 210
Width: 602
GlyphClass: 2
Flags: W
AnchorPoint: "Anchor-5" 591 639 basechar 0
AnchorPoint: "Anchor-4" 289 0 basechar 0
AnchorPoint: "Anchor-3" 0 0 basechar 0
AnchorPoint: "Anchor-2" 0 0 basechar 0
LayerCount: 2
Fore
SplineSet
575 593 m 1,0,-1
 513 593 l 1,1,-1
 513 0 l 1,2,-1
 435 0 l 1,3,-1
 428 73 l 1,4,5
 406 42 406 42 364 16 c 128,-1,6
 322 -10 322 -10 260 -10 c 0,7,8
 160 -10 160 -10 102.5 59 c 128,-1,9
 45 128 45 128 45 254 c 0,10,11
 45 379 45 379 101.5 453 c 128,-1,12
 158 527 158 527 259 527 c 0,13,14
 348 527 348 527 410 461 c 1,15,-1
 410 593 l 1,16,-1
 261 593 l 1,17,-1
 261 655 l 1,18,-1
 410 655 l 1,19,-1
 410 743 l 1,20,-1
 513 743 l 1,21,-1
 513 655 l 1,22,-1
 575 655 l 1,23,-1
 575 593 l 1,0,-1
410 362 m 1,24,25
 369 449 369 449 286 449 c 0,26,27
 221 449 221 449 183.5 400.5 c 128,-1,28
 146 352 146 352 146 257 c 0,29,30
 146 161 146 161 183.5 114 c 128,-1,31
 221 67 221 67 282 67 c 0,32,33
 318 67 318 67 347.5 85 c 128,-1,34
 377 103 377 103 393.5 133 c 128,-1,35
 410 163 410 163 410 196 c 2,36,-1
 410 362 l 1,24,25
EndSplineSet
EndChar

StartChar: Emacron
Encoding: 274 274 211
Width: 625
GlyphClass: 2
Flags: W
AnchorPoint: "Anchor-5" 0 0 basechar 0
AnchorPoint: "Anchor-4" 342 0 basechar 0
AnchorPoint: "Anchor-3" 331 723 basechar 0
AnchorPoint: "Anchor-2" 557 10 basechar 0
LayerCount: 2
Fore
SplineSet
91 723 m 1,0,-1
 554 723 l 1,1,-1
 553 634 l 1,2,-1
 193 634 l 1,3,-1
 193 409 l 1,4,-1
 516 409 l 1,5,-1
 516 321 l 1,6,-1
 193 321 l 1,7,-1
 193 91 l 1,8,-1
 563 90 l 1,9,-1
 563 0 l 1,10,-1
 91 0 l 1,11,-1
 91 723 l 1,0,-1
485 847 m 1,12,-1
 177 847 l 1,13,-1
 177 918 l 1,14,-1
 485 918 l 1,15,-1
 485 847 l 1,12,-1
EndSplineSet
EndChar

StartChar: emacron
Encoding: 275 275 212
Width: 558
GlyphClass: 2
Flags: W
AnchorPoint: "Anchor-5" 0 0 basechar 0
AnchorPoint: "Anchor-4" 280 0 basechar 0
AnchorPoint: "Anchor-3" 284 517 basechar 0
AnchorPoint: "Anchor-2" 392 21 basechar 0
LayerCount: 2
Fore
SplineSet
185.5 114.5 m 128,-1,1
 223 68 223 68 291 68 c 0,2,3
 386 68 386 68 414 144 c 1,4,-1
 506 134 l 1,5,6
 490 68 490 68 430.5 29 c 128,-1,7
 371 -10 371 -10 293 -10 c 0,8,9
 220 -10 220 -10 164 21.5 c 128,-1,10
 108 53 108 53 76.5 113 c 128,-1,11
 45 173 45 173 45 253 c 0,12,13
 45 334 45 334 73.5 396 c 128,-1,14
 102 458 102 458 156 492.5 c 128,-1,15
 210 527 210 527 284 527 c 0,16,17
 393 527 393 527 452.5 458 c 128,-1,18
 512 389 512 389 512 270 c 2,19,-1
 512 234 l 1,20,-1
 148 234 l 1,21,0
 148 161 148 161 185.5 114.5 c 128,-1,1
415 302 m 1,22,23
 415 368 415 368 381 409.5 c 128,-1,24
 347 451 347 451 283 451 c 0,25,26
 240 451 240 451 209.5 429.5 c 128,-1,27
 179 408 179 408 163.5 374 c 128,-1,28
 148 340 148 340 148 302 c 1,29,-1
 415 302 l 1,22,23
438 641 m 1,30,-1
 130 641 l 1,31,-1
 130 712 l 1,32,-1
 438 712 l 1,33,-1
 438 641 l 1,30,-1
EndSplineSet
EndChar

StartChar: Ebreve
Encoding: 276 276 213
Width: 625
GlyphClass: 2
Flags: W
AnchorPoint: "Anchor-5" 0 0 basechar 0
AnchorPoint: "Anchor-4" 342 0 basechar 0
AnchorPoint: "Anchor-3" 331 723 basechar 0
AnchorPoint: "Anchor-2" 557 10 basechar 0
LayerCount: 2
Fore
SplineSet
91 723 m 1,0,-1
 554 723 l 1,1,-1
 553 634 l 1,2,-1
 193 634 l 1,3,-1
 193 409 l 1,4,-1
 516 409 l 1,5,-1
 516 321 l 1,6,-1
 193 321 l 1,7,-1
 193 91 l 1,8,-1
 563 90 l 1,9,-1
 563 0 l 1,10,-1
 91 0 l 1,11,-1
 91 723 l 1,0,-1
432 849 m 128,-1,13
 390 817 390 817 331 817 c 0,14,15
 271 817 271 817 230 848 c 128,-1,16
 189 879 189 879 176 929 c 1,17,-1
 246 929 l 1,18,19
 277 876 277 876 331 876 c 0,20,21
 359 876 359 876 381 891.5 c 128,-1,22
 403 907 403 907 415 929 c 1,23,-1
 487 929 l 1,24,12
 474 881 474 881 432 849 c 128,-1,13
EndSplineSet
EndChar

StartChar: ebreve
Encoding: 277 277 214
Width: 558
GlyphClass: 2
Flags: W
AnchorPoint: "Anchor-5" 0 0 basechar 0
AnchorPoint: "Anchor-4" 280 0 basechar 0
AnchorPoint: "Anchor-3" 284 517 basechar 0
AnchorPoint: "Anchor-2" 392 21 basechar 0
LayerCount: 2
Fore
SplineSet
185.5 114.5 m 128,-1,1
 223 68 223 68 291 68 c 0,2,3
 386 68 386 68 414 144 c 1,4,-1
 506 134 l 1,5,6
 490 68 490 68 430.5 29 c 128,-1,7
 371 -10 371 -10 293 -10 c 0,8,9
 220 -10 220 -10 164 21.5 c 128,-1,10
 108 53 108 53 76.5 113 c 128,-1,11
 45 173 45 173 45 253 c 0,12,13
 45 334 45 334 73.5 396 c 128,-1,14
 102 458 102 458 156 492.5 c 128,-1,15
 210 527 210 527 284 527 c 0,16,17
 393 527 393 527 452.5 458 c 128,-1,18
 512 389 512 389 512 270 c 2,19,-1
 512 234 l 1,20,-1
 148 234 l 1,21,0
 148 161 148 161 185.5 114.5 c 128,-1,1
415 302 m 1,22,23
 415 368 415 368 381 409.5 c 128,-1,24
 347 451 347 451 283 451 c 0,25,26
 240 451 240 451 209.5 429.5 c 128,-1,27
 179 408 179 408 163.5 374 c 128,-1,28
 148 340 148 340 148 302 c 1,29,-1
 415 302 l 1,22,23
385 643 m 128,-1,31
 343 611 343 611 284 611 c 0,32,33
 224 611 224 611 183 642 c 128,-1,34
 142 673 142 673 129 723 c 1,35,-1
 199 723 l 1,36,37
 230 670 230 670 284 670 c 0,38,39
 312 670 312 670 334 685.5 c 128,-1,40
 356 701 356 701 368 723 c 1,41,-1
 440 723 l 1,42,30
 427 675 427 675 385 643 c 128,-1,31
EndSplineSet
EndChar

StartChar: Edotaccent
Encoding: 278 278 215
Width: 625
GlyphClass: 2
Flags: W
AnchorPoint: "Anchor-5" 0 0 basechar 0
AnchorPoint: "Anchor-4" 342 0 basechar 0
AnchorPoint: "Anchor-3" 331 723 basechar 0
AnchorPoint: "Anchor-2" 557 10 basechar 0
LayerCount: 2
Fore
SplineSet
91 723 m 1,0,-1
 554 723 l 1,1,-1
 553 634 l 1,2,-1
 193 634 l 1,3,-1
 193 409 l 1,4,-1
 516 409 l 1,5,-1
 516 321 l 1,6,-1
 193 321 l 1,7,-1
 193 91 l 1,8,-1
 563 90 l 1,9,-1
 563 0 l 1,10,-1
 91 0 l 1,11,-1
 91 723 l 1,0,-1
386 806 m 1,12,-1
 278 806 l 1,13,-1
 278 929 l 1,14,-1
 386 929 l 1,15,-1
 386 806 l 1,12,-1
EndSplineSet
EndChar

StartChar: edotaccent
Encoding: 279 279 216
Width: 558
GlyphClass: 2
Flags: W
AnchorPoint: "Anchor-5" 0 0 basechar 0
AnchorPoint: "Anchor-4" 280 0 basechar 0
AnchorPoint: "Anchor-3" 284 517 basechar 0
AnchorPoint: "Anchor-2" 392 21 basechar 0
LayerCount: 2
Fore
SplineSet
185.5 114.5 m 128,-1,1
 223 68 223 68 291 68 c 0,2,3
 386 68 386 68 414 144 c 1,4,-1
 506 134 l 1,5,6
 490 68 490 68 430.5 29 c 128,-1,7
 371 -10 371 -10 293 -10 c 0,8,9
 220 -10 220 -10 164 21.5 c 128,-1,10
 108 53 108 53 76.5 113 c 128,-1,11
 45 173 45 173 45 253 c 0,12,13
 45 334 45 334 73.5 396 c 128,-1,14
 102 458 102 458 156 492.5 c 128,-1,15
 210 527 210 527 284 527 c 0,16,17
 393 527 393 527 452.5 458 c 128,-1,18
 512 389 512 389 512 270 c 2,19,-1
 512 234 l 1,20,-1
 148 234 l 1,21,0
 148 161 148 161 185.5 114.5 c 128,-1,1
415 302 m 1,22,23
 415 368 415 368 381 409.5 c 128,-1,24
 347 451 347 451 283 451 c 0,25,26
 240 451 240 451 209.5 429.5 c 128,-1,27
 179 408 179 408 163.5 374 c 128,-1,28
 148 340 148 340 148 302 c 1,29,-1
 415 302 l 1,22,23
339 600 m 1,30,-1
 231 600 l 1,31,-1
 231 723 l 1,32,-1
 339 723 l 1,33,-1
 339 600 l 1,30,-1
EndSplineSet
EndChar

StartChar: Eogonek
Encoding: 280 280 217
Width: 625
GlyphClass: 2
Flags: W
AnchorPoint: "Anchor-5" 0 0 basechar 0
AnchorPoint: "Anchor-4" 342 0 basechar 0
AnchorPoint: "Anchor-3" 331 723 basechar 0
AnchorPoint: "Anchor-2" 557 10 basechar 0
LayerCount: 2
Fore
SplineSet
91 723 m 1,0,-1
 554 723 l 1,1,-1
 553 634 l 1,2,-1
 193 634 l 1,3,-1
 193 409 l 1,4,-1
 516 409 l 1,5,-1
 516 321 l 1,6,-1
 193 321 l 1,7,-1
 193 91 l 1,8,-1
 563 90 l 1,9,-1
 563 0 l 1,10,-1
 91 0 l 1,11,-1
 91 723 l 1,0,-1
416 -33 m 128,-1,13
 438 -10 438 -10 495 8 c 1,14,-1
 569 3 l 1,15,16
 517 -18 517 -18 495.5 -36.5 c 128,-1,17
 474 -55 474 -55 474 -78 c 0,18,19
 474 -96 474 -96 484.5 -105 c 128,-1,20
 495 -114 495 -114 518 -114 c 0,21,22
 550 -114 550 -114 578 -100 c 0,23,24
 581 -98 581 -98 585 -98 c 0,25,26
 590 -98 590 -98 590 -106 c 2,27,-1
 590 -138 l 2,28,29
 590 -146 590 -146 583 -150 c 0,30,31
 570 -157 570 -157 545.5 -162 c 128,-1,32
 521 -167 521 -167 495 -167 c 0,33,34
 446 -167 446 -167 420 -146 c 128,-1,35
 394 -125 394 -125 394 -88 c 0,36,12
 394 -56 394 -56 416 -33 c 128,-1,13
EndSplineSet
EndChar

StartChar: eogonek
Encoding: 281 281 218
Width: 558
GlyphClass: 2
Flags: W
AnchorPoint: "Anchor-5" 0 0 basechar 0
AnchorPoint: "Anchor-4" 280 0 basechar 0
AnchorPoint: "Anchor-3" 284 517 basechar 0
AnchorPoint: "Anchor-2" 392 21 basechar 0
LayerCount: 2
Fore
SplineSet
185.5 114.5 m 128,-1,1
 223 68 223 68 291 68 c 0,2,3
 386 68 386 68 414 144 c 1,4,-1
 506 134 l 1,5,6
 490 68 490 68 430.5 29 c 128,-1,7
 371 -10 371 -10 293 -10 c 0,8,9
 220 -10 220 -10 164 21.5 c 128,-1,10
 108 53 108 53 76.5 113 c 128,-1,11
 45 173 45 173 45 253 c 0,12,13
 45 334 45 334 73.5 396 c 128,-1,14
 102 458 102 458 156 492.5 c 128,-1,15
 210 527 210 527 284 527 c 0,16,17
 393 527 393 527 452.5 458 c 128,-1,18
 512 389 512 389 512 270 c 2,19,-1
 512 234 l 1,20,-1
 148 234 l 1,21,0
 148 161 148 161 185.5 114.5 c 128,-1,1
415 302 m 1,22,23
 415 368 415 368 381 409.5 c 128,-1,24
 347 451 347 451 283 451 c 0,25,26
 240 451 240 451 209.5 429.5 c 128,-1,27
 179 408 179 408 163.5 374 c 128,-1,28
 148 340 148 340 148 302 c 1,29,-1
 415 302 l 1,22,23
251 -22 m 128,-1,31
 273 1 273 1 330 19 c 1,32,-1
 404 14 l 1,33,34
 352 -7 352 -7 330.5 -25.5 c 128,-1,35
 309 -44 309 -44 309 -67 c 0,36,37
 309 -85 309 -85 319.5 -94 c 128,-1,38
 330 -103 330 -103 353 -103 c 0,39,40
 385 -103 385 -103 413 -89 c 0,41,42
 416 -87 416 -87 420 -87 c 0,43,44
 425 -87 425 -87 425 -95 c 2,45,-1
 425 -127 l 2,46,47
 425 -135 425 -135 418 -139 c 0,48,49
 405 -146 405 -146 380.5 -151 c 128,-1,50
 356 -156 356 -156 330 -156 c 0,51,52
 281 -156 281 -156 255 -135 c 128,-1,53
 229 -114 229 -114 229 -77 c 0,54,30
 229 -45 229 -45 251 -22 c 128,-1,31
EndSplineSet
EndChar

StartChar: Ecaron
Encoding: 282 282 219
Width: 625
GlyphClass: 2
Flags: W
AnchorPoint: "Anchor-5" 0 0 basechar 0
AnchorPoint: "Anchor-4" 342 0 basechar 0
AnchorPoint: "Anchor-3" 331 723 basechar 0
AnchorPoint: "Anchor-2" 557 10 basechar 0
LayerCount: 2
Fore
SplineSet
91 723 m 1,0,-1
 554 723 l 1,1,-1
 553 634 l 1,2,-1
 193 634 l 1,3,-1
 193 409 l 1,4,-1
 516 409 l 1,5,-1
 516 321 l 1,6,-1
 193 321 l 1,7,-1
 193 91 l 1,8,-1
 563 90 l 1,9,-1
 563 0 l 1,10,-1
 91 0 l 1,11,-1
 91 723 l 1,0,-1
492 929 m 1,12,-1
 368 810 l 1,13,-1
 295 810 l 1,14,-1
 168 929 l 1,15,-1
 255 929 l 1,16,-1
 330 860 l 1,17,-1
 400 929 l 1,18,-1
 492 929 l 1,12,-1
EndSplineSet
EndChar

StartChar: ecaron
Encoding: 283 283 220
Width: 558
GlyphClass: 2
Flags: W
AnchorPoint: "Anchor-5" 0 0 basechar 0
AnchorPoint: "Anchor-4" 280 0 basechar 0
AnchorPoint: "Anchor-3" 284 517 basechar 0
AnchorPoint: "Anchor-2" 392 21 basechar 0
LayerCount: 2
Fore
SplineSet
185.5 114.5 m 128,-1,1
 223 68 223 68 291 68 c 0,2,3
 386 68 386 68 414 144 c 1,4,-1
 506 134 l 1,5,6
 490 68 490 68 430.5 29 c 128,-1,7
 371 -10 371 -10 293 -10 c 0,8,9
 220 -10 220 -10 164 21.5 c 128,-1,10
 108 53 108 53 76.5 113 c 128,-1,11
 45 173 45 173 45 253 c 0,12,13
 45 334 45 334 73.5 396 c 128,-1,14
 102 458 102 458 156 492.5 c 128,-1,15
 210 527 210 527 284 527 c 0,16,17
 393 527 393 527 452.5 458 c 128,-1,18
 512 389 512 389 512 270 c 2,19,-1
 512 234 l 1,20,-1
 148 234 l 1,21,0
 148 161 148 161 185.5 114.5 c 128,-1,1
415 302 m 1,22,23
 415 368 415 368 381 409.5 c 128,-1,24
 347 451 347 451 283 451 c 0,25,26
 240 451 240 451 209.5 429.5 c 128,-1,27
 179 408 179 408 163.5 374 c 128,-1,28
 148 340 148 340 148 302 c 1,29,-1
 415 302 l 1,22,23
445 723 m 1,30,-1
 321 604 l 1,31,-1
 248 604 l 1,32,-1
 121 723 l 1,33,-1
 208 723 l 1,34,-1
 283 654 l 1,35,-1
 353 723 l 1,36,-1
 445 723 l 1,30,-1
EndSplineSet
EndChar

StartChar: Gcircumflex
Encoding: 284 284 221
Width: 732
GlyphClass: 2
Flags: W
AnchorPoint: "Anchor-5" 0 0 basechar 0
AnchorPoint: "Anchor-4" 365 0 basechar 0
AnchorPoint: "Anchor-3" 362 723 basechar 0
AnchorPoint: "Anchor-2" 0 0 basechar 0
LayerCount: 2
Fore
SplineSet
195 35 m 128,-1,1
 125 80 125 80 87.5 163 c 128,-1,2
 50 246 50 246 50 359 c 0,3,4
 50 474 50 474 89 558.5 c 128,-1,5
 128 643 128 643 199.5 688 c 128,-1,6
 271 733 271 733 366 733 c 0,7,8
 439 733 439 733 501 702 c 128,-1,9
 563 671 563 671 600.5 619.5 c 128,-1,10
 638 568 638 568 641 510 c 1,11,-1
 532 505 l 1,12,13
 520 565 520 565 474.5 604 c 128,-1,14
 429 643 429 643 364 643 c 0,15,16
 269 643 269 643 215 572 c 128,-1,17
 161 501 161 501 161 365 c 0,18,19
 161 221 161 221 216.5 151.5 c 128,-1,20
 272 82 272 82 367 82 c 0,21,22
 421 82 421 82 459.5 106 c 128,-1,23
 498 130 498 130 519 166.5 c 128,-1,24
 540 203 540 203 543 240 c 2,25,-1
 546 301 l 1,26,-1
 375 301 l 1,27,-1
 375 375 l 1,28,-1
 653 374 l 1,29,-1
 653 0 l 1,30,-1
 577 0 l 1,31,-1
 577 107 l 1,32,33
 505 -10 505 -10 360 -10 c 0,34,0
 265 -10 265 -10 195 35 c 128,-1,1
361 883 m 1,35,-1
 286 815 l 1,36,-1
 199 815 l 1,37,-1
 326 933 l 1,38,-1
 399 933 l 1,39,-1
 523 815 l 1,40,-1
 431 815 l 1,41,-1
 361 883 l 1,35,-1
EndSplineSet
EndChar

StartChar: gcircumflex
Encoding: 285 285 222
Width: 609
GlyphClass: 2
Flags: W
AnchorPoint: "Anchor-5" 0 0 basechar 0
AnchorPoint: "Anchor-4" 0 0 basechar 0
AnchorPoint: "Anchor-3" 299 517 basechar 0
AnchorPoint: "Anchor-2" 0 0 basechar 0
LayerCount: 2
Fore
SplineSet
101 -134.5 m 128,-1,1
 33 -98 33 -98 33 -37 c 0,2,3
 33 3 33 3 58.5 26 c 128,-1,4
 84 49 84 49 105.5 59.5 c 128,-1,5
 127 70 127 70 131 73 c 1,6,7
 128 75 128 75 112.5 83.5 c 128,-1,8
 97 92 97 92 86.5 106.5 c 128,-1,9
 76 121 76 121 76 140 c 0,10,11
 76 166 76 166 100.5 186.5 c 128,-1,12
 125 207 125 207 170 217 c 1,13,14
 72 265 72 265 72 362 c 0,15,16
 72 438 72 438 135.5 481.5 c 128,-1,17
 199 525 199 525 301 525 c 0,18,19
 350 525 350 525 384.5 514 c 128,-1,20
 419 503 419 503 450 481 c 1,21,22
 472 491 472 491 511 506 c 2,23,-1
 585 537 l 1,24,-1
 585 446 l 1,25,-1
 495 429 l 1,26,27
 501 415 501 415 506 395 c 128,-1,28
 511 375 511 375 511 362 c 0,29,30
 511 317 511 317 486.5 279.5 c 128,-1,31
 462 242 462 242 412.5 219.5 c 128,-1,32
 363 197 363 197 292 197 c 2,33,-1
 257 198 l 2,34,35
 212 197 212 197 192 188 c 128,-1,36
 172 179 172 179 172 166 c 0,37,38
 172 152 172 152 192.5 147 c 128,-1,39
 213 142 213 142 269 138 c 2,40,-1
 381 131 l 2,41,42
 468 126 468 126 510.5 88.5 c 128,-1,43
 553 51 553 51 553 -10 c 0,44,45
 553 -85 553 -85 485.5 -128 c 128,-1,46
 418 -171 418 -171 295 -171 c 0,47,0
 169 -171 169 -171 101 -134.5 c 128,-1,1
382.5 286.5 m 128,-1,49
 413 312 413 312 413 360 c 0,50,51
 413 409 413 409 382 436.5 c 128,-1,52
 351 464 351 464 295 464 c 128,-1,53
 239 464 239 464 207 436 c 128,-1,54
 175 408 175 408 175 360 c 0,55,56
 175 313 175 313 206.5 287 c 128,-1,57
 238 261 238 261 295 261 c 128,-1,48
 352 261 352 261 382.5 286.5 c 128,-1,49
420 -88 m 128,-1,59
 454 -68 454 -68 454 -26 c 0,60,61
 454 38 454 38 363 44 c 2,62,-1
 223 53 l 2,63,64
 203 54 203 54 182 44 c 128,-1,65
 161 34 161 34 147.5 15.5 c 128,-1,66
 134 -3 134 -3 134 -25 c 0,67,68
 134 -108 134 -108 313 -108 c 0,69,58
 386 -108 386 -108 420 -88 c 128,-1,59
298 677 m 1,70,-1
 223 609 l 1,71,-1
 136 609 l 1,72,-1
 263 727 l 1,73,-1
 336 727 l 1,74,-1
 460 609 l 1,75,-1
 368 609 l 1,76,-1
 298 677 l 1,70,-1
EndSplineSet
EndChar

StartChar: Gbreve
Encoding: 286 286 223
Width: 732
GlyphClass: 2
Flags: W
AnchorPoint: "Anchor-5" 0 0 basechar 0
AnchorPoint: "Anchor-4" 365 0 basechar 0
AnchorPoint: "Anchor-3" 362 723 basechar 0
AnchorPoint: "Anchor-2" 0 0 basechar 0
LayerCount: 2
Fore
SplineSet
195 35 m 128,-1,1
 125 80 125 80 87.5 163 c 128,-1,2
 50 246 50 246 50 359 c 0,3,4
 50 474 50 474 89 558.5 c 128,-1,5
 128 643 128 643 199.5 688 c 128,-1,6
 271 733 271 733 366 733 c 0,7,8
 439 733 439 733 501 702 c 128,-1,9
 563 671 563 671 600.5 619.5 c 128,-1,10
 638 568 638 568 641 510 c 1,11,-1
 532 505 l 1,12,13
 520 565 520 565 474.5 604 c 128,-1,14
 429 643 429 643 364 643 c 0,15,16
 269 643 269 643 215 572 c 128,-1,17
 161 501 161 501 161 365 c 0,18,19
 161 221 161 221 216.5 151.5 c 128,-1,20
 272 82 272 82 367 82 c 0,21,22
 421 82 421 82 459.5 106 c 128,-1,23
 498 130 498 130 519 166.5 c 128,-1,24
 540 203 540 203 543 240 c 2,25,-1
 546 301 l 1,26,-1
 375 301 l 1,27,-1
 375 375 l 1,28,-1
 653 374 l 1,29,-1
 653 0 l 1,30,-1
 577 0 l 1,31,-1
 577 107 l 1,32,33
 505 -10 505 -10 360 -10 c 0,34,0
 265 -10 265 -10 195 35 c 128,-1,1
463 849 m 128,-1,36
 421 817 421 817 362 817 c 0,37,38
 302 817 302 817 261 848 c 128,-1,39
 220 879 220 879 207 929 c 1,40,-1
 277 929 l 1,41,42
 308 876 308 876 362 876 c 0,43,44
 390 876 390 876 412 891.5 c 128,-1,45
 434 907 434 907 446 929 c 1,46,-1
 518 929 l 1,47,35
 505 881 505 881 463 849 c 128,-1,36
EndSplineSet
EndChar

StartChar: gbreve
Encoding: 287 287 224
Width: 609
GlyphClass: 2
Flags: W
AnchorPoint: "Anchor-5" 0 0 basechar 0
AnchorPoint: "Anchor-4" 0 0 basechar 0
AnchorPoint: "Anchor-3" 299 517 basechar 0
AnchorPoint: "Anchor-2" 0 0 basechar 0
LayerCount: 2
Fore
SplineSet
101 -134.5 m 128,-1,1
 33 -98 33 -98 33 -37 c 0,2,3
 33 3 33 3 58.5 26 c 128,-1,4
 84 49 84 49 105.5 59.5 c 128,-1,5
 127 70 127 70 131 73 c 1,6,7
 128 75 128 75 112.5 83.5 c 128,-1,8
 97 92 97 92 86.5 106.5 c 128,-1,9
 76 121 76 121 76 140 c 0,10,11
 76 166 76 166 100.5 186.5 c 128,-1,12
 125 207 125 207 170 217 c 1,13,14
 72 265 72 265 72 362 c 0,15,16
 72 438 72 438 135.5 481.5 c 128,-1,17
 199 525 199 525 301 525 c 0,18,19
 350 525 350 525 384.5 514 c 128,-1,20
 419 503 419 503 450 481 c 1,21,22
 472 491 472 491 511 506 c 2,23,-1
 585 537 l 1,24,-1
 585 446 l 1,25,-1
 495 429 l 1,26,27
 501 415 501 415 506 395 c 128,-1,28
 511 375 511 375 511 362 c 0,29,30
 511 317 511 317 486.5 279.5 c 128,-1,31
 462 242 462 242 412.5 219.5 c 128,-1,32
 363 197 363 197 292 197 c 2,33,-1
 257 198 l 2,34,35
 212 197 212 197 192 188 c 128,-1,36
 172 179 172 179 172 166 c 0,37,38
 172 152 172 152 192.5 147 c 128,-1,39
 213 142 213 142 269 138 c 2,40,-1
 381 131 l 2,41,42
 468 126 468 126 510.5 88.5 c 128,-1,43
 553 51 553 51 553 -10 c 0,44,45
 553 -85 553 -85 485.5 -128 c 128,-1,46
 418 -171 418 -171 295 -171 c 0,47,0
 169 -171 169 -171 101 -134.5 c 128,-1,1
382.5 286.5 m 128,-1,49
 413 312 413 312 413 360 c 0,50,51
 413 409 413 409 382 436.5 c 128,-1,52
 351 464 351 464 295 464 c 128,-1,53
 239 464 239 464 207 436 c 128,-1,54
 175 408 175 408 175 360 c 0,55,56
 175 313 175 313 206.5 287 c 128,-1,57
 238 261 238 261 295 261 c 128,-1,48
 352 261 352 261 382.5 286.5 c 128,-1,49
420 -88 m 128,-1,59
 454 -68 454 -68 454 -26 c 0,60,61
 454 38 454 38 363 44 c 2,62,-1
 223 53 l 2,63,64
 203 54 203 54 182 44 c 128,-1,65
 161 34 161 34 147.5 15.5 c 128,-1,66
 134 -3 134 -3 134 -25 c 0,67,68
 134 -108 134 -108 313 -108 c 0,69,58
 386 -108 386 -108 420 -88 c 128,-1,59
400 643 m 128,-1,71
 358 611 358 611 299 611 c 0,72,73
 239 611 239 611 198 642 c 128,-1,74
 157 673 157 673 144 723 c 1,75,-1
 214 723 l 1,76,77
 245 670 245 670 299 670 c 0,78,79
 327 670 327 670 349 685.5 c 128,-1,80
 371 701 371 701 383 723 c 1,81,-1
 455 723 l 1,82,70
 442 675 442 675 400 643 c 128,-1,71
EndSplineSet
EndChar

